<?xml version="1.0" encoding="UTF-8"?>
<svg version="1.1" xmlns="http://www.w3.org/2000/svg" width="100" height="122" viewBox="0 -0.398 100.1 122.398">
<path d="M0 0 C1.20970459 0.00523682 2.41940918 0.01047363 3.66577148 0.01586914 C4.97094727 0.0190918 6.27612305 0.02231445 7.62084961 0.02563477 C9.00952213 0.03399138 10.39819401 0.04245634 11.78686523 0.05102539 C13.17944179 0.05603873 14.57202005 0.06060193 15.96459961 0.06469727 C19.38456394 0.07653105 22.80444367 0.09301659 26.22436523 0.11352539 C28.46031994 4.58543481 27.45430037 10.70264992 27.47436523 15.61352539 C27.49499023 16.87551758 27.51561523 18.13750977 27.53686523 19.43774414 C27.54459961 21.24178711 27.54459961 21.24178711 27.55249023 23.08227539 C27.56650879 24.74419922 27.56650879 24.74419922 27.58081055 26.43969727 C27.46318359 27.32206055 27.34555664 28.20442383 27.22436523 29.11352539 C24.02056506 31.24939217 23.20496556 31.34484714 19.53686523 31.23852539 C18.72862305 31.22047852 17.92038086 31.20243164 17.08764648 31.18383789 C16.47276367 31.16063477 15.85788086 31.13743164 15.22436523 31.11352539 C15.22436523 32.43352539 15.22436523 33.75352539 15.22436523 35.11352539 C18.85436523 35.11352539 22.48436523 35.11352539 26.22436523 35.11352539 C27.22436523 40.11352539 27.22436523 40.11352539 26.22436523 42.11352539 C22.59436523 42.11352539 18.96436523 42.11352539 15.22436523 42.11352539 C15.22436523 43.76352539 15.22436523 45.41352539 15.22436523 47.11352539 C18.85436523 47.11352539 22.48436523 47.11352539 26.22436523 47.11352539 C26.22436523 57.01352539 26.22436523 66.91352539 26.22436523 77.11352539 C16.65436523 77.11352539 7.08436523 77.11352539 -2.77563477 77.11352539 C-3.74379956 73.24086619 -3.85186335 70.07741177 -3.77563477 66.11352539 C-5.42563477 66.11352539 -7.07563477 66.11352539 -8.77563477 66.11352539 C-9.90063477 62.36352539 -9.90063477 62.36352539 -8.77563477 60.11352539 C-10.75563477 60.11352539 -12.73563477 60.11352539 -14.77563477 60.11352539 C-14.77563477 57.80352539 -14.77563477 55.49352539 -14.77563477 53.11352539 C-12.79563477 53.44352539 -10.81563477 53.77352539 -8.77563477 54.11352539 C-8.44563477 55.10352539 -8.11563477 56.09352539 -7.77563477 57.11352539 C-8.10563477 57.77352539 -8.43563477 58.43352539 -8.77563477 59.11352539 C-7.12563477 59.11352539 -5.47563477 59.11352539 -3.77563477 59.11352539 C-2.76846444 54.57926373 -2.76846444 54.57926373 -3.33813477 50.05102539 C-3.48250977 49.41165039 -3.62688477 48.77227539 -3.77563477 48.11352539 C-2.77563477 47.11352539 -2.77563477 47.11352539 -0.21313477 47.05102539 C0.59124023 47.07165039 1.39561523 47.09227539 2.22436523 47.11352539 C2.55436523 48.43352539 2.88436523 49.75352539 3.22436523 51.11352539 C7.67936523 50.61852539 7.67936523 50.61852539 12.22436523 50.11352539 C12.44807119 47.90669632 12.65266914 45.69792566 12.84936523 43.48852539 C12.96538086 42.25875977 13.08139648 41.02899414 13.20092773 39.76196289 C13.22490992 36.02873549 12.72581366 33.51476569 11.22436523 30.11352539 C10.56436523 29.78352539 9.90436523 29.45352539 9.22436523 29.11352539 C9.22436523 28.45352539 9.22436523 27.79352539 9.22436523 27.11352539 C8.3697168 27.05293945 7.51506836 26.99235352 6.63452148 26.92993164 C5.52979492 26.84614258 4.42506836 26.76235352 3.28686523 26.67602539 C1.63364258 26.55420898 1.63364258 26.55420898 -0.05297852 26.42993164 C-2.77563477 26.11352539 -2.77563477 26.11352539 -3.77563477 25.11352539 C-3.87509929 23.34493346 -3.90643694 21.57241088 -3.90844727 19.80102539 C-3.91038086 18.1884082 -3.91038086 18.1884082 -3.91235352 16.54321289 C-3.90848633 15.41141602 -3.90461914 14.27961914 -3.90063477 13.11352539 C-3.90450195 11.98172852 -3.90836914 10.84993164 -3.91235352 9.68383789 C-3.91106445 8.60875977 -3.90977539 7.53368164 -3.90844727 6.42602539 C-3.90731934 5.4321582 -3.90619141 4.43829102 -3.9050293 3.41430664 C-3.71468868 0.02983497 -3.42781091 0.14019985 0 0 Z M3.22436523 7.11352539 C3.22436523 12.39352539 3.22436523 17.67352539 3.22436523 23.11352539 C6.2111993 24.60694242 8.96836298 24.24527718 12.28686523 24.23852539 C13.5565918 24.24110352 14.82631836 24.24368164 16.13452148 24.24633789 C19.09537224 24.46788123 19.09537224 24.46788123 20.22436523 23.11352539 C20.32411556 20.60216435 20.36318706 18.12449124 20.34936523 15.61352539 C20.35323242 14.91098633 20.35709961 14.20844727 20.36108398 13.48461914 C20.66827454 10.00923731 20.66827454 10.00923731 19.22436523 7.11352539 C16.52567474 7.04027103 13.85933967 7.02130188 11.16186523 7.05102539 C7.23280273 7.08196289 7.23280273 7.08196289 3.22436523 7.11352539 Z M3.22436523 54.11352539 C3.22436523 59.72352539 3.22436523 65.33352539 3.22436523 71.11352539 C8.83436523 71.11352539 14.44436523 71.11352539 20.22436523 71.11352539 C20.22436523 65.50352539 20.22436523 59.89352539 20.22436523 54.11352539 C14.61436523 54.11352539 9.00436523 54.11352539 3.22436523 54.11352539 Z " fill="#2E6741" transform="translate(61.775634765625,32.886474609375)"/>
<path d="M0 0 C2.413125 -0.04125 4.82625 -0.0825 7.3125 -0.125 C8.06829346 -0.14320801 8.82408691 -0.16141602 9.6027832 -0.18017578 C13.31447871 -0.21099473 14.83533664 -0.10977558 18 2 C18 1.34 18 0.68 18 0 C20.45898655 -0.08076963 22.91533742 -0.14037143 25.375 -0.1875 C26.07367187 -0.21263672 26.77234375 -0.23777344 27.4921875 -0.26367188 C29.5234375 -0.29296875 29.5234375 -0.29296875 33 0 C33.66 0.99 34.32 1.98 35 3 C35.66 2.01 36.32 1.02 37 0 C40.1875 -0.3984375 40.1875 -0.3984375 44 -0.375 C45.8871875 -0.38660156 45.8871875 -0.38660156 47.8125 -0.3984375 C48.864375 -0.26695313 49.91625 -0.13546875 51 0 C51.66 0.99 52.32 1.98 53 3 C53.66 2.01 54.32 1.02 55 0 C56.97119141 -0.34057617 56.97119141 -0.34057617 59.3515625 -0.29296875 C60.62773438 -0.2784668 60.62773438 -0.2784668 61.9296875 -0.26367188 C62.81914063 -0.23853516 63.70859375 -0.21339844 64.625 -0.1875 C65.97078125 -0.16719727 65.97078125 -0.16719727 67.34375 -0.14648438 C69.56309789 -0.11106925 71.78125188 -0.06168461 74 0 C74.16777183 1.79156352 74.33418294 3.5832545 74.5 5.375 C74.5928125 6.37273438 74.685625 7.37046875 74.78125 8.3984375 C75 11 75 11 75 13 C77.97 13 80.94 13 84 13 C83.98839844 12.14535156 83.97679688 11.29070313 83.96484375 10.41015625 C83.95582031 9.30542969 83.94679688 8.20070313 83.9375 7.0625 C83.92589844 5.96035156 83.91429688 4.85820312 83.90234375 3.72265625 C84 1 84 1 85 0 C87.33160055 -0.09909302 89.66629942 -0.12970504 92 -0.125 C93.27875 -0.12757812 94.5575 -0.13015625 95.875 -0.1328125 C99 0 99 0 100 1 C100.07319621 3.69654854 100.09242537 6.36691458 100.0625 9.0625 C100.05798828 9.82111328 100.05347656 10.57972656 100.04882812 11.36132812 C100.0370068 13.24091871 100.01907078 15.12046899 100 17 C99.01 17 98.02 17 97 17 C96.505 14.525 96.505 14.525 96 12 C93.36 11.67 90.72 11.34 88 11 C87.67 12.98 87.34 14.96 87 17 C84.54126232 16.85941524 82.08314825 16.71277001 79.625 16.5625 C78.92632812 16.52318359 78.22765625 16.48386719 77.5078125 16.44335938 C72.2265625 16.11328125 72.2265625 16.11328125 70 15 C70 15.66 70 16.32 70 17 C67.91731407 17.08126087 65.83371342 17.13930839 63.75 17.1875 C62.00976562 17.23970703 62.00976562 17.23970703 60.234375 17.29296875 C56.77731593 16.97982934 55.48434437 16.34290892 53 14 C52.01 14.99 51.02 15.98 50 17 C48.18884044 15.18884044 48.61800552 12.38721773 48.4375 9.9375 C48.35371094 8.83277344 48.26992188 7.72804688 48.18359375 6.58984375 C48.12300781 5.73519531 48.06242187 4.88054688 48 4 C45.36 4 42.72 4 40 4 C39.95101562 4.85464844 39.90203125 5.70929687 39.8515625 6.58984375 C39.77679688 7.69457031 39.70203125 8.79929687 39.625 9.9375 C39.55539063 11.03964844 39.48578125 12.14179688 39.4140625 13.27734375 C39.27742188 14.17582031 39.14078125 15.07429687 39 16 C35.79937313 17.60031344 33.27728194 16.03173691 30 15 C30 13.68 30 12.36 30 11 C27.36 11 24.72 11 22 11 C21.67 12.65 21.34 14.3 21 16 C20.195625 15.814375 19.39125 15.62875 18.5625 15.4375 C17.2940625 15.2209375 17.2940625 15.2209375 16 15 C15.67 15.33 15.34 15.66 15 16 C12.4672235 16.07320163 9.96896082 16.09227569 7.4375 16.0625 C4.983125 16.041875 2.52875 16.02125 0 16 C0 10.72 0 5.44 0 0 Z M9 3 C8.67 3.99 8.34 4.98 8 6 C9.32 5.67 10.64 5.34 12 5 C12 4.34 12 3.68 12 3 C11.01 3 10.02 3 9 3 Z M22 3 C22 3.99 22 4.98 22 6 C24.64 6 27.28 6 30 6 C29.67 5.01 29.34 4.02 29 3 C26.69 3 24.38 3 22 3 Z M57 4 C56.92820036 5.51928038 56.91607993 7.04167482 56.9375 8.5625 C56.958125 10.026875 56.97875 11.49125 57 13 C59.97 13 62.94 13 66 13 C66 12.01 66 11.02 66 10 C64.02 10 62.04 10 60 10 C60 9.01 60 8.02 60 7 C63.3 7 66.6 7 70 7 C70 5.68 70 4.36 70 3 C68.02090602 2.97313447 66.04171029 2.95366625 64.0625 2.9375 C62.40927734 2.92009766 62.40927734 2.92009766 60.72265625 2.90234375 C58.08552366 2.68737429 58.08552366 2.68737429 57 4 Z M89 3 C88.67 3.99 88.34 4.98 88 6 C90.64 6 93.28 6 96 6 C96 5.34 96 4.68 96 4 C93.69 3.67 91.38 3.34 89 3 Z M34 6 C34 8.64 34 11.28 34 14 C34.33 14 34.66 14 35 14 C35 11.36 35 8.72 35 6 C34.67 6 34.34 6 34 6 Z M3 10 C3 10.99 3 11.98 3 13 C5.64 13 8.28 13 11 13 C11.33 12.01 11.66 11.02 12 10 C9.03 10 6.06 10 3 10 Z " fill="#BA3038" transform="translate(0,0)"/>
<path d="M0 0 C1.63001953 0.01353516 1.63001953 0.01353516 3.29296875 0.02734375 C4.12441406 0.03894531 4.95585937 0.05054687 5.8125 0.0625 C7.26230622 3.37298869 8.09114729 6.21300608 8.375 9.8125 C8.41286469 12.7349823 8.41286469 12.7349823 9.8125 15.0625 C9.88429964 16.58178038 9.89642007 18.10417482 9.875 19.625 C9.86597656 20.45128906 9.85695313 21.27757813 9.84765625 22.12890625 C9.83605469 22.76699219 9.82445313 23.40507813 9.8125 24.0625 C11.4625 24.0625 13.1125 24.0625 14.8125 24.0625 C14.4825 21.7525 14.1525 19.4425 13.8125 17.0625 C17.2775 16.5675 17.2775 16.5675 20.8125 16.0625 C21.9375 22.8125 21.9375 22.8125 20.8125 25.0625 C19.1625 25.0625 17.5125 25.0625 15.8125 25.0625 C15.833125 25.866875 15.85375 26.67125 15.875 27.5 C15.8125 30.0625 15.8125 30.0625 14.8125 31.0625 C13.14632885 31.10313832 11.47861905 31.105221 9.8125 31.0625 C9.8125 32.7125 9.8125 34.3625 9.8125 36.0625 C14.7625 35.5675 14.7625 35.5675 19.8125 35.0625 C20.1425 33.4125 20.4725 31.7625 20.8125 30.0625 C22.7925 30.0625 24.7725 30.0625 26.8125 30.0625 C27.3075 33.0325 27.3075 33.0325 27.8125 36.0625 C29.4625 36.0625 31.1125 36.0625 32.8125 36.0625 C32.8125 38.0425 32.8125 40.0225 32.8125 42.0625 C22.9125 42.0625 13.0125 42.0625 2.8125 42.0625 C2.4825 40.4125 2.1525 38.7625 1.8125 37.0625 C0.4925 37.0625 -0.8275 37.0625 -2.1875 37.0625 C-2.1875 38.7125 -2.1875 40.3625 -2.1875 42.0625 C-4.4975 42.0625 -6.8075 42.0625 -9.1875 42.0625 C-9.1875 40.0825 -9.1875 38.1025 -9.1875 36.0625 C-7.2075 36.0625 -5.2275 36.0625 -3.1875 36.0625 C-3.1875 34.4125 -3.1875 32.7625 -3.1875 31.0625 C-3.991875 31.083125 -4.79625 31.10375 -5.625 31.125 C-8.1875 31.0625 -8.1875 31.0625 -9.1875 30.0625 C-9.28601171 28.23134117 -9.31722629 26.39630067 -9.3125 24.5625 C-9.31507812 23.5621875 -9.31765625 22.561875 -9.3203125 21.53125 C-9.1875 19.0625 -9.1875 19.0625 -8.1875 18.0625 C-6.52132885 18.02186168 -4.85361905 18.019779 -3.1875 18.0625 C-3.208125 17.258125 -3.22875 16.45375 -3.25 15.625 C-3.1875 13.0625 -3.1875 13.0625 -2.1875 12.0625 C-0.52132885 12.02186168 1.14638095 12.019779 2.8125 12.0625 C2.4825 10.7425 2.1525 9.4225 1.8125 8.0625 C0.74708984 7.97162109 0.74708984 7.97162109 -0.33984375 7.87890625 C-1.25894531 7.79511719 -2.17804687 7.71132812 -3.125 7.625 C-4.49978516 7.50318359 -4.49978516 7.50318359 -5.90234375 7.37890625 C-8.1875 7.0625 -8.1875 7.0625 -9.1875 6.0625 C-9.22813832 4.39632885 -9.230221 2.72861905 -9.1875 1.0625 C-5.90230525 -0.03256492 -3.45086585 -0.03710608 0 0 Z M-2.1875 19.0625 C-2.1875 22.6925 -2.1875 26.3225 -2.1875 30.0625 C-0.5375 30.0625 1.1125 30.0625 2.8125 30.0625 C2.8125 26.4325 2.8125 22.8025 2.8125 19.0625 C1.1625 19.0625 -0.4875 19.0625 -2.1875 19.0625 Z " fill="#2B673F" transform="translate(20.1875,67.9375)"/>
<path d="M0 0 C1.20970459 0.00523682 2.41940918 0.01047363 3.66577148 0.01586914 C4.97094727 0.0190918 6.27612305 0.02231445 7.62084961 0.02563477 C9.00952213 0.03399138 10.39819401 0.04245634 11.78686523 0.05102539 C13.17944179 0.05603873 14.57202005 0.06060193 15.96459961 0.06469727 C19.38456394 0.07653105 22.80444367 0.09301659 26.22436523 0.11352539 C26.22436523 2.09352539 26.22436523 4.07352539 26.22436523 6.11352539 C28.20436523 6.11352539 30.18436523 6.11352539 32.22436523 6.11352539 C32.22436523 4.13352539 32.22436523 2.15352539 32.22436523 0.11352539 C34.20436523 0.11352539 36.18436523 0.11352539 38.22436523 0.11352539 C38.22436523 2.42352539 38.22436523 4.73352539 38.22436523 7.11352539 C36.24436523 7.11352539 34.26436523 7.11352539 32.22436523 7.11352539 C32.22436523 8.76352539 32.22436523 10.41352539 32.22436523 12.11352539 C34.20436523 12.11352539 36.18436523 12.11352539 38.22436523 12.11352539 C38.22436523 16.07352539 38.22436523 20.03352539 38.22436523 24.11352539 C36.24436523 24.11352539 34.26436523 24.11352539 32.22436523 24.11352539 C32.22436523 20.48352539 32.22436523 16.85352539 32.22436523 13.11352539 C30.57436523 13.44352539 28.92436523 13.77352539 27.22436523 14.11352539 C26.89436523 18.07352539 26.56436523 22.03352539 26.22436523 26.11352539 C23.78295898 26.24373372 21.34155273 26.37394206 18.90014648 26.50415039 C16.05968973 26.93088928 16.05968973 26.93088928 13.84545898 29.16821289 C10.32559144 31.7805736 8.273874 31.41128044 3.97436523 30.98852539 C2.73170898 30.88282227 1.48905273 30.77711914 0.20874023 30.66821289 C-0.77610352 30.48516602 -1.76094727 30.30211914 -2.77563477 30.11352539 C-4.15240956 27.35997579 -3.90533165 25.1251213 -3.90844727 22.04711914 C-3.90973633 20.83991211 -3.91102539 19.63270508 -3.91235352 18.38891602 C-3.90655273 16.48916016 -3.90655273 16.48916016 -3.90063477 14.55102539 C-3.90450195 13.2806543 -3.90836914 12.0102832 -3.91235352 10.70141602 C-3.91106445 9.49549805 -3.90977539 8.28958008 -3.90844727 7.04711914 C-3.90731934 5.93393311 -3.90619141 4.82074707 -3.9050293 3.67382812 C-3.72439068 0.09956927 -3.59995615 0.14724071 0 0 Z M3.22436523 7.11352539 C3.20374023 9.73290039 3.18311523 12.35227539 3.16186523 15.05102539 C3.15276123 15.87723389 3.14365723 16.70344238 3.13427734 17.5546875 C3.12712579 19.40786298 3.17408003 21.26101847 3.22436523 23.11352539 C4.41289379 24.53127378 4.41289379 24.53127378 7.82202148 24.21118164 C9.31033779 24.20543811 10.7986282 24.1924243 12.28686523 24.17602539 C16.21592773 24.14508789 16.21592773 24.14508789 20.22436523 24.11352539 C20.22436523 18.50352539 20.22436523 12.89352539 20.22436523 7.11352539 C14.61436523 7.11352539 9.00436523 7.11352539 3.22436523 7.11352539 Z " fill="#266B3E" transform="translate(14.775634765625,32.886474609375)"/>
<path d="M0 0 C2.25 -0.375 2.25 -0.375 5 0 C8.26417577 3.80820506 9.52723379 7.03595477 10 12 C11.32 12.33 12.64 12.66 14 13 C14 14.32 14 15.64 14 17 C12.35 17.33 10.7 17.66 9 18 C9 19.98 9 21.96 9 24 C13.29 24 17.58 24 22 24 C22 22.02 22 20.04 22 18 C23.32 18 24.64 18 26 18 C26.33 19.98 26.66 21.96 27 24 C27.99 24.33 28.98 24.66 30 25 C29.67 25.99 29.34 26.98 29 28 C20.75 28 12.5 28 4 28 C4 26.02 4 24.04 4 22 C2.35 21.67 0.7 21.34 -1 21 C-0.67 20.34 -0.34 19.68 0 19 C1.32 18.67 2.64 18.34 4 18 C4 13.71 4 9.42 4 5 C2.68 4.67 1.36 4.34 0 4 C0 2.68 0 1.36 0 0 Z " fill="#177435" transform="translate(20,81)"/>
<path d="M0 0 C1.22976562 -0.00773437 1.22976562 -0.00773437 2.484375 -0.015625 C5.89657476 0.3121004 8.98286334 1.23606104 12.25 2.25 C12.28738281 3.34699219 12.32476562 4.44398437 12.36328125 5.57421875 C12.42896653 7.02867857 12.49541299 8.48310416 12.5625 9.9375 C12.58505859 10.65873047 12.60761719 11.37996094 12.63085938 12.12304688 C12.85678337 16.62098822 13.49937312 19.51121225 16.25 23.25 C13.28859731 23.42420016 11.25655318 23.25233002 8.4375 22.25 C5.60710625 21.36203333 4.05540042 21.16374736 1.1875 21.25 C-2.48657392 21.25 -4.51781716 20.86609142 -7.75 19.25 C-8.63713698 13.35395114 -8.98499448 8.11622376 -7.75 2.25 C-4.55749824 0.12166549 -3.6743911 -0.0228223 0 0 Z M-2.75 4.25 C-4.02870382 5.30600378 -4.02870382 5.30600378 -3.8828125 7.71875 C-3.88023438 8.7190625 -3.87765625 9.719375 -3.875 10.75 C-3.87757812 11.7503125 -3.88015625 12.750625 -3.8828125 13.78125 C-4.02870382 16.19399622 -4.02870382 16.19399622 -2.75 17.25 C0.9191577 17.39310287 4.57715441 17.29221662 8.25 17.25 C8.25 13.29 8.25 9.33 8.25 5.25 C4.51513121 4.6754048 1.03706732 4.25 -2.75 4.25 Z " fill="#A03237" transform="translate(37.75,60.75)"/>
<path d="M0 0 C0.9583374 0.04713135 1.9166748 0.0942627 2.90405273 0.14282227 C4.30119507 0.20747681 4.30119507 0.20747681 5.7265625 0.2734375 C7.51404907 0.36540405 7.51404907 0.36540405 9.33764648 0.45922852 C13.11202148 0.64485352 16.88639648 0.83047852 20.77514648 1.02172852 C20.77514648 8.94172852 20.77514648 16.86172852 20.77514648 25.02172852 C18.79514648 25.02172852 16.81514648 25.02172852 14.77514648 25.02172852 C14.44514648 19.41172852 14.11514648 13.80172852 13.77514648 8.02172852 C8.16514648 7.69172852 2.55514648 7.36172852 -3.22485352 7.02172852 C-3.22485352 0.03149478 -3.22485352 0.03149478 0 0 Z " fill="#2B6F41" transform="translate(79.224853515625,20.978271484375)"/>
<path d="M0 0 C1.98 0 3.96 0 6 0 C6 7.92 6 15.84 6 24 C-1.92 24 -9.84 24 -18 24 C-17.67 22.02 -17.34 20.04 -17 18 C-11.72 17.67 -6.44 17.34 -1 17 C-0.67 11.39 -0.34 5.78 0 0 Z " fill="#187636" transform="translate(94,98)"/>
<path d="M0 0 C1.98 0 3.96 0 6 0 C6.33 5.61 6.66 11.22 7 17 C12.28 17.33 17.56 17.66 23 18 C23 19.98 23 21.96 23 24 C15.41 24 7.82 24 0 24 C0 16.08 0 8.16 0 0 Z " fill="#167635" transform="translate(0,98)"/>
<path d="M0 0 C7.59 0 15.18 0 23 0 C23.33 1.65 23.66 3.3 24 5 C23 6 23 6 19.18359375 6.09765625 C17.60152953 6.09191138 16.01948969 6.07889593 14.4375 6.0625 C11.653125 6.041875 8.86875 6.02125 6 6 C6 11.61 6 17.22 6 23 C4.02 23 2.04 23 0 23 C0 15.41 0 7.82 0 0 Z " fill="#187434" transform="translate(0,22)"/>
<path d="M0 0 C1.24394531 -0.01417969 2.48789062 -0.02835938 3.76953125 -0.04296875 C6.91931533 0.16941669 8.66546131 0.33759387 11.1875 2.1875 C12.68477353 8.05182134 12.28544721 14.1691878 12.1875 20.1875 C10.8675 20.1875 9.5475 20.1875 8.1875 20.1875 C8.06375 19.218125 7.94 18.24875 7.8125 17.25 C7.60625 16.239375 7.4 15.22875 7.1875 14.1875 C4.89120006 13.03935003 3.11051914 12.87980191 0.5625 12.625 C-0.25476562 12.54121094 -1.07203125 12.45742187 -1.9140625 12.37109375 C-2.54054688 12.31050781 -3.16703125 12.24992187 -3.8125 12.1875 C-4.1425 14.8275 -4.4725 17.4675 -4.8125 20.1875 C-5.8025 19.5275 -6.7925 18.8675 -7.8125 18.1875 C-8.06067926 15.25366664 -8.13893881 12.55117315 -8.0625 9.625 C-8.05734375 8.83158203 -8.0521875 8.03816406 -8.046875 7.22070312 C-7.94506709 -0.23036307 -7.26548905 0.0374124 0 0 Z M-3.8125 4.1875 C-4.1425 5.1775 -4.4725 6.1675 -4.8125 7.1875 C-4.4825 7.8475 -4.1525 8.5075 -3.8125 9.1875 C-2.18831255 9.26840971 -0.56298255 9.32664995 1.0625 9.375 C1.96742187 9.40980469 2.87234375 9.44460937 3.8046875 9.48046875 C4.59101562 9.38378906 5.37734375 9.28710938 6.1875 9.1875 C6.8475 8.1975 7.5075 7.2075 8.1875 6.1875 C4.0669254 4.18964565 0.73555635 4.00914485 -3.8125 4.1875 Z " fill="#B81A22" transform="translate(59.8125,60.8125)"/>
<path d="M0 0 C4.95 0 9.9 0 15 0 C14.01 0.495 14.01 0.495 13 1 C13.165 1.7425 13.33 2.485 13.5 3.25 C14 6 14 6 14 10 C11.47946405 11.26026798 10.1457902 10.91874445 7.375 10.5625 C6.55773437 10.46066406 5.74046875 10.35882813 4.8984375 10.25390625 C4.27195312 10.17011719 3.64546875 10.08632812 3 10 C3 10.99 3 11.98 3 13 C7.455 12.505 7.455 12.505 12 12 C12 12.66 12 13.32 12 14 C13.98 13.67 15.96 13.34 18 13 C18 12.01 18 11.02 18 10 C20.64458379 8.67770811 22.67761301 8.90322806 25.625 8.9375 C27.12933594 8.95103516 27.12933594 8.95103516 28.6640625 8.96484375 C29.43492188 8.97644531 30.20578125 8.98804688 31 9 C31.4640625 10.175625 31.4640625 10.175625 31.9375 11.375 C32.92875038 13.92330128 32.92875038 13.92330128 34 16 C32.68 15.67 31.36 15.34 30 15 C30 13.68 30 12.36 30 11 C27.36 11 24.72 11 22 11 C21.67 12.65 21.34 14.3 21 16 C20.195625 15.814375 19.39125 15.62875 18.5625 15.4375 C17.2940625 15.2209375 17.2940625 15.2209375 16 15 C15.67 15.33 15.34 15.66 15 16 C12.4672235 16.07320163 9.96896082 16.09227569 7.4375 16.0625 C4.983125 16.041875 2.52875 16.02125 0 16 C0 10.72 0 5.44 0 0 Z M9 3 C8.67 3.99 8.34 4.98 8 6 C9.32 5.67 10.64 5.34 12 5 C12 4.34 12 3.68 12 3 C11.01 3 10.02 3 9 3 Z " fill="#AB2C33" transform="translate(0,0)"/>
<path d="M0 0 C1.98 0 3.96 0 6 0 C6 8.91 6 17.82 6 27 C0.9571875 27.061875 0.9571875 27.061875 -4.1875 27.125 C-5.76374146 27.15231201 -5.76374146 27.15231201 -7.37182617 27.18017578 C-8.21205322 27.1851709 -9.05228027 27.19016602 -9.91796875 27.1953125 C-10.77156982 27.20578613 -11.6251709 27.21625977 -12.50463867 27.22705078 C-15.30726815 26.97204194 -17.44729419 26.15541422 -20 25 C-20 24.01 -20 23.02 -20 22 C-12.74 22.33 -5.48 22.66 2 23 C2 16.73 2 10.46 2 4 C1.34 3.67 0.68 3.34 0 3 C0 2.01 0 1.02 0 0 Z " fill="#187337" transform="translate(81,82)"/>
<path d="M0 0 C1.0209375 -0.00128906 2.041875 -0.00257812 3.09375 -0.00390625 C4.16882813 -0.00003906 5.24390625 0.00382812 6.3515625 0.0078125 C7.95257813 0.00201172 7.95257813 0.00201172 9.5859375 -0.00390625 C11.12121094 -0.00197266 11.12121094 -0.00197266 12.6875 0 C13.62899902 0.00112793 14.57049805 0.00225586 15.54052734 0.00341797 C17.9765625 0.1328125 17.9765625 0.1328125 20.9765625 1.1328125 C20.9765625 5.7528125 20.9765625 10.3728125 20.9765625 15.1328125 C19.9865625 15.1328125 18.9965625 15.1328125 17.9765625 15.1328125 C17.9971875 14.0603125 18.0178125 12.9878125 18.0390625 11.8828125 C18.11671684 8.05214692 18.11671684 8.05214692 16.9765625 4.1328125 C12.0265625 4.1328125 7.0765625 4.1328125 1.9765625 4.1328125 C1.6465625 4.7928125 1.3165625 5.4528125 0.9765625 6.1328125 C-0.0134375 5.8028125 -1.0034375 5.4728125 -2.0234375 5.1328125 C-2.01183594 5.95265625 -2.00023438 6.7725 -1.98828125 7.6171875 C-1.97925781 8.69484375 -1.97023438 9.7725 -1.9609375 10.8828125 C-1.94933594 11.95015625 -1.93773438 13.0175 -1.92578125 14.1171875 C-2.00833663 16.66649751 -2.27726192 18.71214841 -3.0234375 21.1328125 C-4.0134375 21.1328125 -5.0034375 21.1328125 -6.0234375 21.1328125 C-6.05231896 17.82033063 -6.07019549 14.50788083 -6.0859375 11.1953125 C-6.09431641 10.24978516 -6.10269531 9.30425781 -6.11132812 8.33007812 C-6.11455078 7.43095703 -6.11777344 6.53183594 -6.12109375 5.60546875 C-6.12633057 4.77281494 -6.13156738 3.94016113 -6.13696289 3.08227539 C-5.90714817 -0.86411295 -3.36103279 0.00403624 0 0 Z " fill="#187435" transform="translate(66.0234375,34.8671875)"/>
<path d="M0 0 C4.95 0 9.9 0 15 0 C14.67 0.66 14.34 1.32 14 2 C11.71484375 2.6328125 11.71484375 2.6328125 8.9375 3.125 C8.01839844 3.29257812 7.09929688 3.46015625 6.15234375 3.6328125 C5.08693359 3.81457031 5.08693359 3.81457031 4 4 C4 4.66 4 5.32 4 6 C6.97 6.33 9.94 6.66 13 7 C13 6.34 13 5.68 13 5 C13.66 5 14.32 5 15 5 C16.4783226 7.95664519 16.06032783 10.74229737 16 14 C15.01 14.495 15.01 14.495 14 15 C13.67 13.35 13.34 11.7 13 10 C8.71 10 4.42 10 0 10 C0 10.99 0 11.98 0 13 C-1.98 13.33 -3.96 13.66 -6 14 C-5.835 13.4225 -5.67 12.845 -5.5 12.25 C-4.85537969 9.73335631 -4.85537969 9.73335631 -5 6 C-5 4.33333333 -5 2.66666667 -5 1 C-3.35 1.33 -1.7 1.66 0 2 C0 1.34 0 0.68 0 0 Z " fill="#B9141A" transform="translate(18,0)"/>
<path d="M0 0 C0.33 -0.66 0.66 -1.32 1 -2 C3.31243792 -2.02685412 5.6249627 -2.04632841 7.9375 -2.0625 C9.22527344 -2.07410156 10.51304688 -2.08570313 11.83984375 -2.09765625 C15 -2 15 -2 16 -1 C16.23527773 1.34987262 16.41386417 3.70556039 16.5625 6.0625 C16.68818359 7.99802734 16.68818359 7.99802734 16.81640625 9.97265625 C16.87699219 10.97167969 16.93757813 11.97070312 17 13 C16.01 13 15.02 13 14 13 C13.67 9.04 13.34 5.08 13 1 C10.36 1 7.72 1 5 1 C4.95101562 1.85464844 4.90203125 2.70929687 4.8515625 3.58984375 C4.77679688 4.69457031 4.70203125 5.79929687 4.625 6.9375 C4.55539063 8.03964844 4.48578125 9.14179688 4.4140625 10.27734375 C4.27742188 11.17582031 4.14078125 12.07429687 4 13 C3.01 13.495 3.01 13.495 2 14 C0.5 12.9375 0.5 12.9375 -1 11 C-1.125 7.4375 -1.125 7.4375 -1 4 C-1.33 3.34 -1.66 2.68 -2 2 C-2.66 2 -3.32 2 -4 2 C-4 2.66 -4 3.32 -4 4 C-7.63 4 -11.26 4 -15 4 C-15 3.67 -15 3.34 -15 3 C-11.7 3 -8.4 3 -5 3 C-5.33 2.34 -5.66 1.68 -6 1 C-8.52733235 0.34444881 -8.52733235 0.34444881 -11 0 C-11 -0.33 -11 -0.66 -11 -1 C-6.58937864 -2.0257259 -4.07369424 -2.03684712 0 0 Z " fill="#B1242E" transform="translate(35,3)"/>
<path d="M0 0 C1.20970459 0.00523682 2.41940918 0.01047363 3.66577148 0.01586914 C4.97094727 0.0190918 6.27612305 0.02231445 7.62084961 0.02563477 C9.00952213 0.03399138 10.39819401 0.04245634 11.78686523 0.05102539 C13.17944179 0.05603873 14.57202005 0.06060193 15.96459961 0.06469727 C19.38456394 0.07653105 22.80444367 0.09301659 26.22436523 0.11352539 C25.89436523 0.77352539 25.56436523 1.43352539 25.22436523 2.11352539 C16.31436523 1.78352539 7.40436523 1.45352539 -1.77563477 1.11352539 C-1.44563477 3.09352539 -1.11563477 5.07352539 -0.77563477 7.11352539 C-0.68827334 8.96610147 -0.64535844 10.82139812 -0.65063477 12.67602539 C-0.64676758 14.03920898 -0.64676758 14.03920898 -0.64282227 15.42993164 C-0.7742219 18.08497718 -1.18587445 20.52513291 -1.77563477 23.11352539 C-0.78563477 23.11352539 0.20436523 23.11352539 1.22436523 23.11352539 C1.55436523 17.83352539 1.88436523 12.55352539 2.22436523 7.11352539 C2.55436523 7.11352539 2.88436523 7.11352539 3.22436523 7.11352539 C3.22436523 12.39352539 3.22436523 17.67352539 3.22436523 23.11352539 C5.86436523 23.44352539 8.50436523 23.77352539 11.22436523 24.11352539 C11.55436523 26.09352539 11.88436523 28.07352539 12.22436523 30.11352539 C11.23436523 29.78352539 10.24436523 29.45352539 9.22436523 29.11352539 C9.22436523 28.45352539 9.22436523 27.79352539 9.22436523 27.11352539 C8.3697168 27.05293945 7.51506836 26.99235352 6.63452148 26.92993164 C5.52979492 26.84614258 4.42506836 26.76235352 3.28686523 26.67602539 C2.1847168 26.59481445 1.08256836 26.51360352 -0.05297852 26.42993164 C-2.77563477 26.11352539 -2.77563477 26.11352539 -3.77563477 25.11352539 C-3.87509929 23.34493346 -3.90643694 21.57241088 -3.90844727 19.80102539 C-3.90973633 18.72594727 -3.91102539 17.65086914 -3.91235352 16.54321289 C-3.90655273 14.84551758 -3.90655273 14.84551758 -3.90063477 13.11352539 C-3.90450195 11.98172852 -3.90836914 10.84993164 -3.91235352 9.68383789 C-3.91106445 8.60875977 -3.90977539 7.53368164 -3.90844727 6.42602539 C-3.90731934 5.4321582 -3.90619141 4.43829102 -3.9050293 3.41430664 C-3.71468868 0.02983497 -3.42781091 0.14019985 0 0 Z " fill="#306143" transform="translate(61.775634765625,32.886474609375)"/>
<path d="M0 0 C2.64 0 5.28 0 8 0 C7 3 7 3 3 5 C3 10.94 3 16.88 3 23 C6.3 23 9.6 23 13 23 C12.67 24.32 12.34 25.64 12 27 C7.38 27.33 2.76 27.66 -2 28 C-1.85972182 23.70808453 -1.71304153 19.41655698 -1.5625 15.125 C-1.52318359 13.90167969 -1.48386719 12.67835937 -1.44335938 11.41796875 C-1.40146484 10.25136719 -1.35957031 9.08476563 -1.31640625 7.8828125 C-1.27974854 6.80402832 -1.24309082 5.72524414 -1.20532227 4.61376953 C-1 2 -1 2 0 0 Z " fill="#197334" transform="translate(14,35)"/>
<path d="M0 0 C10.83984375 -0.09765625 10.83984375 -0.09765625 14 0 C15 1 15 1 15.09765625 4.59765625 C15.0909822 6.08596867 15.07902183 7.57426432 15.0625 9.0625 C15.05798828 9.82111328 15.05347656 10.57972656 15.04882812 11.36132812 C15.0370068 13.24091871 15.01907078 15.12046899 15 17 C14.01 17 13.02 17 12 17 C11.67 14.36 11.34 11.72 11 9 C9.54052295 9.06006078 8.08220728 9.1488689 6.625 9.25 C5.81289062 9.29640625 5.00078125 9.3428125 4.1640625 9.390625 C3.09285156 9.69226563 3.09285156 9.69226563 2 10 C1.34 11.32 0.68 12.64 0 14 C0 9.38 0 4.76 0 0 Z M4 3 C3.67 3.99 3.34 4.98 3 6 C5.64 6 8.28 6 11 6 C11 5.34 11 4.68 11 4 C8.69 3.67 6.38 3.34 4 3 Z " fill="#BD212C" transform="translate(85,0)"/>
<path d="M0 0 C4.95 0 9.9 0 15 0 C17.25 6.75 17.25 6.75 16 11 C16.99 11 17.98 11 19 11 C19 14.63 19 18.26 19 22 C17.1746875 22.2165625 17.1746875 22.2165625 15.3125 22.4375 C12.17329623 22.82780953 9.0924866 23.32351856 6 24 C5.34 22.35 4.68 20.7 4 19 C4.66 18.34 5.32 17.68 6 17 C8.31 17 10.62 17 13 17 C13 12.05 13 7.1 13 2 C8.71 1.67 4.42 1.34 0 1 C0 0.67 0 0.34 0 0 Z " fill="#22713E" transform="translate(68,39)"/>
<path d="M0 0 C7.59 0 15.18 0 23 0 C23.33 1.65 23.66 3.3 24 5 C23 6 23 6 19.18359375 6.09765625 C17.60152953 6.09191138 16.01948969 6.07889593 14.4375 6.0625 C11.653125 6.041875 8.86875 6.02125 6 6 C6 11.61 6 17.22 6 23 C4.02 23 2.04 23 0 23 C0 15.41 0 7.82 0 0 Z M1 1 C1 7.6 1 14.2 1 21 C1.99 20.67 2.98 20.34 4 20 C4.33 15.38 4.66 10.76 5 6 C7.26875 5.855625 9.5375 5.71125 11.875 5.5625 C16.60168373 5.41696259 16.60168373 5.41696259 21 4 C21 3.01 21 2.02 21 1 C14.4 1 7.8 1 1 1 Z " fill="#307245" transform="translate(0,22)"/>
<path d="M0 0 C1.47906892 -0.02689216 2.95827483 -0.04634621 4.4375 -0.0625 C5.26121094 -0.07410156 6.08492188 -0.08570312 6.93359375 -0.09765625 C9 0 9 0 10 1 C10.08631874 2.34267413 10.10706473 3.68974322 10.09765625 5.03515625 C10.09443359 5.84404297 10.09121094 6.65292969 10.08789062 7.48632812 C10.07951172 8.33646484 10.07113281 9.18660156 10.0625 10.0625 C10.05798828 10.91650391 10.05347656 11.77050781 10.04882812 12.65039062 C10.03700373 14.76695663 10.01906769 16.88348685 10 19 C8.68 19 7.36 19 6 19 C4.36790602 15.73581205 5.09533031 12.2178511 5.2578125 8.62890625 C5.23287161 5.97349616 5.23287161 5.97349616 3.6171875 4.21484375 C2.00355031 2.92692289 2.00355031 2.92692289 0 2 C0 1.34 0 0.68 0 0 Z " fill="#167536" transform="translate(90,23)"/>
<path d="M0 0 C1.65 0 3.3 0 5 0 C5.33 1.32 5.66 2.64 6 4 C7.15628906 3.96519531 7.15628906 3.96519531 8.3359375 3.9296875 C9.33882812 3.91164063 10.34171875 3.89359375 11.375 3.875 C12.37273437 3.85179688 13.37046875 3.82859375 14.3984375 3.8046875 C17 4 17 4 19 6 C18 7 18 7 15.27734375 7.09765625 C12.18489583 7.06510417 9.09244792 7.03255208 6 7 C6 12.61 6 18.22 6 24 C5.67 24 5.34 24 5 24 C4.67 18.72 4.34 13.44 4 8 C1.525 9.485 1.525 9.485 -1 11 C-0.34 9.35 0.32 7.7 1 6 C0.34 5.34 -0.32 4.68 -1 4 C-0.625 1.875 -0.625 1.875 0 0 Z " fill="#345C42" transform="translate(59,80)"/>
<path d="M0 0 C2.33294775 -0.04241723 4.66702567 -0.04092937 7 0 C9.18315736 2.18315736 8.35187905 7.83176795 8.4296875 10.921875 C8.62851756 15.42868961 9.31499761 18.35299141 12 22 C7.92086213 22.23994929 4.75907641 21.62323754 1 20 C0.67 19.01 0.34 18.02 0 17 C1.65 17 3.3 17 5 17 C4.67 12.71 4.34 8.42 4 4 C3.34 4 2.68 4 2 4 C2 3.34 2 2.68 2 2 C1.34 2 0.68 2 0 2 C0 1.34 0 0.68 0 0 Z " fill="#A7252C" transform="translate(42,62)"/>
<path d="M0 0 C1.98 0 3.96 0 6 0 C6 7.92 6 15.84 6 24 C5.67 24 5.34 24 5 24 C4.67 16.74 4.34 9.48 4 2 C3.34 2 2.68 2 2 2 C2 7.28 2 12.56 2 18 C-2.22253885 20.11126943 -4.14001523 20.2171997 -8.75 20.125 C-9.92046875 20.10695313 -11.0909375 20.08890625 -12.296875 20.0703125 C-13.18890625 20.04710938 -14.0809375 20.02390625 -15 20 C-15 21.32 -15 22.64 -15 24 C-15.99 24 -16.98 24 -18 24 C-17.67 22.02 -17.34 20.04 -17 18 C-11.72 17.67 -6.44 17.34 -1 17 C-0.67 11.39 -0.34 5.78 0 0 Z " fill="#317447" transform="translate(94,98)"/>
<path d="M0 0 C1.65 0 3.3 0 5 0 C5.33 5.61 5.66 11.22 6 17 C11.28 17.33 16.56 17.66 22 18 C22 19.98 22 21.96 22 24 C14.41 24 6.82 24 -1 24 C-1 23.67 -1 23.34 -1 23 C5.6 23 12.2 23 19 23 C18.67 22.34 18.34 21.68 18 21 C16.73542969 21.01740234 16.73542969 21.01740234 15.4453125 21.03515625 C14.34960938 21.04417969 13.25390625 21.05320312 12.125 21.0625 C11.03445313 21.07410156 9.94390625 21.08570312 8.8203125 21.09765625 C6 21 6 21 4 20 C2.71183165 15.8423788 3.07625785 11.98226781 3.4375 7.6875 C3.53933594 6.43324219 3.64117188 5.17898437 3.74609375 3.88671875 C3.87177734 2.45779297 3.87177734 2.45779297 4 1 C2.68 0.67 1.36 0.34 0 0 Z " fill="#2B7242" transform="translate(1,98)"/>
<path d="M0 0 C4.66666667 0 9.33333333 0 14 0 C16.29342747 5.89738492 17.34548714 10.66606918 17 17 C16.34 16.67 15.68 16.34 15 16 C14.64984951 14.33678518 14.31802943 12.66965451 14 11 C12.33045181 7.77595022 12.33045181 7.77595022 9.375 7.3125 C8.59125 7.209375 7.8075 7.10625 7 7 C7 8.32 7 9.64 7 11 C7.66 11.33 8.32 11.66 9 12 C7.68 12 6.36 12 5 12 C4.67 12.66 4.34 13.32 4 14 C2.35 13.67 0.7 13.34 -1 13 C-1 12.67 -1 12.34 -1 12 C0.65 12 2.3 12 4 12 C3.979375 11.195625 3.95875 10.39125 3.9375 9.5625 C4 7 4 7 5 6 C6.66617115 5.95936168 8.33388095 5.957279 10 6 C9.67 4.68 9.34 3.36 9 2 C6.03 1.67 3.06 1.34 0 1 C0 0.67 0 0.34 0 0 Z " fill="#326D47" transform="translate(13,74)"/>
<path d="M0 0 C1.98 1.65 3.96 3.3 6 5 C5.67 6.32 5.34 7.64 5 9 C3.68 9.33 2.36 9.66 1 10 C0.67 12.64 0.34 15.28 0 18 C-1.32 18.33 -2.64 18.66 -4 19 C-4 14.05 -4 9.1 -4 4 C-3.34 4.66 -2.68 5.32 -2 6 C-1.34 4.02 -0.68 2.04 0 0 Z " fill="#1A7035" transform="translate(40,37)"/>
<path d="M0 0 C2 2 2 2 2.1953125 5.6953125 C2.182009 7.17200108 2.15814835 8.64862358 2.125 10.125 C2.11597656 10.87910156 2.10695313 11.63320312 2.09765625 12.41015625 C2.0740687 14.27357254 2.03819719 16.13682593 2 18 C0.68 18 -0.64 18 -2 18 C-2.12375 17.030625 -2.2475 16.06125 -2.375 15.0625 C-2.58125 14.051875 -2.7875 13.04125 -3 12 C-5.29629994 10.85185003 -7.07698086 10.69230191 -9.625 10.4375 C-10.44226562 10.35371094 -11.25953125 10.26992187 -12.1015625 10.18359375 C-12.72804687 10.12300781 -13.35453125 10.06242187 -14 10 C-14.33 8.68 -14.66 7.36 -15 6 C-11.04 6 -7.08 6 -3 6 C-2.34 7.65 -1.68 9.3 -1 11 C-0.67 7.37 -0.34 3.74 0 0 Z " fill="#9B292F" transform="translate(70,63)"/>
<path d="M0 0 C0.33 0 0.66 0 1 0 C1 4.95 1 9.9 1 15 C1.99 14.67 2.98 14.34 4 14 C4.33 11.03 4.66 8.06 5 5 C5.33 5 5.66 5 6 5 C6 9.29 6 13.58 6 18 C3.55859375 18.13020833 1.1171875 18.26041667 -1.32421875 18.390625 C-4.16774601 18.81962806 -4.16774601 18.81962806 -6.40625 21.0625 C-9.82747411 23.61811319 -11.6409353 23.25564421 -15.8125 22.75 C-16.97394531 22.62109375 -18.13539062 22.4921875 -19.33203125 22.359375 C-20.21246094 22.24078125 -21.09289063 22.1221875 -22 22 C-22 21.67 -22 21.34 -22 21 C-20.64455078 20.92652344 -20.64455078 20.92652344 -19.26171875 20.8515625 C-18.08222656 20.77679688 -16.90273438 20.70203125 -15.6875 20.625 C-13.92986328 20.52058594 -13.92986328 20.52058594 -12.13671875 20.4140625 C-8.84300113 20.21386253 -8.84300113 20.21386253 -6 18 C-6.33 17.34 -6.66 16.68 -7 16 C-4.69 16 -2.38 16 0 16 C0 10.72 0 5.44 0 0 Z " fill="#3E6849" transform="translate(35,41)"/>
<path d="M0 0 C0.99 0.33 1.98 0.66 3 1 C2.34 1 1.68 1 1 1 C1.165 1.7425 1.33 2.485 1.5 3.25 C2 6 2 6 2 10 C-1.2830098 11.6415049 -4.42545033 10.51888624 -8 10 C-8.33 7.36 -8.66 4.72 -9 2 C-6.94921875 1.77213542 -4.8984375 1.54427083 -2.84765625 1.31640625 C-0.98859771 1.18113386 -0.98859771 1.18113386 0 0 Z M-3 3 C-3.33 3.99 -3.66 4.98 -4 6 C-2.68 5.67 -1.36 5.34 0 5 C0 4.34 0 3.68 0 3 C-0.99 3 -1.98 3 -3 3 Z " fill="#AC2926" transform="translate(12,0)"/>
<path d="M0 0 C0.33 0 0.66 0 1 0 C1.05383848 2.45862401 1.09359038 4.9160755 1.125 7.375 C1.14175781 8.07367188 1.15851563 8.77234375 1.17578125 9.4921875 C1.19344267 11.32897486 1.10303261 13.16601963 1 15 C0.34 15.66 -0.32 16.32 -1 17 C-1.226875 16.21625 -1.45375 15.4325 -1.6875 14.625 C-2.78125 11.78125 -2.78125 11.78125 -5.625 10.6875 C-6.40875 10.460625 -7.1925 10.23375 -8 10 C-8 9.34 -8 8.68 -8 8 C-7.01 7.67 -6.02 7.34 -5 7 C-4.67 6.34 -4.34 5.68 -4 5 C-3 3 -3 3 0 2 C0 1.34 0 0.68 0 0 Z " fill="#1A7237" transform="translate(63,86)"/>
<path d="M0 0 C1.20970459 0.00523682 2.41940918 0.01047363 3.66577148 0.01586914 C4.97094727 0.0190918 6.27612305 0.02231445 7.62084961 0.02563477 C9.00952213 0.03399138 10.39819401 0.04245634 11.78686523 0.05102539 C13.17944179 0.05603873 14.57202005 0.06060193 15.96459961 0.06469727 C19.38456394 0.07653105 22.80444367 0.09301659 26.22436523 0.11352539 C26.22436523 1.43352539 26.22436523 2.75352539 26.22436523 4.11352539 C25.56436523 4.11352539 24.90436523 4.11352539 24.22436523 4.11352539 C24.22436523 3.45352539 24.22436523 2.79352539 24.22436523 2.11352539 C15.64436523 2.11352539 7.06436523 2.11352539 -1.77563477 2.11352539 C-2.10563477 10.69352539 -2.43563477 19.27352539 -2.77563477 28.11352539 C-3.10563477 28.11352539 -3.43563477 28.11352539 -3.77563477 28.11352539 C-3.80449815 23.63437211 -3.82238664 19.15524248 -3.83813477 14.67602539 C-3.84651367 13.39663086 -3.85489258 12.11723633 -3.86352539 10.79907227 C-3.86674805 9.58413086 -3.8699707 8.36918945 -3.87329102 7.11743164 C-3.87852783 5.99151611 -3.88376465 4.86560059 -3.88916016 3.70556641 C-3.73152242 0.10634093 -3.61952742 0.14804119 0 0 Z " fill="#285C3A" transform="translate(14.775634765625,32.886474609375)"/>
<path d="M0 0 C0.33 0 0.66 0 1 0 C1.33 2.97 1.66 5.94 2 9 C2.33 8.67 2.66 8.34 3 8 C4.51928038 7.92820036 6.04167482 7.91607993 7.5625 7.9375 C8.38878906 7.94652344 9.21507813 7.95554687 10.06640625 7.96484375 C10.70449219 7.97644531 11.34257813 7.98804688 12 8 C12 8.66 12 9.32 12 10 C9.36 10 6.72 10 4 10 C3.67 11.98 3.34 13.96 3 16 C-1.95 15.67 -6.9 15.34 -12 15 C-10.68 14.67 -9.36 14.34 -8 14 C-8 13.34 -8 12.68 -8 12 C-5.36 12 -2.72 12 0 12 C0 8.04 0 4.08 0 0 Z " fill="#AA3539" transform="translate(84,1)"/>
<path d="M0 0 C1 1 1 1 1.09765625 3.06640625 C1.06510417 5.37760417 1.03255208 7.68880208 1 10 C-2.63 10 -6.26 10 -10 10 C-10 9.34 -10 8.68 -10 8 C-7.36 7.67 -4.72 7.34 -2 7 C-2 6.34 -2 5.68 -2 5 C-4.97 4.505 -4.97 4.505 -8 4 C-8 3.01 -8 2.02 -8 1 C-5.26752652 -0.36623674 -3.01801098 -0.128426 0 0 Z " fill="#AF1920" transform="translate(68,6)"/>
<path d="M0 0 C2.31243792 -0.02685412 4.6249627 -0.04632841 6.9375 -0.0625 C8.22527344 -0.07410156 9.51304688 -0.08570312 10.83984375 -0.09765625 C14 0 14 0 15 1 C15.23527773 3.34987262 15.41386417 5.70556039 15.5625 8.0625 C15.68818359 9.99802734 15.68818359 9.99802734 15.81640625 11.97265625 C15.87699219 12.97167969 15.93757813 13.97070312 16 15 C15.01 15 14.02 15 13 15 C12.67 11.04 12.34 7.08 12 3 C9.03 3 6.06 3 3 3 C3 2.34 3 1.68 3 1 C2.34 1 1.68 1 1 1 C0.67 1.99 0.34 2.98 0 4 C-0.33 3.34 -0.66 2.68 -1 2 C-0.67 1.34 -0.34 0.68 0 0 Z " fill="#9B2029" transform="translate(36,1)"/>
<path d="M0 0 C2.31 0.66 4.62 1.32 7 2 C7 3.32 7 4.64 7 6 C7.66 5.67 8.32 5.34 9 5 C8.67 6.32 8.34 7.64 8 9 C7.34 8.67 6.68 8.34 6 8 C6.33 8.99 6.66 9.98 7 11 C10.51190809 12.22969878 10.51190809 12.22969878 14 13 C14 13.33 14 13.66 14 14 C10.7 14 7.4 14 4 14 C3.87882812 13.24074219 3.75765625 12.48148438 3.6328125 11.69921875 C3.46523438 10.70535156 3.29765625 9.71148437 3.125 8.6875 C2.96257813 7.70136719 2.80015625 6.71523437 2.6328125 5.69921875 C2.11914546 2.79940173 2.11914546 2.79940173 0 0 Z " fill="#236B3B" transform="translate(55,96)"/>
<path d="M0 0 C0.99 0 1.98 0 3 0 C3.06058594 0.74765625 3.12117188 1.4953125 3.18359375 2.265625 C3.26738281 3.25046875 3.35117188 4.2353125 3.4375 5.25 C3.51871094 6.22453125 3.59992188 7.1990625 3.68359375 8.203125 C3.95074584 10.56461753 4.35371968 12.71901065 5 15 C3.35 15 1.7 15 0 15 C-0.77026643 10.28211812 -1.19130096 5.78252409 -1 1 C-0.67 0.67 -0.34 0.34 0 0 Z " fill="#B51E27" transform="translate(71,0)"/>
<path d="M0 0 C0.33 0 0.66 0 1 0 C1.02725341 1.7290774 1.04650987 3.45828176 1.0625 5.1875 C1.07410156 6.15042969 1.08570313 7.11335938 1.09765625 8.10546875 C1.00486622 10.85576513 0.62111685 13.32479591 0 16 C0.99 16 1.98 16 3 16 C3.33 10.72 3.66 5.44 4 0 C4.33 0 4.66 0 5 0 C5 5.28 5 10.56 5 16 C6.32 16.66 7.64 17.32 9 18 C7.52093108 18.02689216 6.04172517 18.04634621 4.5625 18.0625 C3.32693359 18.07990234 3.32693359 18.07990234 2.06640625 18.09765625 C0 18 0 18 -1 17 C-1.42564759 11.27879563 -0.82264831 5.65570712 0 0 Z " fill="#2A663C" transform="translate(60,40)"/>
<path d="M0 0 C1.23556641 0.01740234 1.23556641 0.01740234 2.49609375 0.03515625 C3.32238281 0.04417969 4.14867187 0.05320313 5 0.0625 C5.63808594 0.07410156 6.27617187 0.08570313 6.93359375 0.09765625 C6.60359375 1.41765625 6.27359375 2.73765625 5.93359375 4.09765625 C1.31359375 4.42765625 -3.30640625 4.75765625 -8.06640625 5.09765625 C-8.06640625 3.77765625 -8.06640625 2.45765625 -8.06640625 1.09765625 C-6.85984375 1.12859375 -6.85984375 1.12859375 -5.62890625 1.16015625 C-2.75043439 1.08994962 -2.70010568 0.12760424 0 0 Z " fill="#216F3B" transform="translate(20.06640625,57.90234375)"/>
<path d="M0 0 C0.66 0.99 1.32 1.98 2 3 C1.67 3.99 1.34 4.98 1 6 C-2.3 6 -5.6 6 -9 6 C-9.33 4.68 -9.66 3.36 -10 2 C-6.7 1.34 -3.4 0.68 0 0 Z " fill="#1D703B" transform="translate(87,68)"/>
<path d="M0 0 C0.04254356 1.99954746 0.04080783 4.00041636 0 6 C-1 7 -1 7 -4.0625 7.0625 C-5.031875 7.041875 -6.00125 7.02125 -7 7 C-7 4.69 -7 2.38 -7 0 C-2.25 -1.125 -2.25 -1.125 0 0 Z " fill="#346544" transform="translate(77,45)"/>
<path d="M0 0 C2.31 0 4.62 0 7 0 C7 1.98 7 3.96 7 6 C2.25 7.125 2.25 7.125 0 6 C0 4.02 0 2.04 0 0 Z " fill="#366648" transform="translate(70,92)"/>
<path d="M0 0 C2.5 0.125 2.5 0.125 3.5 1.125 C3.54080783 3.12458364 3.54254356 5.12545254 3.5 7.125 C1.50045254 7.16754356 -0.50041636 7.16580783 -2.5 7.125 C-3.5 6.125 -3.5 6.125 -3.625 3.625 C-3.45661291 0.25725827 -3.36774173 0.16838709 0 0 Z " fill="#2B6741" transform="translate(26.5,44.875)"/>
<path d="M0 0 C3.96 0 7.92 0 12 0 C11.67 0.66 11.34 1.32 11 2 C8.35139573 2.59355614 5.70802678 2.74209269 3 3 C2.34 6.63 1.68 10.26 1 14 C0.67 14 0.34 14 0 14 C0 9.38 0 4.76 0 0 Z " fill="#D00F17" transform="translate(0,0)"/>
<path d="M0 0 C0.33 1.32 0.66 2.64 1 4 C1.66 4.33 2.32 4.66 3 5 C2.34 6.65 1.68 8.3 1 10 C5.455 9.505 5.455 9.505 10 9 C10 9.66 10 10.32 10 11 C10.66 11.33 11.32 11.66 12 12 C7.38 12 2.76 12 -2 12 C-1.34 8.04 -0.68 4.08 0 0 Z " fill="#B5232B" transform="translate(2,3)"/>
<path d="M0 0 C3.63 0 7.26 0 11 0 C11 1.32 11 2.64 11 4 C9.54176788 4.0270043 8.08339325 4.04639787 6.625 4.0625 C5.81289063 4.07410156 5.00078125 4.08570312 4.1640625 4.09765625 C2 4 2 4 0 3 C0 2.01 0 1.02 0 0 Z " fill="#177338" transform="translate(13,70)"/>
<path d="M0 0 C0.99 0 1.98 0 3 0 C3 0.99 3 1.98 3 3 C6.3 3 9.6 3 13 3 C13 3.33 13 3.66 13 4 C10.03 4 7.06 4 4 4 C4 4.66 4 5.32 4 6 C7.63 6 11.26 6 15 6 C15 6.33 15 6.66 15 7 C13.06280622 7.05406122 11.12518079 7.09282025 9.1875 7.125 C8.10855469 7.14820313 7.02960937 7.17140625 5.91796875 7.1953125 C3 7 3 7 0 5 C-0.1875 2.375 -0.1875 2.375 0 0 Z " fill="#A32932" transform="translate(54,10)"/>
<path d="M0 0 C0.66 0 1.32 0 2 0 C3.4783226 2.95664519 3.06032783 5.74229737 3 9 C2.01 9.495 2.01 9.495 1 10 C0.67 8.35 0.34 6.7 0 5 C-2.97 4.67 -5.94 4.34 -9 4 C-9 3.34 -9 2.68 -9 2 C-6.03 2 -3.06 2 0 2 C0 1.34 0 0.68 0 0 Z " fill="#B61A22" transform="translate(31,5)"/>
<path d="M0 0 C4.95 0 9.9 0 15 0 C14.67 0.66 14.34 1.32 14 2 C12.58344207 2.0272415 11.16672955 2.04650467 9.75 2.0625 C8.56664062 2.07990234 8.56664062 2.07990234 7.359375 2.09765625 C5.09308998 2.00385306 3.1711105 1.63241063 1 1 C1 1.99 1 2.98 1 4 C-0.65 4.33 -2.3 4.66 -4 5 C-4.33 3.68 -4.66 2.36 -5 1 C-2.525 1.495 -2.525 1.495 0 2 C0 1.34 0 0.68 0 0 Z " fill="#C22026" transform="translate(18,0)"/>
<path d="M0 0 C0.66 0 1.32 0 2 0 C3.60725635 3.21451269 3.05748185 6.43612536 3 10 C1.68 10 0.36 10 -1 10 C-1.02689216 8.52093108 -1.04634621 7.04172517 -1.0625 5.5625 C-1.07410156 4.73878906 -1.08570313 3.91507813 -1.09765625 3.06640625 C-1 1 -1 1 0 0 Z " fill="#226E3A" transform="translate(49,46)"/>
<path d="M0 0 C0.33 0 0.66 0 1 0 C2.12862175 5.36095333 2.09688221 10.55306686 2 16 C0.02 16 -1.96 16 -4 16 C-3.51917969 15.64292969 -3.03835937 15.28585938 -2.54296875 14.91796875 C-0.31575162 12.14945328 -0.48605989 9.81840977 -0.3125 6.3125 C-0.21388672 4.54326172 -0.21388672 4.54326172 -0.11328125 2.73828125 C-0.07589844 1.83464844 -0.03851563 0.93101563 0 0 Z " fill="#26653C" transform="translate(4,29)"/>
<path d="M0 0 C2.31 0 4.62 0 7 0 C7 0.99 7 1.98 7 3 C4.11584117 4.44207941 1.58278472 4.09394887 -1.625 4.0625 C-2.81351563 4.05347656 -4.00203125 4.04445313 -5.2265625 4.03515625 C-6.14179687 4.02355469 -7.05703125 4.01195312 -8 4 C-8 3.67 -8 3.34 -8 3 C-5.36 3 -2.72 3 0 3 C0 2.01 0 1.02 0 0 Z " fill="#226E3B" transform="translate(14,23)"/>
<path d="M0 0 C0.33 0 0.66 0 1 0 C1 3.96 1 7.92 1 12 C0.01 12.495 0.01 12.495 -1 13 C-2.5625 11.875 -2.5625 11.875 -4 10 C-3.6875 6.8125 -3.6875 6.8125 -3 4 C-2.67 4.66 -2.34 5.32 -2 6 C-1.34 6 -0.68 6 0 6 C0 4.02 0 2.04 0 0 Z " fill="#A42429" transform="translate(38,4)"/>
<path d="M0 0 C1.32 0 2.64 0 4 0 C3.67 2.97 3.34 5.94 3 9 C2.01 9 1.02 9 0 9 C0 6.03 0 3.06 0 0 Z " fill="#197339" transform="translate(12,89)"/>
<path d="M0 0 C-0.33 2.31 -0.66 4.62 -1 7 C-2.98 7.33 -4.96 7.66 -7 8 C-7 7.01 -7 6.02 -7 5 C-6.34 5 -5.68 5 -5 5 C-4.87625 4.360625 -4.7525 3.72125 -4.625 3.0625 C-4.41875 2.381875 -4.2125 1.70125 -4 1 C-2 0 -2 0 0 0 Z " fill="#C91C1B" transform="translate(19,6)"/>
<path d="M0 0 C2.475 0.495 2.475 0.495 5 1 C4.01 1.495 4.01 1.495 3 2 C3.061875 3.5778125 3.061875 3.5778125 3.125 5.1875 C3.00852125 8.74010173 2.52791932 10.84866641 1 14 C0.67 14 0.34 14 0 14 C0 9.38 0 4.76 0 0 Z " fill="#B9181F" transform="translate(85,0)"/>
<path d="M0 0 C4.95 0.33 9.9 0.66 15 1 C15 1.33 15 1.66 15 2 C10.71 2 6.42 2 2 2 C2 3.32 2 4.64 2 6 C1.01 6 0.02 6 -1 6 C-0.67 4.02 -0.34 2.04 0 0 Z " fill="#2C673C" transform="translate(77,116)"/>
<path d="M0 0 C2.64 0.33 5.28 0.66 8 1 C8 1.66 8 2.32 8 3 C5.36 3 2.72 3 0 3 C0 4.98 0 6.96 0 9 C-0.66 9 -1.32 9 -2 9 C-2.25 3.375 -2.25 3.375 0 0 Z " fill="#AE1A23" transform="translate(33,61)"/>
<path d="M0 0 C2.97 0 5.94 0 9 0 C8.01 0.33 7.02 0.66 6 1 C5.26676204 3.01508358 5.26676204 3.01508358 5 5 C3.35 5 1.7 5 0 5 C0 3.35 0 1.7 0 0 Z " fill="#D38C8B" transform="translate(3,2)"/>
<path d="M0 0 C0.33 1.32 0.66 2.64 1 4 C4.3 4 7.6 4 11 4 C9 6 9 6 6.8359375 6.1953125 C5.61777344 6.16050781 5.61777344 6.16050781 4.375 6.125 C3.55773437 6.10695313 2.74046875 6.08890625 1.8984375 6.0703125 C1.27195312 6.04710938 0.64546875 6.02390625 0 6 C-0.66 4.68 -1.32 3.36 -2 2 C-1.34 1.34 -0.68 0.68 0 0 Z " fill="#355A42" transform="translate(76,64)"/>
<path d="M0 0 C0.33 0.66 0.66 1.32 1 2 C2.98 1.67 4.96 1.34 7 1 C6.67 1.99 6.34 2.98 6 4 C4.783125 3.95875 3.56625 3.9175 2.3125 3.875 C-1.21894127 3.86245492 -3.80003566 4.40001783 -7 6 C-7 5.01 -7 4.02 -7 3 C-4.69 2.01 -2.38 1.02 0 0 Z " fill="#306847" transform="translate(81,60)"/>
<path d="M0 0 C3.3 0 6.6 0 10 0 C9.67 0.99 9.34 1.98 9 3 C5.7 3 2.4 3 -1 3 C-0.67 2.01 -0.34 1.02 0 0 Z " fill="#197337" transform="translate(79,23)"/>
<path d="M0 0 C0 0.99 0 1.98 0 3 C-1 4 -1 4 -4.5625 4.0625 C-5.696875 4.041875 -6.83125 4.02125 -8 4 C-8 3.01 -8 2.02 -8 1 C-5.29120665 -0.35439668 -2.99066732 -0.06501451 0 0 Z " fill="#AB2A31" transform="translate(68,6)"/>
<path d="M0 0 C1.32 0 2.64 0 4 0 C4.66 1.65 5.32 3.3 6 5 C5.34 5.66 4.68 6.32 4 7 C1.875 6.625 1.875 6.625 0 6 C0 4.02 0 2.04 0 0 Z " fill="#226637" transform="translate(36,86)"/>
<path d="M0 0 C0.33 0 0.66 0 1 0 C1.06058594 0.70125 1.12117188 1.4025 1.18359375 2.125 C1.68197174 7.76817235 2.25821676 13.38364117 3 19 C2.01 18.34 1.02 17.68 0 17 C-0.2208564 14.04935852 -0.28060989 11.31631769 -0.1875 8.375 C-0.17396484 7.57320313 -0.16042969 6.77140625 -0.14648438 5.9453125 C-0.11109051 3.96325622 -0.05728234 1.98154449 0 0 Z " fill="#97242D" transform="translate(52,62)"/>
<path d="M0 0 C4.95 0 9.9 0 15 0 C15.33 1.98 15.66 3.96 16 6 C15.01 5.67 14.02 5.34 13 5 C13 4.34 13 3.68 13 3 C12.14535156 2.95101562 11.29070312 2.90203125 10.41015625 2.8515625 C8.75306641 2.73941406 8.75306641 2.73941406 7.0625 2.625 C5.96035156 2.55539063 4.85820313 2.48578125 3.72265625 2.4140625 C2.82417969 2.27742188 1.92570312 2.14078125 1 2 C0.67 1.34 0.34 0.68 0 0 Z " fill="#455F49" transform="translate(58,57)"/>
<path d="M0 0 C2.475 0.495 2.475 0.495 5 1 C4.67 2.65 4.34 4.3 4 6 C2.68 6 1.36 6 0 6 C0 4.02 0 2.04 0 0 Z " fill="#3D523A" transform="translate(37,69)"/>
<path d="M0 0 C1.485 0.99 1.485 0.99 3 2 C2.01 2.33 1.02 2.66 0 3 C0 3.99 0 4.98 0 6 C5.28 6 10.56 6 16 6 C16 6.33 16 6.66 16 7 C10.39 7 4.78 7 -1 7 C-1 1 -1 1 0 0 Z " fill="#386443" transform="translate(77,21)"/>
<path d="M0 0 C2.64 0 5.28 0 8 0 C8 0.99 8 1.98 8 3 C4.04 3 0.08 3 -4 3 C-2.68 2.67 -1.36 2.34 0 2 C0 1.34 0 0.68 0 0 Z " fill="#9A2C32" transform="translate(76,13)"/>
<path d="M0 0 C1.32 0 2.64 0 4 0 C3.8125 2.8125 3.8125 2.8125 3 6 C0.4375 7.875 0.4375 7.875 -2 9 C-1.505 7.88625 -1.505 7.88625 -1 6.75 C0.22782871 3.86116688 0.22782871 3.86116688 0 0 Z " fill="#29653D" transform="translate(60,82)"/>
<path d="M0 0 C1.63001953 0.01353516 1.63001953 0.01353516 3.29296875 0.02734375 C4.12441406 0.03894531 4.95585937 0.05054687 5.8125 0.0625 C5.8125 0.3925 5.8125 0.7225 5.8125 1.0625 C-0.6225 1.5575 -0.6225 1.5575 -7.1875 2.0625 C-7.1875 3.0525 -7.1875 4.0425 -7.1875 5.0625 C-6.5275 5.3925 -5.8675 5.7225 -5.1875 6.0625 C-6.1775 6.3925 -7.1675 6.7225 -8.1875 7.0625 C-9.1875 6.0625 -9.1875 6.0625 -9.25 3.5 C-9.229375 2.695625 -9.20875 1.89125 -9.1875 1.0625 C-5.90230525 -0.03256492 -3.45086585 -0.03710608 0 0 Z " fill="#26593F" transform="translate(20.1875,67.9375)"/>
<path d="M0 0 C1.65 0 3.3 0 5 0 C5 1.65 5 3.3 5 5 C3.35 5 1.7 5 0 5 C0 3.35 0 1.7 0 0 Z " fill="#246C3A" transform="translate(47,34)"/>
<path d="M0 0 C-0.33 1.32 -0.66 2.64 -1 4 C-3.02045442 3.39816251 -5.02111039 2.72693904 -7 2 C-7.33 1.34 -7.66 0.68 -8 0 C-4.94736336 -0.98120464 -3.05263664 -0.98120464 0 0 Z " fill="#216F41" transform="translate(82,82)"/>
<path d="M0 0 C1.98 1.65 3.96 3.3 6 5 C5.67 6.32 5.34 7.64 5 9 C4.01 8.67 3.02 8.34 2 8 C0.5522078 5.10441559 0 3.25811062 0 0 Z " fill="#236F3B" transform="translate(40,37)"/>
<path d="M0 0 C0.66 0 1.32 0 2 0 C2.33 1.98 2.66 3.96 3 6 C2.01 6 1.02 6 0 6 C-0.33 7.32 -0.66 8.64 -1 10 C-2.25 3.375 -2.25 3.375 0 0 Z " fill="#AD1A24" transform="translate(54,4)"/>
<path d="M0 0 C0.99 0 1.98 0 3 0 C3 4.62 3 9.24 3 14 C0.94604441 10.91906662 0.77497334 10.43256308 0.9375 7 C1.06063177 4.17332281 0.92549006 2.77647019 0 0 Z " fill="#226D3C" transform="translate(2,99)"/>
<path d="M0 0 C1.32 0 2.64 0 4 0 C4.33 1.65 4.66 3.3 5 5 C3.35 5 1.7 5 0 5 C0 3.35 0 1.7 0 0 Z " fill="#1E713E" transform="translate(42,99)"/>
<path d="M0 0 C0.99 0.33 1.98 0.66 3 1 C2.34 1.66 1.68 2.32 1 3 C1 5.0095466 1.00501725 7.02138222 1.125 9.02734375 C1 11 1 11 -1 14 C-1.02685938 11.85423363 -1.04633088 9.70837355 -1.0625 7.5625 C-1.07410156 6.36753906 -1.08570312 5.17257813 -1.09765625 3.94140625 C-1 1 -1 1 0 0 Z " fill="#256C3E" transform="translate(96,99)"/>
<path d="M0 0 C0.66 0 1.32 0 2 0 C1.67 2.64 1.34 5.28 1 8 C0.34 8 -0.32 8 -1 8 C-1.66 6.02 -2.32 4.04 -3 2 C-2.34 2 -1.68 2 -1 2 C-0.67 1.34 -0.34 0.68 0 0 Z " fill="#B8172A" transform="translate(37,2)"/>
<path d="M0 0 C0 1.65 0 3.3 0 5 C-1.98 5 -3.96 5 -6 5 C-6 4.34 -6 3.68 -6 3 C-1.5 0 -1.5 0 0 0 Z " fill="#127836" transform="translate(86,103)"/>
<path d="M0 0 C0.33 1.32 0.66 2.64 1 4 C-0.65 4.33 -2.3 4.66 -4 5 C-4.33 3.68 -4.66 2.36 -5 1 C-3.35 0.67 -1.7 0.34 0 0 Z " fill="#1F6738" transform="translate(76,92)"/>
<path d="M0 0 C2.64 0.33 5.28 0.66 8 1 C8.33 1.99 8.66 2.98 9 4 C6.16032769 4 3.76264289 3.59732819 1 3 C0.67 2.01 0.34 1.02 0 0 Z " fill="#A21F26" transform="translate(42,79)"/>
<path d="M0 0 C1.98 0 3.96 0 6 0 C6 0.66 6 1.32 6 2 C5.01 2 4.02 2 3 2 C3 2.66 3 3.32 3 4 C1.02 4 -0.96 4 -3 4 C-2.01 3.67 -1.02 3.34 0 3 C0 2.01 0 1.02 0 0 Z " fill="#A22329" transform="translate(59,61)"/>
<path d="M0 0 C0.66 0.33 1.32 0.66 2 1 C1.67 1.99 1.34 2.98 1 4 C-2.96 4 -6.92 4 -11 4 C-11 3.67 -11 3.34 -11 3 C-10.28972656 2.95101562 -9.57945313 2.90203125 -8.84765625 2.8515625 C-7.46900391 2.73941406 -7.46900391 2.73941406 -6.0625 2.625 C-5.14597656 2.55539063 -4.22945313 2.48578125 -3.28515625 2.4140625 C-2.15400391 2.20910156 -2.15400391 2.20910156 -1 2 C-0.67 1.34 -0.34 0.68 0 0 Z " fill="#356B45" transform="translate(94,113)"/>
<path d="M0 0 C0.33 1.32 0.66 2.64 1 4 C2.32 4.33 3.64 4.66 5 5 C3.68 5 2.36 5 1 5 C0.67 6.32 0.34 7.64 0 9 C0 7.68 0 6.36 0 5 C-1.65 5 -3.3 5 -5 5 C-5 4.67 -5 4.34 -5 4 C-3.35 4 -1.7 4 0 4 C0 2.68 0 1.36 0 0 Z " fill="#366440" transform="translate(17,94)"/>
<path d="M0 0 C1.2065625 0.0309375 1.2065625 0.0309375 2.4375 0.0625 C2.4375 1.0525 2.4375 2.0425 2.4375 3.0625 C1.1175 2.7325 -0.2025 2.4025 -1.5625 2.0625 C-1.8925 3.0525 -2.2225 4.0425 -2.5625 5.0625 C-3.125 3.125 -3.125 3.125 -3.5625 1.0625 C-2.5625 0.0625 -2.5625 0.0625 0 0 Z " fill="#344A38" transform="translate(61.5625,79.9375)"/>
<path d="M0 0 C0.66 0.33 1.32 0.66 2 1 C2 3.64 2 6.28 2 9 C1.01 9.495 1.01 9.495 0 10 C-0.95024979 6.30458414 -0.95024979 3.69541586 0 0 Z " fill="#AF0E1A" transform="translate(54,66)"/>
<path d="M0 0 C1.32 0 2.64 0 4 0 C4 1.65 4 3.3 4 5 C2.68 5 1.36 5 0 5 C0 3.35 0 1.7 0 0 Z " fill="#1D6E3A" transform="translate(72,46)"/>
<path d="M0 0 C0.99 0 1.98 0 3 0 C2.67 0.99 2.34 1.98 2 3 C1.34 3 0.68 3 0 3 C-0.33 3.99 -0.66 4.98 -1 6 C-1.66 5.67 -2.32 5.34 -3 5 C-1.125 1.125 -1.125 1.125 0 0 Z " fill="#C21715" transform="translate(15,4)"/>
<path d="M0 0 C0.99 0.33 1.98 0.66 3 1 C2.34 1 1.68 1 1 1 C1.185625 1.804375 1.37125 2.60875 1.5625 3.4375 C1.706875 4.283125 1.85125 5.12875 2 6 C1 7 1 7 -1.5625 7.0625 C-2.7690625 7.0315625 -2.7690625 7.0315625 -4 7 C-3.01 6.34 -2.02 5.68 -1 5 C-0.27034634 2.43717258 -0.27034634 2.43717258 0 0 Z " fill="#BB3537" transform="translate(12,0)"/>
<path d="M0 0 C0 1.98 0 3.96 0 6 C-0.99 5.67 -1.98 5.34 -3 5 C-3.6875 2.9375 -3.6875 2.9375 -4 1 C-2 0 -2 0 0 0 Z " fill="#27623B" transform="translate(23,116)"/>
</svg>
