<?xml version="1.0" encoding="UTF-8"?>
<svg version="1.1" xmlns="http://www.w3.org/2000/svg" width="130" height="130">
<path d="M0 0 C0.99 0.99 0.99 0.99 2 2 C1.8125 4.0625 1.8125 4.0625 1 7 C0.83628906 7.65226562 0.67257813 8.30453125 0.50390625 8.9765625 C-1.15235747 14.79920389 -3.93616236 19.12051294 -7.57421875 23.93359375 C-9.18930491 25.85593661 -9.18930491 25.85593661 -9 28 C-8.59007812 27.566875 -8.18015625 27.13375 -7.7578125 26.6875 C-6.94957031 25.8521875 -6.94957031 25.8521875 -6.125 25 C-5.59132812 24.443125 -5.05765625 23.88625 -4.5078125 23.3125 C-3 22 -3 22 -1 22 C-0.731875 21.2575 -0.46375 20.515 -0.1875 19.75 C0.99721868 17.00644094 1.93614123 15.15477766 4 13 C6.62890625 12.5390625 6.62890625 12.5390625 9.5625 12.625 C11.01849609 12.64433594 11.01849609 12.64433594 12.50390625 12.6640625 C15 13 15 13 17 15 C16.86909741 20.62881139 14.33707012 23.72170497 11 28 C14.80455451 25.78804971 17.23663999 23.93376215 19.6875 20.25 C20.8321875 18.64125 20.8321875 18.64125 22 17 C22.99 17 23.98 17 25 17 C23.23188872 23.28661788 18.3319351 28.4453766 13 32 C9.875 32.1875 9.875 32.1875 7 32 C6 31 6 31 5.5625 27.875 C6.14144233 22.74722509 8.41149325 20.5137462 12 17 C8.96963274 18.33231664 7.10860457 19.70592275 5 22.25 C4.47664063 22.86488281 3.95328125 23.47976562 3.4140625 24.11328125 C1.78789082 26.15181916 1.78789082 26.15181916 0.375 29.4375 C-2 32 -2 32 -4.84375 32.44140625 C-7.97167886 32.49726212 -10.90596016 32.46906726 -14 32 C-14.66 31.34 -15.32 30.68 -16 30 C-15.85140295 24.94770045 -12.72649589 21.05453079 -10 17 C-11.32 17 -12.64 17 -14 17 C-15.86167069 19.26773459 -15.86167069 19.26773459 -17.4375 22.1875 C-20.99205993 28.09155583 -24.5742381 33.07919913 -31 36 C-35.84145206 37.05173375 -39.65879328 37.76431325 -44 35 C-45.36952673 32.26094655 -45.12621361 30.02912668 -45 27 C-44.67 26.34 -44.34 25.68 -44 25 C-44.78375 24.71125 -45.5675 24.4225 -46.375 24.125 C-49 23 -49 23 -51 21 C-51.350625 21.474375 -51.70125 21.94875 -52.0625 22.4375 C-54.91839469 24.74064088 -57.39126535 24.8100666 -61 25 C-64.18193607 24.20451598 -64.90390354 23.13586051 -66.8125 20.4375 C-68.35064638 15.98497102 -68.37714631 12.5078019 -67 8 C-64.84734761 5.32549248 -63.41455329 4.26663207 -60.03125 3.62890625 C-56.47157851 3.40974737 -54.44163603 3.65133998 -51.625 5.875 C-51.08875 6.57625 -50.5525 7.2775 -50 8 C-49.34 8.66 -48.68 9.32 -48 10 C-47.34 9.67 -46.68 9.34 -46 9 C-42.73834906 8.71637818 -40.60417691 8.71381094 -37.625 10.125 C-36 12 -36 12 -35.75 15.1875 C-35.8325 16.115625 -35.915 17.04375 -36 18 C-38.97 18 -41.94 18 -45 18 C-45 18.66 -45 19.32 -45 20 C-42.03 19.67 -39.06 19.34 -36 19 C-36.309375 19.7425 -36.61875 20.485 -36.9375 21.25 C-37.8094925 23.50692176 -38.47667007 25.6450153 -39 28 C-39.66 28 -40.32 28 -41 28 C-40.67 29.32 -40.34 30.64 -40 32 C-37.58967173 32.89271417 -36.15969823 33.03362068 -33.625 32.5 C-29.90576468 30.37472268 -27.60656919 27.35002363 -25 24 C-26.32 24 -27.64 24 -29 24 C-29 17.4 -29 10.8 -29 4 C-27.35 4 -25.7 4 -24 4 C-23.505 12.415 -23.505 12.415 -23 21 C-22.01 19.35 -21.02 17.7 -20 16 C-20.66 16 -21.32 16 -22 16 C-22 15.01 -22 14.02 -22 13 C-21.29875 12.835 -20.5975 12.67 -19.875 12.5 C-16.26927137 10.61875028 -14.77004125 8.29632153 -12.52734375 4.97265625 C-8.86465053 0.24206781 -5.94480562 -0.55044496 0 0 Z M-4 3 C-6.90802461 5.21928194 -8.95312762 6.92969143 -11 10 C-11 10.99 -11 11.98 -11 13 C-8.69 13 -6.38 13 -4 13 C-4.33 11.02 -4.66 9.04 -5 7 C-4.34 7 -3.68 7 -3 7 C-2.67 6.01 -2.34 5.02 -2 4 C-2.66 3.67 -3.32 3.34 -4 3 Z M-61 9 C-62.50662097 12.01324195 -62.17770373 14.68286377 -62 18 C-61.34 18.66 -60.68 19.32 -60 20 C-58.1381966 19.7872678 -58.1381966 19.7872678 -56 19 C-54.9275 18.649375 -53.855 18.29875 -52.75 17.9375 C-51.8425 17.628125 -50.935 17.31875 -50 17 C-49.67 15.02 -49.34 13.04 -49 11 C-50.98 11.33 -52.96 11.66 -55 12 C-55.33 11.01 -55.66 10.02 -56 9 C-57.65 9 -59.3 9 -61 9 Z " fill="#10793D" transform="translate(103,46)"/>
<path d="M0 0 C7.92 0 15.84 0 24 0 C24 14.19 24 28.38 24 43 C8.75 43 8.75 43 1 42 C-2.38806925 29.2947403 0 13.10959628 0 0 Z " fill="#0C7F3F" transform="translate(6,46)"/>
<path d="M0 0 C7.92 0 15.84 0 24 0 C24 14.19 24 28.38 24 43 C23.67 43 23.34 43 23 43 C22.97494385 42.18845459 22.9498877 41.37690918 22.92407227 40.54077148 C22.80754183 36.83954284 22.685075 33.13853319 22.5625 29.4375 C22.52318359 28.16068359 22.48386719 26.88386719 22.44335938 25.56835938 C22.40146484 24.32763672 22.35957031 23.08691406 22.31640625 21.80859375 C22.27974854 20.67220459 22.24309082 19.53581543 22.20532227 18.36499023 C22.0410097 14.92007645 22.0410097 14.92007645 21.45678711 11.21508789 C21.03632753 8.25569069 21.01830895 6.74873493 22 4 C22.33 3.01 22.66 2.02 23 1 C15.74 1 8.48 1 1 1 C1 9.58 1 18.16 1 27 C3.31 27.33 5.62 27.66 8 28 C10.93496051 30.47841109 12.87219885 32.80829827 15 36 C15.07905064 38.33199388 15.08798769 40.66832622 15 43 C13.88625 42.7215625 13.88625 42.7215625 12.75 42.4375 C10.11361994 41.81777497 10.11361994 41.81777497 8.0625 42.5625 C5.01941234 43.20800344 2.84097826 42.09765069 0 41 C0.185625 40.443125 0.37125 39.88625 0.5625 39.3125 C1.15117944 37.01901433 1.15117944 37.01901433 0.53344727 34.82348633 C-0.12469296 31.34001184 -0.1117808 28.05698204 -0.09765625 24.51171875 C-0.0962413 23.80852005 -0.09482635 23.10532135 -0.09336853 22.3808136 C-0.08780109 20.14966456 -0.07525475 17.91861836 -0.0625 15.6875 C-0.05748079 14.16862125 -0.05291862 12.64974091 -0.04882812 11.13085938 C-0.03869607 7.42050207 -0.01911465 3.71036524 0 0 Z M12 5 C12 6.98 12 8.96 12 11 C12.66 9.02 13.32 7.04 14 5 C15.98 5 17.96 5 20 5 C20.75 6.6875 20.75 6.6875 21 9 C19.5 11.75 19.5 11.75 17 14 C13.25 14.3125 13.25 14.3125 10 14 C10 14.99 10 15.98 10 17 C8.35 16.67 6.7 16.34 5 16 C4.56304291 10.66912345 4.56304291 10.66912345 5 8 C7.40859879 5.97170628 8.83044309 5 12 5 Z " fill="#1E7346" transform="translate(6,46)"/>
<path d="M0 0 C2.375 1.875 2.375 1.875 4 4 C4.66 4.66 5.32 5.32 6 6 C6.66 5.67 7.32 5.34 8 5 C11.26165094 4.71637818 13.39582309 4.71381094 16.375 6.125 C18 8 18 8 18.25 11.1875 C18.1675 12.115625 18.085 13.04375 18 14 C15.03 14 12.06 14 9 14 C9 14.66 9 15.32 9 16 C13.455 15.505 13.455 15.505 18 15 C17.67 16.32 17.34 17.64 17 19 C10.75949367 21.20253165 10.75949367 21.20253165 7.1875 20.25 C5 19 5 19 3 17 C2.649375 17.474375 2.29875 17.94875 1.9375 18.4375 C-0.91839469 20.74064088 -3.39126535 20.8100666 -7 21 C-10.18193607 20.20451598 -10.90390354 19.13586051 -12.8125 16.4375 C-14.35064638 11.98497102 -14.37714631 8.5078019 -13 4 C-9.23424567 -0.67866448 -5.62136504 -0.71382413 0 0 Z M-7 5 C-8.50662097 8.01324195 -8.17770373 10.68286377 -8 14 C-7.34 14.66 -6.68 15.32 -6 16 C-4.1381966 15.7872678 -4.1381966 15.7872678 -2 15 C-0.9275 14.649375 0.145 14.29875 1.25 13.9375 C2.1575 13.628125 3.065 13.31875 4 13 C4.33 11.02 4.66 9.04 5 7 C3.02 7.33 1.04 7.66 -1 8 C-1.33 7.01 -1.66 6.02 -2 5 C-3.65 5 -5.3 5 -7 5 Z " fill="#DB1F26" transform="translate(49,50)"/>
<path d="M0 0 C0.96808594 0.02835938 1.93617187 0.05671875 2.93359375 0.0859375 C3.90425781 0.09882812 4.87492187 0.11171875 5.875 0.125 C8.37109375 0.4609375 8.37109375 0.4609375 10.37109375 2.4609375 C10.24019116 8.08974889 7.70816387 11.18264247 4.37109375 15.4609375 C8.17564826 13.24898721 10.60773374 11.39469965 13.05859375 7.7109375 C13.82171875 6.6384375 14.58484375 5.5659375 15.37109375 4.4609375 C16.36109375 4.4609375 17.35109375 4.4609375 18.37109375 4.4609375 C16.60298247 10.74755538 11.70302885 15.9063141 6.37109375 19.4609375 C3.24609375 19.6484375 3.24609375 19.6484375 0.37109375 19.4609375 C-0.62890625 18.4609375 -0.62890625 18.4609375 -1.06640625 15.3359375 C-0.48746392 10.20816259 1.782587 7.9746837 5.37109375 4.4609375 C2.34072649 5.79325414 0.47969832 7.16686025 -1.62890625 9.7109375 C-2.15226562 10.32582031 -2.675625 10.94070312 -3.21484375 11.57421875 C-4.84101543 13.61275666 -4.84101543 13.61275666 -6.25390625 16.8984375 C-8.62890625 19.4609375 -8.62890625 19.4609375 -11.47265625 19.90234375 C-14.60058511 19.95819962 -17.53486641 19.93000476 -20.62890625 19.4609375 C-21.28890625 18.8009375 -21.94890625 18.1409375 -22.62890625 17.4609375 C-22.37888052 12.96047435 -20.21136321 10.04305523 -17.62890625 6.4609375 C-16.63890625 7.1209375 -15.64890625 7.7809375 -14.62890625 8.4609375 C-15.28890625 10.7709375 -15.94890625 13.0809375 -16.62890625 15.4609375 C-15.90574219 14.81125 -15.90574219 14.81125 -15.16796875 14.1484375 C-14.53632812 13.5915625 -13.9046875 13.0346875 -13.25390625 12.4609375 C-12.62742187 11.9040625 -12.0009375 11.3471875 -11.35546875 10.7734375 C-9.62890625 9.4609375 -9.62890625 9.4609375 -7.62890625 9.4609375 C-7.36078125 8.7184375 -7.09265625 7.9759375 -6.81640625 7.2109375 C-4.00588835 0.70236973 -4.00588835 0.70236973 0 0 Z " fill="#107C42" transform="translate(109.62890625,58.5390625)"/>
<path d="M0 0 C0.66 0 1.32 0 2 0 C2.3125 2.1875 2.3125 2.1875 2 5 C-2.88253563 10.85904276 -7.40969913 13.19630718 -14.81640625 14.08203125 C-17.38546393 13.98551924 -18.84195087 13.37416258 -21 12 C-22.39935013 9.20129973 -22.25265405 7.09501208 -22 4 C-20.75 2.125 -20.75 2.125 -19 1 C-17.68 1 -16.36 1 -15 1 C-15.33 2.32 -15.66 3.64 -16 5 C-16.66 5 -17.32 5 -18 5 C-17.67 6.32 -17.34 7.64 -17 9 C-14.55879712 9.90414922 -13.18135837 10.0429533 -10.625 9.4375 C-7.59390846 7.77761653 -5.63772686 5.78514466 -3.33203125 3.2421875 C-2 2 -2 2 0 2 C0 1.34 0 0.68 0 0 Z " fill="#107F42" transform="translate(80,69)"/>
<path d="M0 0 C2.83339965 -0.02724423 5.66653117 -0.04695589 8.5 -0.0625 C9.29148437 -0.07087891 10.08296875 -0.07925781 10.8984375 -0.08789062 C16.02761717 -0.10891185 20.92336106 0.26062713 26 1 C26 2.98 26 4.96 26 7 C22.88866309 7 20.01704248 6.82654942 16.9375 6.5 C11.27827529 5.95848389 5.68050192 5.90111312 0 6 C0 4.02 0 2.04 0 0 Z " fill="#0B0D0D" transform="translate(35,83)"/>
<path d="M0 0 C0.33 0 0.66 0 1 0 C1 3.63 1 7.26 1 11 C-1.43769218 7.34346173 -1.23944439 5.30999899 -1 1 C-0.67 0.67 -0.34 0.34 0 0 Z M-10 1 C-10 2.98 -10 4.96 -10 7 C-9.34 5.02 -8.68 3.04 -8 1 C-6.02 1 -4.04 1 -2 1 C-1.25 2.6875 -1.25 2.6875 -1 5 C-2.5 7.75 -2.5 7.75 -5 10 C-8.75 10.3125 -8.75 10.3125 -12 10 C-12 10.99 -12 11.98 -12 13 C-13.65 12.67 -15.3 12.34 -17 12 C-17.43695709 6.66912345 -17.43695709 6.66912345 -17 4 C-14.59140121 1.97170628 -13.16955691 1 -10 1 Z " fill="#33A84E" transform="translate(28,50)"/>
<path d="M0 0 C0.66 0.66 1.32 1.32 2 2 C1.56344692 6.80208391 -0.42868426 11.46393757 -2 16 C-2.99 16 -3.98 16 -5 16 C-5 15.34 -5 14.68 -5 14 C-5.66 13.67 -6.32 13.34 -7 13 C-6.34 12.67 -5.68 12.34 -5 12 C-5.33 11.01 -5.66 10.02 -6 9 C-5.67 8.34 -5.34 7.68 -5 7 C-4.34 7 -3.68 7 -3 7 C-3.33 6.01 -3.66 5.02 -4 4 C-6.64752004 6.57784846 -8.94432065 8.91648098 -11 12 C-13.125 12.6875 -13.125 12.6875 -15 13 C-13.83492143 8.56701813 -12.81095856 4.9235917 -9.75 1.4375 C-6.26077927 -0.38641083 -3.88469723 -0.43977704 0 0 Z " fill="#107C45" transform="translate(103,46)"/>
<path d="M0 0 C6.52307692 0.49230769 6.52307692 0.49230769 8.9375 3.0625 C9.288125 3.701875 9.63875 4.34125 10 5 C10 3.68 10 2.36 10 1 C11.9375 1.375 11.9375 1.375 14 2 C15.4783226 4.95664519 15.06032783 7.74229737 15 11 C14.2575 10.814375 13.515 10.62875 12.75 10.4375 C10.11361994 9.81777497 10.11361994 9.81777497 8.0625 10.5625 C5.01941234 11.20800344 2.84097826 10.09765069 0 9 C0.185625 8.443125 0.37125 7.88625 0.5625 7.3125 C1.07551165 4.600867 0.6640724 2.65628961 0 0 Z " fill="#31AA49" transform="translate(6,78)"/>
<path d="M0 0 C1.00353516 0.24363281 1.00353516 0.24363281 2.02734375 0.4921875 C5.58006353 1.09909101 8.95891563 1.13215707 12.5625 1.125 C14.51349609 1.12886719 14.51349609 1.12886719 16.50390625 1.1328125 C19.24231935 1.0287834 21.41632549 0.82835366 24 0 C24 1.98 24 3.96 24 6 C23.18015625 5.97679688 22.3603125 5.95359375 21.515625 5.9296875 C20.43796875 5.91164063 19.3603125 5.89359375 18.25 5.875 C17.18265625 5.85179688 16.1153125 5.82859375 15.015625 5.8046875 C12.07529894 5.99512313 10.47638122 6.47329896 8 8 C8 7.34 8 6.68 8 6 C5.36 6 2.72 6 0 6 C0 4.02 0 2.04 0 0 Z " fill="#111112" transform="translate(77,83)"/>
<path d="M0 0 C1.65 0 3.3 0 5 0 C5 6.6 5 13.2 5 20 C3.35 20 1.7 20 0 20 C0 13.4 0 6.8 0 0 Z " fill="#DA2024" transform="translate(68,50)"/>
<path d="M0 0 C1.65 0 3.3 0 5 0 C5 6.6 5 13.2 5 20 C3.35 20 1.7 20 0 20 C0 13.4 0 6.8 0 0 Z " fill="#DC1E28" transform="translate(74,50)"/>
<path d="M0 0 C0 1.98 0 3.96 0 6 C-3.96 6 -7.92 6 -12 6 C-11.67 4.35 -11.34 2.7 -11 1 C-9.54182203 0.83197949 -8.0834516 0.66562857 -6.625 0.5 C-5.81289062 0.4071875 -5.00078125 0.314375 -4.1640625 0.21875 C-2 0 -2 0 0 0 Z " fill="#09110C" transform="translate(75,83)"/>
<path d="M0 0 C2.625 -0.1875 2.625 -0.1875 5 0 C4.67 1.32 4.34 2.64 4 4 C3.34 4 2.68 4 2 4 C2.2784375 5.175625 2.2784375 5.175625 2.5625 6.375 C3 9 3 9 2 11 C4.97 11.495 4.97 11.495 8 12 C8 12.33 8 12.66 8 13 C1.65492958 12.40140845 1.65492958 12.40140845 -0.9375 10.8125 C-2.51621675 8.11939495 -2.3187182 6.05969475 -2 3 C-1.34 2.01 -0.68 1.02 0 0 Z " fill="#137540" transform="translate(60,70)"/>
<path d="M0 0 C7.17171717 1.43434343 7.17171717 1.43434343 10.5625 3.75 C12 6 12 6 11.75 9.25 C11.5025 10.1575 11.255 11.065 11 12 C9 10 9 10 7.75 8.5 C5.39528106 6.48166948 2.95044024 5.8523494 0 5 C0 3.35 0 1.7 0 0 Z " fill="#35A449" transform="translate(6,72)"/>
<path d="M0 0 C3.3 0.33 6.6 0.66 10 1 C10 2.65 10 4.3 10 6 C6.7 6 3.4 6 0 6 C0 4.02 0 2.04 0 0 Z " fill="#121214" transform="translate(35,83)"/>
<path d="M0 0 C0.33 0 0.66 0 1 0 C1 3.63 1 7.26 1 11 C-1.43769218 7.34346173 -1.23944439 5.30999899 -1 1 C-0.67 0.67 -0.34 0.34 0 0 Z M-8 1 C-6.02 1 -4.04 1 -2 1 C-1.25 2.75 -1.25 2.75 -1 5 C-2.9375 7.25 -2.9375 7.25 -5 9 C-5 8.34 -5 7.68 -5 7 C-6.32 6.67 -7.64 6.34 -9 6 C-8.67 4.35 -8.34 2.7 -8 1 Z " fill="#1D883F" transform="translate(28,50)"/>
<path d="M0 0 C0.33 0.99 0.66 1.98 1 3 C1.804375 2.814375 2.60875 2.62875 3.4375 2.4375 C4.7059375 2.2209375 4.7059375 2.2209375 6 2 C7 3 7 3 7.09765625 4.84765625 C7.06510417 6.8984375 7.03255208 8.94921875 7 11 C4.69 10.34 2.38 9.68 0 9 C0.185625 8.443125 0.37125 7.88625 0.5625 7.3125 C1.07551165 4.600867 0.6640724 2.65628961 0 0 Z " fill="#A3AE47" transform="translate(6,78)"/>
<path d="M0 0 C1.98 0.66 3.96 1.32 6 2 C5.67 3.32 5.34 4.64 5 6 C5 5.01 5 4.02 5 3 C3.02 3 1.04 3 -1 3 C-1.33 5.64 -1.66 8.28 -2 11 C-2.66 10.34 -3.32 9.68 -4 9 C-3.625 5.875 -3.625 5.875 -3 3 C-3.66 3 -4.32 3 -5 3 C-5 2.34 -5 1.68 -5 1 C-2.525 1.495 -2.525 1.495 0 2 C0 1.34 0 0.68 0 0 Z " fill="#127C33" transform="translate(21,48)"/>
<path d="M0 0 C5.44736842 0.48421053 5.44736842 0.48421053 7.875 2.75 C9.18152386 5.36304771 9.24038873 7.11533524 9 10 C8.01 10.33 7.02 10.66 6 11 C5.67 8.36 5.34 5.72 5 3 C3.35 3 1.7 3 0 3 C0 2.01 0 1.02 0 0 Z " fill="#8ABD42" transform="translate(7,78)"/>
<path d="M0 0 C1.65 0 3.3 0 5 0 C5 0.99 5 1.98 5 3 C5.99 3.33 6.98 3.66 8 4 C5.34771188 5.07525194 2.71631546 6.09456151 0 7 C-0.66 5.68 -1.32 4.36 -2 3 C-1.01 2.67 -0.02 2.34 1 2 C0.67 1.34 0.34 0.68 0 0 Z " fill="#0A0A0C" transform="translate(85,84)"/>
<path d="M0 0 C1.32 0 2.64 0 4 0 C4 1.98 4 3.96 4 6 C2.68 6.33 1.36 6.66 0 7 C0 4.69 0 2.38 0 0 Z " fill="#E11B29" transform="translate(69,51)"/>
<path d="M0 0 C1.65 0 3.3 0 5 0 C3.68 0.33 2.36 0.66 1 1 C1 3.31 1 5.62 1 8 C1.99 8.33 2.98 8.66 4 9 C3.01 10.485 3.01 10.485 2 12 C1.34 12 0.68 12 0 12 C0 8.04 0 4.08 0 0 Z " fill="#CE242E" transform="translate(68,50)"/>
<path d="M0 0 C1.65 0.33 3.3 0.66 5 1 C4.34 2.32 3.68 3.64 3 5 C1.68 4.67 0.36 4.34 -1 4 C-0.67 2.68 -0.34 1.36 0 0 Z " fill="#C83B2C" transform="translate(7,83)"/>
<path d="M0 0 C0.99 0.66 1.98 1.32 3 2 C2.67 3.65 2.34 5.3 2 7 C1.01 7 0.02 7 -1 7 C-1.625 4.625 -1.625 4.625 -2 2 C-1.34 1.34 -0.68 0.68 0 0 Z " fill="#1A804D" transform="translate(92,65)"/>
<path d="M0 0 C0.433125 0.45375 0.86625 0.9075 1.3125 1.375 C3.10798342 3.20024334 3.10798342 3.20024334 6 5 C5 6 5 6 2.4375 6.0625 C1.2309375 6.0315625 1.2309375 6.0315625 0 6 C0 4.02 0 2.04 0 0 Z " fill="#1E1D1F" transform="translate(35,83)"/>
<path d="M0 0 C1.98 0 3.96 0 6 0 C6 0.99 6 1.98 6 3 C3.69 3 1.38 3 -1 3 C-0.67 2.01 -0.34 1.02 0 0 Z " fill="#49A84D" transform="translate(17,57)"/>
<path d="M0 0 C1.98 0 3.96 0 6 0 C6 0.99 6 1.98 6 3 C4.02 3 2.04 3 0 3 C0 2.01 0 1.02 0 0 Z " fill="#6ABC56" transform="translate(20,51)"/>
<path d="M0 0 C1.65 0 3.3 0 5 0 C4.67 1.32 4.34 2.64 4 4 C2.35 3.67 0.7 3.34 -1 3 C-0.67 2.01 -0.34 1.02 0 0 Z " fill="#29683B" transform="translate(60,70)"/>
</svg>
