<?xml version="1.0" encoding="UTF-8"?>
<svg version="1.1" xmlns="http://www.w3.org/2000/svg" width="104" height="115" viewBox="14 4 104.188 115.26">
<path d="M0 0 C0.91539047 0.00404846 1.83078094 0.00809692 2.77391052 0.01226807 C4.21793495 0.00701111 4.21793495 0.00701111 5.69113159 0.00164795 C8.88481277 -0.00718065 12.07827383 -0.0013162 15.2719574 0.00543213 C17.48391258 0.0040858 19.69586748 0.00214555 21.90782166 -0.00036621 C26.54827181 -0.00331901 31.18864507 0.00098518 35.8290863 0.01031494 C41.78814565 0.02170952 47.74702485 0.01515088 53.70607758 0.00317001 C58.27500271 -0.00404438 62.84388488 -0.00176259 67.41281128 0.0034256 C69.61053488 0.00476326 71.80826234 0.00311033 74.00598145 -0.00153351 C77.07326139 -0.00659181 80.14024639 0.00110174 83.20750427 0.01226807 C84.12289474 0.0082196 85.03828522 0.00417114 85.98141479 0 C92.26217998 0.04252971 92.26217998 0.04252971 94.4907074 2.27105713 C94.7407074 5.27105713 94.7407074 5.27105713 94.4907074 8.27105713 C92.4907074 10.27105713 92.4907074 10.27105713 90.68566799 10.5199461 C89.58423002 10.51912895 89.58423002 10.51912895 88.46054077 10.51829529 C87.19646141 10.52458702 87.19646141 10.52458702 85.90684509 10.53100586 C84.51737671 10.5225766 84.51737671 10.5225766 83.09983826 10.51397705 C82.12579544 10.5158754 81.15175262 10.51777374 80.14819336 10.51972961 C76.91723166 10.52344501 73.68649298 10.51272303 70.45555115 10.50152588 C68.21878079 10.50033449 65.98200992 10.49988083 63.74523926 10.50013733 C59.05351132 10.49857119 54.36185954 10.49027097 49.67015076 10.47686768 C43.64153207 10.45986787 37.61299711 10.45605353 31.58435726 10.45681286 C26.96486606 10.45654158 22.34539335 10.45106739 17.72590828 10.44381142 C15.50224002 10.44061853 13.27856965 10.4386559 11.05489922 10.43791771 C7.9539568 10.43576125 4.85310509 10.42703241 1.75218201 10.4163208 C0.82384552 10.41677399 -0.10449097 10.41722717 -1.06095886 10.41769409 C-7.39481878 10.38553095 -7.39481878 10.38553095 -8.5092926 9.27105713 C-8.6967926 5.83355713 -8.6967926 5.83355713 -8.5092926 2.27105713 C-5.80204635 -0.43618912 -3.67736503 0.02490099 0 0 Z " fill="#44A25D" transform="translate(23.509292602539063,108.72894287109375)"/>
<path d="M0 0 C0.66 0 1.32 0 2 0 C2 5.61 2 11.22 2 17 C2.66 17 3.32 17 4 17 C4.061875 15.948125 4.12375 14.89625 4.1875 13.8125 C5.16005801 9.24895859 6.51976406 8.00565832 10 5 C10.886875 4.071875 11.77375 3.14375 12.6875 2.1875 C15 0 15 0 17 0 C16.67 3.96 16.34 7.92 16 12 C13.525 11.505 13.525 11.505 11 11 C9.70366379 12.06645115 9.70366379 12.06645115 9.9375 14.5625 C9.958125 15.366875 9.97875 16.17125 10 17 C10.99 17.33 11.98 17.66 13 18 C13.99 17.34 14.98 16.68 16 16 C20 20.75 20 20.75 20 23 C16.64047644 24.11984119 14.33089543 24.028066 10.80078125 23.87890625 C9.59228516 23.83056641 8.38378906 23.78222656 7.13867188 23.73242188 C5.87603516 23.67634766 4.61339844 23.62027344 3.3125 23.5625 C2.03826172 23.51029297 0.76402344 23.45808594 -0.54882812 23.40429688 C-3.69942725 23.27449691 -6.84974458 23.13788997 -10 23 C-10 18.71 -10 14.42 -10 10 C-10.66 10 -11.32 10 -12 10 C-12 13.96 -12 17.92 -12 22 C-13.65 22.33 -15.3 22.66 -17 23 C-17 18.71 -17 14.42 -17 10 C-17.99 10.495 -17.99 10.495 -19 11 C-19.46898963 13.8159849 -19.46898963 13.8159849 -19.625 17.0625 C-19.74875 19.021875 -19.8725 20.98125 -20 23 C-27.26 23 -34.52 23 -42 23 C-40.77256318 10.72563177 -40.77256318 10.72563177 -38 7 C-30.77188329 2 -30.77188329 2 -27 2 C-27 6.95 -27 11.9 -27 17 C-26.01 17 -25.02 17 -24 17 C-24.05800781 16.34773438 -24.11601563 15.69546875 -24.17578125 15.0234375 C-24.59016895 6.99615573 -24.59016895 6.99615573 -21.5 3.375 C-20.675 2.59125 -19.85 1.8075 -19 1 C-16.525 2.485 -16.525 2.485 -14 4 C-13.34 3.01 -12.68 2.02 -12 1 C-11.34 1 -10.68 1 -10 1 C-5.17010286 6.41533922 -4.88605431 10.04931309 -5 17 C-4.34 17 -3.68 17 -3 17 C-3.10699219 16.32453125 -3.21398437 15.6490625 -3.32421875 14.953125 C-3.44410156 14.06109375 -3.56398437 13.1690625 -3.6875 12.25 C-3.81511719 11.36828125 -3.94273438 10.4865625 -4.07421875 9.578125 C-3.98271548 6.39959021 -3.02286366 5.37748915 -1 3 C-0.67 2.01 -0.34 1.02 0 0 Z M-33 11 C-34.56249809 12.31201173 -34.56249809 12.31201173 -36 14 C-36 14.99 -36 15.98 -36 17 C-34.68 17 -33.36 17 -32 17 C-31.67 15.35 -31.34 13.7 -31 12 C-31.66 11.67 -32.32 11.34 -33 11 Z " fill="#44A55C" transform="translate(95,59)"/>
<path d="M0 0 C0.226875 0.61875 0.45375 1.2375 0.6875 1.875 C2.37929835 4.61410209 3.99244161 5.05024472 7 6 C6.649375 6.556875 6.29875 7.11375 5.9375 7.6875 C4.75591887 10.6020668 4.99067254 12.04965818 6 15 C6.99 15.66 7.98 16.32 9 17 C9.34057617 20.02514648 9.34057617 20.02514648 9.29296875 23.87109375 C9.28872391 24.54922623 9.28447906 25.2273587 9.28010559 25.92604065 C9.2632995 28.09692894 9.22568194 30.26689256 9.1875 32.4375 C9.17245239 33.89647083 9.15876411 35.35545637 9.14648438 36.81445312 C9.11232705 40.54322759 9.05626955 44.27149301 9 48 C9 48.99 9 49.98 9 51 C8.68911632 52.67099977 8.35919668 54.33871537 8 56 C5.00667261 55.0022242 4.05233685 54.2477975 2 52 C0.61455564 53.17204956 0.61455564 53.17204956 0.6875 56.4375 C0.3471875 58.2009375 0.3471875 58.2009375 0 60 C-2.04296875 61.22265625 -2.04296875 61.22265625 -4 62 C-4.05410687 60.22950311 -4.09284119 58.45853151 -4.125 56.6875 C-4.14820313 55.70136719 -4.17140625 54.71523438 -4.1953125 53.69921875 C-4 51 -4 51 -2 48 C-2.66 48 -3.32 48 -4 48 C-4 42.66666667 -4 37.33333333 -4 32 C-4.05220703 30.39125 -4.05220703 30.39125 -4.10546875 28.75 C-4.13253906 27.5125 -4.15960938 26.275 -4.1875 25 C-4.22230469 23.7625 -4.25710937 22.525 -4.29296875 21.25 C-4 18 -4 18 -2.61328125 16.0625 C-1 15 -1 15 1 15 C0.81535634 10.65815798 0.81535634 10.65815798 -1 7 C-1.125 4 -1.125 4 -1 1 C-0.67 0.67 -0.34 0.34 0 0 Z M2 19 C1.01 19.495 1.01 19.495 0 20 C0 22.97 0 25.94 0 29 C1.65614657 29.38218767 3.32457024 29.71395102 5 30 C6.20561184 29.01732141 6.20561184 29.01732141 6.09765625 27.15234375 C6.08605469 26.42144531 6.07445313 25.69054687 6.0625 24.9375 C6.041875 23.638125 6.02125 22.33875 6 21 C4.11683841 19.89163577 4.11683841 19.89163577 2 19 Z M2 35 C-0.21370051 36.78657757 -0.21370051 36.78657757 -0.1953125 39.1640625 C-0.17210937 39.97617187 -0.14890625 40.78828125 -0.125 41.625 C-0.10695312 42.44226562 -0.08890625 43.25953125 -0.0703125 44.1015625 C-0.04710937 44.72804688 -0.02390625 45.35453125 0 46 C1.89179203 46.6814823 1.89179203 46.6814823 4 47 C6.18331689 45.23863645 6.18331689 45.23863645 6.1953125 43.0546875 C6.17210938 42.33539063 6.14890625 41.61609375 6.125 40.875 C6.08375 39.59625 6.0425 38.3175 6 37 C4.68 36.34 3.36 35.68 2 35 Z " fill="#D5C1A5" transform="translate(59,4)"/>
<path d="M0 0 C0.66 0.33 1.32 0.66 2 1 C2.00808685 1.71552536 2.01617371 2.43105072 2.02450562 3.16825867 C2.10254595 9.92156119 2.18986491 16.67467315 2.28752708 23.42772198 C2.33740742 26.89928401 2.3837378 30.37081683 2.421875 33.8425293 C2.46590781 37.83661816 2.52552492 41.83034381 2.5859375 45.82421875 C2.59748871 47.06709152 2.60903992 48.30996429 2.62094116 49.59049988 C2.64081085 50.75132584 2.66068054 51.91215179 2.68115234 53.1081543 C2.69447601 54.12741501 2.70779968 55.14667572 2.7215271 56.19682312 C3.0127653 59.1284987 3.77459995 61.33462611 5 64 C3.35 64 1.7 64 0 64 C-3.05310428 58.08442033 -3.45369784 53.17687897 -3.4765625 46.578125 C-3.49214203 45.59632263 -3.50772156 44.61452026 -3.52377319 43.60296631 C-3.57106855 40.48531831 -3.59898947 37.3678919 -3.625 34.25 C-3.661525 31.11798151 -3.70213505 27.98608768 -3.74765015 24.85418701 C-3.77481838 22.90996623 -3.79619492 20.96565406 -3.81118774 19.02130127 C-3.82658096 17.70413116 -3.82658096 17.70413116 -3.84228516 16.36035156 C-3.84878082 15.58870667 -3.85527649 14.81706177 -3.86196899 14.02203369 C-3.92907592 11.79463308 -3.92907592 11.79463308 -5 9 C-4.2578125 7.24609375 -4.2578125 7.24609375 -3.125 5.4375 C-2.75632813 4.83808594 -2.38765625 4.23867188 -2.0078125 3.62109375 C-1.67523438 3.08613281 -1.34265625 2.55117188 -1 2 C-0.67 1.34 -0.34 0.68 0 0 Z " fill="#2AAF42" transform="translate(49,29)"/>
<path d="M0 0 C0.66 0 1.32 0 2 0 C2 17.16 2 34.32 2 52 C-2.95 52 -7.9 52 -13 52 C-13 51.34 -13 50.68 -13 50 C-11.25 48.4921875 -11.25 48.4921875 -9 46.875 C-8.2575 46.33617187 -7.515 45.79734375 -6.75 45.2421875 C-6.1725 44.83226562 -5.595 44.42234375 -5 44 C-4.67 44.33 -4.34 44.66 -4 45 C-4 43.99098633 -4 42.98197266 -4 41.94238281 C-4 6.5 -4 6.5 0 0 Z " fill="#45A45D" transform="translate(27,30)"/>
<path d="M0 0 C3.75 0.1875 3.75 0.1875 6.5 0.75 C10.51870598 1.29097965 14.15391695 0.83799763 18.1640625 0.34375 C20.69494783 0.19082642 22.32570095 0.57429495 24.75 1.1875 C26.504132 1.10510895 28.25611925 0.95651219 30 0.75 C30.89203125 0.64816406 31.7840625 0.54632813 32.703125 0.44140625 C33.71632813 0.31572266 33.71632813 0.31572266 34.75 0.1875 C34.42 1.8375 34.09 3.4875 33.75 5.1875 C32.43 5.5175 31.11 5.8475 29.75 6.1875 C29.75 6.8475 29.75 7.5075 29.75 8.1875 C28.86223877 8.1153125 27.97447754 8.043125 27.05981445 7.96875 C17.33033819 7.24079282 7.69010805 7.09310905 -2.0625 7.1875 C-4.90233907 7.21410864 -7.74211511 7.23399436 -10.58203125 7.25 C-12.43405151 7.26740234 -12.43405151 7.26740234 -14.32348633 7.28515625 C-17.25 7.1875 -17.25 7.1875 -19.25 6.1875 C-19.25 5.5275 -19.25 4.8675 -19.25 4.1875 C-18.59 4.1875 -17.93 4.1875 -17.25 4.1875 C-16.92 3.5275 -16.59 2.8675 -16.25 2.1875 C-16.25 2.8475 -16.25 3.5075 -16.25 4.1875 C-14.6 3.1975 -12.95 2.2075 -11.25 1.1875 C-11.25 2.8375 -11.25 4.4875 -11.25 6.1875 C-9.6 6.1875 -7.95 6.1875 -6.25 6.1875 C-6.12625 5.56875 -6.0025 4.95 -5.875 4.3125 C-4.80418915 0.67174312 -3.75348243 0.21654706 0 0 Z " fill="#3FA058" transform="translate(82.25,109.8125)"/>
<path d="M0 0 C0.33 0 0.66 0 1 0 C1.33 1.98 1.66 3.96 2 6 C3.32 6.33 4.64 6.66 6 7 C5.34 9.64 4.68 12.28 4 15 C4.70125 15.226875 5.4025 15.45375 6.125 15.6875 C10.46697548 17.6697062 13.85355212 19.75843772 16.046875 24.046875 C17.90945878 29.14262307 18.29415877 33.60708921 18 39 C16.02 39.495 16.02 39.495 14 40 C13.91363281 39.11957031 13.82726562 38.23914063 13.73828125 37.33203125 C12.97815372 30.13949054 12.97815372 30.13949054 9.6875 23.875 C7.17695552 22.12345734 4.6909286 20.46078981 2 19 C-3.63171309 22.45582394 -7.22357348 25.25967109 -9.0625 31.75 C-9.371875 32.8225 -9.68125 33.895 -10 35 C-11.485 35.495 -11.485 35.495 -13 36 C-13.28964714 30.40015522 -13.25675521 26.78335922 -10 22 C-7.48610926 19.46554573 -4.90268448 17.08303048 -2 15 C-1.34 15 -0.68 15 0 15 C0.20086443 11.28400809 0.1519437 10.22791555 -2 7 C-1.44444444 1.44444444 -1.44444444 1.44444444 0 0 Z " fill="#DCC5A6" transform="translate(85,26)"/>
<path d="M0 0 C3.8225233 1.27417443 4.86320715 2.61060444 7 6 C7.25 9.8125 7.25 9.8125 7 13 C5.35 12.67 3.7 12.34 2 12 C2 11.01 2 10.02 2 9 C1.34 9 0.68 9 0 9 C0 11.31 0 13.62 0 16 C2.31 16 4.62 16 7 16 C7.55528005 26.59145274 7.55528005 26.59145274 4 31 C3 32 3 32 0.71484375 32.09765625 C-0.65994141 32.08025391 -0.65994141 32.08025391 -2.0625 32.0625 C-2.98160156 32.05347656 -3.90070312 32.04445312 -4.84765625 32.03515625 C-5.55792969 32.02355469 -6.26820312 32.01195312 -7 32 C-5.25 29 -5.25 29 -3 26 C-1.68 26 -0.36 26 1 26 C1.33 24.68 1.66 23.36 2 22 C-0.31 22 -2.62 22 -5 22 C-5.86140345 7.1264337 -5.86140345 7.1264337 -2.5 2.5625 C-1.675 1.716875 -0.85 0.87125 0 0 Z " fill="#43A45B" transform="translate(36,60)"/>
<path d="M0 0 C1.32 0 2.64 0 4 0 C4.33 1.98 4.66 3.96 5 6 C5.66 4.02 6.32 2.04 7 0 C8.32 0 9.64 0 11 0 C11.66 1.98 12.32 3.96 13 6 C13.66 4.02 14.32 2.04 15 0 C15.99 0 16.98 0 18 0 C17.59060025 6.76215448 16.43046191 12.67162748 14 19 C13.01 19 12.02 19 11 19 C10.34 16.69 9.68 14.38 9 12 C8.34 14.31 7.68 16.62 7 19 C5.68 18.67 4.36 18.34 3 18 C2.49490792 15.75113762 1.99610821 13.50086131 1.5 11.25 C1.2215625 9.99703125 0.943125 8.7440625 0.65625 7.453125 C0 4 0 4 0 0 Z " fill="#BCAE9F" transform="translate(57,87)"/>
<path d="M0 0 C1.32 0.33 2.64 0.66 4 1 C4 1.99 4 2.98 4 4 C4.66 4 5.32 4 6 4 C6 4.99 6 5.98 6 7 C5.34 7 4.68 7 4 7 C4 9.64 4 12.28 4 15 C4.66 15 5.32 15 6 15 C6 16.32 6 17.64 6 19 C1.125 18.125 1.125 18.125 0 17 C-0.36442233 15.33985384 -0.69972883 13.67293936 -1 12 C-1.309375 12.969375 -1.61875 13.93875 -1.9375 14.9375 C-3 18 -3 18 -4 19 C-8.36928839 19.45992509 -8.36928839 19.45992509 -10.64453125 17.80078125 C-12.44216574 15.41256943 -12.3691943 13.89868677 -12.3125 10.9375 C-12.30863281 10.05964844 -12.30476563 9.18179688 -12.30078125 8.27734375 C-12 6 -12 6 -10 4 C-7.125 3.875 -7.125 3.875 -4 4 C-2.68 4 -1.36 4 0 4 C0 2.68 0 1.36 0 0 Z M-8 13 C-8 13.66 -8 14.32 -8 15 C-7.01 14.67 -6.02 14.34 -5 14 C-5.99 13.67 -6.98 13.34 -8 13 Z " fill="#B9AB9C" transform="translate(109,87)"/>
<path d="M0 0 C0.99 0.33 1.98 0.66 3 1 C2.34 1 1.68 1 1 1 C1.11409593 2.45922693 1.24165544 3.91740598 1.375 5.375 C1.44460937 6.18710937 1.51421875 6.99921875 1.5859375 7.8359375 C1.82892588 10.20334191 1.82892588 10.20334191 4 12 C4 12.99 4 13.98 4 15 C4.99 15.33 5.98 15.66 7 16 C5.35 16.66 3.7 17.32 2 18 C2 20.97 2 23.94 2 27 C3.32 27.33 4.64 27.66 6 28 C7.8125 30.375 7.8125 30.375 9 33 C8.67 33.99 8.34 34.98 8 36 C6 36 6 36 4.375 34.5 C3.92125 34.005 3.4675 33.51 3 33 C1.61455564 34.17204956 1.61455564 34.17204956 1.6875 37.4375 C1.3471875 39.2009375 1.3471875 39.2009375 1 41 C-1.04296875 42.22265625 -1.04296875 42.22265625 -3 43 C-3.05410687 41.22950311 -3.09284119 39.45853151 -3.125 37.6875 C-3.14820313 36.70136719 -3.17140625 35.71523438 -3.1953125 34.69921875 C-3 32 -3 32 -1 29 C-1.66 29 -2.32 29 -3 29 C-3 12.24137931 -3 12.24137931 -2.625 6.875 C-2.55539063 5.79992187 -2.48578125 4.72484375 -2.4140625 3.6171875 C-2.27742188 2.75351562 -2.14078125 1.88984375 -2 1 C-1.34 0.67 -0.68 0.34 0 0 Z " fill="#DDC29E" transform="translate(58,23)"/>
<path d="M0 0 C0 4.95 0 9.9 0 15 C0.99 15 1.98 15 3 15 C3 12.36 3 9.72 3 7 C3.33 7 3.66 7 4 7 C4.08090971 8.62418745 4.13914995 10.24951745 4.1875 11.875 C4.23970703 13.23238281 4.23970703 13.23238281 4.29296875 14.6171875 C4.19628906 15.40351562 4.09960938 16.18984375 4 17 C0.23491505 19.51005664 -2.39461609 19.0258295 -6.6875 18.625 C-7.38939453 18.56828125 -8.09128906 18.5115625 -8.81445312 18.453125 C-10.54380285 18.31195359 -12.27204088 18.15728041 -14 18 C-15.43656008 13.69031975 -13.94445992 10.96926942 -12 7 C-9.12737434 3.33492588 -4.84399912 0 0 0 Z M-6 9 C-7.56249809 10.31201173 -7.56249809 10.31201173 -9 12 C-9 12.99 -9 13.98 -9 15 C-7.68 15 -6.36 15 -5 15 C-4.67 13.35 -4.34 11.7 -4 10 C-4.66 9.67 -5.32 9.34 -6 9 Z " fill="#40A259" transform="translate(68,61)"/>
<path d="M0 0 C0.33 0 0.66 0 1 0 C1.125 2.875 1.125 2.875 1 6 C-1 8 -1 8 -2.80783272 8.24609566 C-3.91121892 8.24333028 -3.91121892 8.24333028 -5.03689575 8.24050903 C-5.88106049 8.24325836 -6.72522522 8.24600769 -7.5949707 8.24884033 C-8.522854 8.24164978 -9.4507373 8.23445923 -10.40673828 8.22705078 C-11.38238739 8.22734283 -12.3580365 8.22763489 -13.36325073 8.22793579 C-16.59902741 8.22653868 -19.83457588 8.21095951 -23.0703125 8.1953125 C-25.30947748 8.19158373 -27.54864409 8.18873612 -29.78781128 8.18673706 C-35.6897632 8.17908992 -41.59161714 8.15943215 -47.49353027 8.1373291 C-53.51260045 8.11689392 -59.53168641 8.10774033 -65.55078125 8.09765625 C-77.36723062 8.07618729 -89.18360717 8.04203833 -101 8 C-101.33 7.34 -101.66 6.68 -102 6 C-100.57299271 6.00333092 -100.57299271 6.00333092 -99.11715698 6.00672913 C-90.14218004 6.02701995 -81.16720776 6.04200077 -72.19221306 6.05181217 C-67.57832761 6.0570259 -62.96446071 6.06409612 -58.35058594 6.07543945 C-53.8961481 6.086322 -49.44172809 6.09228822 -44.98727798 6.09487724 C-43.28967127 6.09672182 -41.59206551 6.10032379 -39.8944664 6.10573006 C-37.51279356 6.11301173 -35.13119393 6.11398794 -32.74951172 6.11352539 C-32.05107651 6.11712067 -31.3526413 6.12071594 -30.63304138 6.12442017 C-26.64249019 6.11605962 -22.92471551 5.67469485 -19 5 C-16.53256521 5.229836 -14.07184824 5.54508094 -11.625 5.9375 C-9.75714844 6.22947266 -9.75714844 6.22947266 -7.8515625 6.52734375 C-6.91054687 6.68332031 -5.96953125 6.83929688 -5 7 C-5 6.34 -5 5.68 -5 5 C-4.360625 4.731875 -3.72125 4.46375 -3.0625 4.1875 C-0.66868314 3.11332248 -0.66868314 3.11332248 0 0 Z " fill="#4D9A63" transform="translate(117,111)"/>
<path d="M0 0 C0.66 0 1.32 0 2 0 C2 13.2 2 26.4 2 40 C0.515 40.495 0.515 40.495 -1 41 C-1.01458252 40.13197754 -1.02916504 39.26395508 -1.04418945 38.36962891 C-1.10520111 35.15261121 -1.17934391 31.93624337 -1.26245117 28.71972656 C-1.29572873 27.32693911 -1.32375197 25.93401589 -1.34643555 24.54101562 C-1.37992689 22.54008622 -1.43381305 20.53953079 -1.48828125 18.5390625 C-1.51446533 17.33459473 -1.54064941 16.13012695 -1.56762695 14.88916016 C-1.71031006 13.9357373 -1.85299316 12.98231445 -2 12 C-2.99 11.34 -3.98 10.68 -5 10 C-3.66749209 6.4124787 -2.169283 3.1635377 0 0 Z " fill="#46A762" transform="translate(27,30)"/>
<path d="M0 0 C3.625 -0.1875 3.625 -0.1875 7 0 C8.38226016 2.76452033 8.09525387 5.0461363 8.0625 8.125 C8.05347656 9.22070312 8.04445313 10.31640625 8.03515625 11.4453125 C8.02355469 12.28835937 8.01195313 13.13140625 8 14 C4.61468294 14.96723345 2.42933756 14.92684799 -1 14 C-2.65653686 12.34346314 -2.17106165 10.39349204 -2.1875 8.125 C-2.20167969 7.24070312 -2.21585937 6.35640625 -2.23046875 5.4453125 C-2 3 -2 3 0 0 Z M3 3 C2.67 3.66 2.34 4.32 2 5 C2.66 5 3.32 5 4 5 C3.67 4.34 3.34 3.68 3 3 Z M2 9 C2.33 9.66 2.66 10.32 3 11 C3.33 10.34 3.66 9.68 4 9 C3.34 9 2.68 9 2 9 Z " fill="#BBAD9D" transform="translate(77,91)"/>
<path d="M0 0 C0.33 0 0.66 0 1 0 C1.33 1.98 1.66 3.96 2 6 C3.32 6.33 4.64 6.66 6 7 C5.34 9.64 4.68 12.28 4 15 C6.475 15.99 6.475 15.99 9 17 C8.67 18.32 8.34 19.64 8 21 C7.05125 20.67 6.1025 20.34 5.125 20 C2.22937548 18.89840809 2.22937548 18.89840809 0 19 C0.03480469 18.07767578 0.03480469 18.07767578 0.0703125 17.13671875 C0.08835937 16.32847656 0.10640625 15.52023438 0.125 14.6875 C0.15980469 13.48673828 0.15980469 13.48673828 0.1953125 12.26171875 C0.15817322 9.71611424 0.15817322 9.71611424 -2 7 C-1.44444444 1.44444444 -1.44444444 1.44444444 0 0 Z " fill="#D5C19F" transform="translate(85,26)"/>
<path d="M0 0 C0.66 0.33 1.32 0.66 2 1 C1.84402344 1.87011719 1.68804687 2.74023438 1.52734375 3.63671875 C0.49043582 10.87320624 0.63798569 18.27203685 0.48242188 25.56835938 C0.44826172 26.74849609 0.41410156 27.92863281 0.37890625 29.14453125 C0.34132202 30.75871948 0.34132202 30.75871948 0.30297852 32.40551758 C0 35 0 35 -2 37 C-2.02505615 36.23333008 -2.0501123 35.46666016 -2.07592773 34.67675781 C-2.19201423 31.20100717 -2.31468366 27.72551908 -2.4375 24.25 C-2.47681641 23.0434375 -2.51613281 21.836875 -2.55664062 20.59375 C-2.59853516 19.43359375 -2.64042969 18.2734375 -2.68359375 17.078125 C-2.72025146 16.00981445 -2.75690918 14.94150391 -2.79467773 13.84082031 C-2.90242687 11.07604806 -2.90242687 11.07604806 -3.60571289 8.78417969 C-4 7 -4 7 -2.625 4.375 C-2.08875 3.59125 -1.5525 2.8075 -1 2 C-0.67 1.34 -0.34 0.68 0 0 Z " fill="#3DA955" transform="translate(49,29)"/>
<path d="M0 0 C1.32 0 2.64 0 4 0 C4 6.27 4 12.54 4 19 C2.68 19.33 1.36 19.66 0 20 C0 13.4 0 6.8 0 0 Z " fill="#B6A99B" transform="translate(92,86)"/>
<path d="M0 0 C0.66 0 1.32 0 2 0 C1.67 3.96 1.34 7.92 1 12 C-0.65 11.67 -2.3 11.34 -4 11 C-4.99 11.66 -5.98 12.32 -7 13 C-7 12.34 -7 11.68 -7 11 C-7.99 11.33 -8.98 11.66 -10 12 C-8.78784328 7.2860572 -6.47623687 5.61373123 -2.55859375 3.11328125 C-0.83950206 2.06891055 -0.83950206 2.06891055 0 0 Z " fill="#3DA451" transform="translate(110,59)"/>
<path d="M0 0 C0.99 0.495 0.99 0.495 2 1 C2.21686645 5.37758788 2.41375794 9.7554762 2.59204102 14.13476562 C2.65553821 15.62491962 2.72452491 17.11485011 2.79907227 18.60449219 C2.90518271 20.74379266 2.99163253 22.88311605 3.07421875 25.0234375 C3.13182373 26.31169434 3.18942871 27.59995117 3.2487793 28.92724609 C3.16668213 29.94125488 3.08458496 30.95526367 3 32 C2.01 32.66 1.02 33.32 0 34 C0 22.78 0 11.56 0 0 Z " fill="#539B66" transform="translate(24,41)"/>
<path d="M0 0 C0.33 0 0.66 0 1 0 C1.08090971 1.62418745 1.13914995 3.24951745 1.1875 4.875 C1.22230469 5.77992187 1.25710937 6.68484375 1.29296875 7.6171875 C1.19628906 8.40351562 1.09960938 9.18984375 1 10 C-2.22791555 12.1519437 -3.28400809 12.20086443 -7 12 C-7 11.34 -7 10.68 -7 10 C-8.98 10 -10.96 10 -13 10 C-13 9.34 -13 8.68 -13 8 C-11.35 8 -9.7 8 -8 8 C-8 6.02 -8 4.04 -8 2 C-7.34 2 -6.68 2 -6 2 C-5.67 2.66 -5.34 3.32 -5 4 C-4.34 4 -3.68 4 -3 4 C-3 5.32 -3 6.64 -3 8 C-2.01 8 -1.02 8 0 8 C0 5.36 0 2.72 0 0 Z " fill="#30A548" transform="translate(71,68)"/>
<path d="M0 0 C0.99 0.33 1.98 0.66 3 1 C2.34 1 1.68 1 1 1 C1.11409593 2.45922693 1.24165544 3.91740598 1.375 5.375 C1.44460937 6.18710937 1.51421875 6.99921875 1.5859375 7.8359375 C1.82892588 10.20334191 1.82892588 10.20334191 4 12 C4 12.99 4 13.98 4 15 C4.99 15.33 5.98 15.66 7 16 C5.02 16.66 3.04 17.32 1 18 C-2.27410045 13.72943419 -3.16133497 11.86184954 -2.6875 6.4375 C-2.60886719 5.44621094 -2.53023437 4.45492188 -2.44921875 3.43359375 C-2.30097656 2.63050781 -2.15273438 1.82742187 -2 1 C-1.34 0.67 -0.68 0.34 0 0 Z " fill="#E3C9A3" transform="translate(58,23)"/>
<path d="M0 0 C0.99 0 1.98 0 3 0 C3 6.6 3 13.2 3 20 C2.01 20 1.02 20 0 20 C0 13.4 0 6.8 0 0 Z " fill="#BCAB9A" transform="translate(87,86)"/>
<path d="M0 0 C0.99 0 1.98 0 3 0 C3 0.66 3 1.32 3 2 C9.27 2.33 15.54 2.66 22 3 C22 3.66 22 4.32 22 5 C14.74 5 7.48 5 0 5 C0 3.35 0 1.7 0 0 Z " fill="#57AE6D" transform="translate(53,77)"/>
<path d="M0 0 C0.99 0 1.98 0 3 0 C3 1.32 3 2.64 3 4 C3.66 4 4.32 4 5 4 C5 6.31 5 8.62 5 11 C3.35 11.33 1.7 11.66 0 12 C0 8.04 0 4.08 0 0 Z " fill="#4EA361" transform="translate(78,70)"/>
<path d="M0 0 C0.66 0 1.32 0 2 0 C5.11997802 3.30350614 6 4.32409833 6 9 C5.34 9 4.68 9 4 9 C3.67 12.96 3.34 16.92 3 21 C2.67 21 2.34 21 2 21 C1.93941406 20.10796875 1.87882812 19.2159375 1.81640625 18.296875 C1.73261719 17.12640625 1.64882812 15.9559375 1.5625 14.75 C1.48128906 13.58984375 1.40007812 12.4296875 1.31640625 11.234375 C0.96626327 7.54457711 0.96626327 7.54457711 0 4 C-0.66 3.67 -1.32 3.34 -2 3 C-1.34 2.01 -0.68 1.02 0 0 Z " fill="#3C9A51" transform="translate(83,60)"/>
<path d="M0 0 C1.70884005 1.62339805 3.37446717 3.29319053 5 5 C5 5.66 5 6.32 5 7 C1.52674819 8.1577506 -1.36067448 8.06866652 -5 8 C-4.67 7.34 -4.34 6.68 -4 6 C-3.34 6 -2.68 6 -2 6 C-2 5.34 -2 4.68 -2 4 C-2.99 4 -3.98 4 -5 4 C-5 3.34 -5 2.68 -5 2 C-4.360625 1.855625 -3.72125 1.71125 -3.0625 1.5625 C-1.02454854 1.18992819 -1.02454854 1.18992819 0 0 Z " fill="#419F55" transform="translate(110,75)"/>
<path d="M0 0 C0.66 0.33 1.32 0.66 2 1 C2.33 0.67 2.66 0.34 3 0 C4 3 4 3 3 6 C2.34 6 1.68 6 1 6 C-0.01111093 9.04913228 -0.01111093 9.04913228 1 12 C-0.32 11.34 -1.64 10.68 -3 10 C-3.36923077 4.58461538 -3.36923077 4.58461538 -1.5 1.625 C-1.005 1.08875 -0.51 0.5525 0 0 Z " fill="#B1A393" transform="translate(78,94)"/>
<path d="M0 0 C0.66 0 1.32 0 2 0 C2 1.65 2 3.3 2 5 C2.99 5 3.98 5 5 5 C4.67 6.65 4.34 8.3 4 10 C3.34 10 2.68 10 2 10 C1.34 10.66 0.68 11.32 0 12 C-1.85274014 8.87350101 -2.37198336 6.62683775 -2 3 C-1.34 2.01 -0.68 1.02 0 0 Z " fill="#B7A493" transform="translate(67,90)"/>
<path d="M0 0 C0.66 0.66 1.32 1.32 2 2 C1.46428571 5.53571429 1.46428571 5.53571429 0 7 C-1.66617115 7.04063832 -3.33388095 7.042721 -5 7 C-5.33 5.68 -5.66 4.36 -6 3 C-5.195625 2.690625 -4.39125 2.38125 -3.5625 2.0625 C-1.10919595 1.23664655 -1.10919595 1.23664655 0 0 Z " fill="#B7A89B" transform="translate(105,99)"/>
<path d="M0 0 C0 1.65 0 3.3 0 5 C2.31 5.33 4.62 5.66 7 6 C7 6.33 7 6.66 7 7 C2.38 7 -2.24 7 -7 7 C-7 6.34 -7 5.68 -7 5 C-1.4047619 0 -1.4047619 0 0 0 Z " fill="#58A26D" transform="translate(21,75)"/>
<path d="M0 0 C0.33 1.98 0.66 3.96 1 6 C0.34 6 -0.32 6 -1 6 C-1 7.65 -1 9.3 -1 11 C-1.66 11 -2.32 11 -3 11 C-3.33 8.03 -3.66 5.06 -4 2 C-1 0 -1 0 0 0 Z " fill="#3BAE52" transform="translate(84,63)"/>
<path d="M0 0 C0.99 0.66 1.98 1.32 3 2 C2.34 3.32 1.68 4.64 1 6 C-0.32 6 -1.64 6 -3 6 C-3 6.66 -3 7.32 -3 8 C-3.66 8 -4.32 8 -5 8 C-3.8141763 4.62496331 -2.72426311 2.35277269 0 0 Z " fill="#439B59" transform="translate(76,60)"/>
<path d="M0 0 C0.66 0 1.32 0 2 0 C1.67 2.31 1.34 4.62 1 7 C-0.65 7.33 -2.3 7.66 -4 8 C-3.34 7.67 -2.68 7.34 -2 7 C-2.33 6.01 -2.66 5.02 -3 4 C-1.6875 1.8125 -1.6875 1.8125 0 0 Z M-5 5 C-3 6 -3 6 -3 6 Z " fill="#45995D" transform="translate(110,59)"/>
<path d="M0 0 C0.66 0 1.32 0 2 0 C2.93423645 3.01031744 3.04449911 3.86650268 2 7 C0.68 7 -0.64 7 -2 7 C-2.125 4.625 -2.125 4.625 -2 2 C-1.34 1.34 -0.68 0.68 0 0 Z " fill="#33A457" transform="translate(17,109)"/>
<path d="M0 0 C1.65 0 3.3 0 5 0 C5.66 1.65 6.32 3.3 7 5 C5.35 5 3.7 5 2 5 C1.34 3.35 0.68 1.7 0 0 Z " fill="#439B5F" transform="translate(47,88)"/>
<path d="M0 0 C3 3 3 3 3.07421875 6.57421875 C2.96149977 7.94673808 2.83199844 9.31796172 2.6875 10.6875 C2.62626953 11.38939453 2.56503906 12.09128906 2.50195312 12.81445312 C2.34897376 14.5442967 2.17637398 16.27238497 2 18 C1.67 18 1.34 18 1 18 C0.67 12.06 0.34 6.12 0 0 Z " fill="#2D9948" transform="translate(84,63)"/>
<path d="M0 0 C0.66 0 1.32 0 2 0 C2.625 2.375 2.625 2.375 3 5 C2.34 5.66 1.68 6.32 1 7 C-1.125 6.625 -1.125 6.625 -3 6 C-3 5.34 -3 4.68 -3 4 C-2.34 3.67 -1.68 3.34 -1 3 C-0.67 2.01 -0.34 1.02 0 0 Z " fill="#C2B4A3" transform="translate(105,94)"/>
<path d="M0 0 C0.99 0 1.98 0 3 0 C2.67 2.97 2.34 5.94 2 9 C1.01 8.34 0.02 7.68 -1 7 C-0.67 4.69 -0.34 2.38 0 0 Z " fill="#C4BDAB" transform="translate(109,87)"/>
<path d="M0 0 C0.99 0.33 1.98 0.66 3 1 C3.8125 2.875 3.8125 2.875 4 5 C3.01 6.485 3.01 6.485 2 8 C1.34 8 0.68 8 0 8 C0 5.36 0 2.72 0 0 Z " fill="#DAD0B4" transform="translate(72,54)"/>
<path d="M0 0 C3.33333333 0 6.66666667 0 10 0 C10 0.99 10 1.98 10 3 C6.50765756 3.09978121 3.40562852 2.77842938 0 2 C0 1.34 0 0.68 0 0 Z " fill="#B1A892" transform="translate(99,91)"/>
<path d="M0 0 C0.99 0.33 1.98 0.66 3 1 C3 1.66 3 2.32 3 3 C2.01 3 1.02 3 0 3 C-0.66 4.32 -1.32 5.64 -2 7 C-2.66 7 -3.32 7 -4 7 C-2.79618552 4.50638429 -1.54571278 2.31856917 0 0 Z " fill="#3E9E52" transform="translate(36,60)"/>
<path d="M0 0 C1 2 2 4 3 6 C2.34 6 1.68 6 1 6 C0.67 6.66 0.34 7.32 0 8 C-1 7 -1 7 -1.125 4 C-1 1 -1 1 0 0 Z " fill="#D3C6AC" transform="translate(59,4)"/>
</svg>
