<?xml version="1.0" encoding="UTF-8"?>
<svg version="1.1" xmlns="http://www.w3.org/2000/svg" width="103" height="65" viewBox="13.971 33 103.029 65.214">
<path d="M0 0 C3.77677043 2.83257782 5.59049458 5.51521002 7 10 C7.474375 9.030625 7.94875 8.06125 8.4375 7.0625 C11 4 11 4 13.12890625 3.44921875 C14.67640304 3.31919843 16.22862841 3.23502818 17.78125 3.203125 C20.30115179 2.97242977 21.86019217 2.33268733 24 1 C24.33 0.34 24.66 -0.32 25 -1 C28.34373475 -0.44271087 31.03312999 0.35173889 34 2 C34.99 1.34 35.98 0.68 37 0 C37.99 0 38.98 0 40 0 C39.30912783 3.9332133 38.61528538 7.86588988 37.91870117 11.7980957 C37.68220892 13.13551692 37.446525 14.47308134 37.21166992 15.81079102 C36.87371594 17.73491378 36.53260161 19.65848062 36.19140625 21.58203125 C35.98717041 22.73936768 35.78293457 23.8967041 35.57250977 25.08911133 C35 28 35 28 34 31 C33.01 31 32.02 31 31 31 C30.34 30.01 29.68 29.02 29 28 C28.175 28.495 27.35 28.99 26.5 29.5 C21.14653871 31.79434055 17.12749489 31.80282826 11.6875 29.75 C7.56298151 27.06426703 6.07171303 24.70963799 5 20 C4.46890625 20.62648438 3.9378125 21.25296875 3.390625 21.8984375 C2.68421875 22.71570313 1.9778125 23.53296875 1.25 24.375 C0.20585938 25.59316406 0.20585938 25.59316406 -0.859375 26.8359375 C-3.52461313 29.53035707 -5.43380865 30.83731463 -9.21875 31.23046875 C-9.9715625 31.21628906 -10.724375 31.20210937 -11.5 31.1875 C-12.2528125 31.18105469 -13.005625 31.17460938 -13.78125 31.16796875 C-15.95990143 31.00303563 -17.90204811 30.59600906 -20 30 C-20.06058594 30.69867188 -20.12117188 31.39734375 -20.18359375 32.1171875 C-20.26738281 33.02726562 -20.35117187 33.93734375 -20.4375 34.875 C-20.51871094 35.77992187 -20.59992187 36.68484375 -20.68359375 37.6171875 C-21 40 -21 40 -22 42 C-24.64 42 -27.28 42 -30 42 C-30.17167116 36.65673512 -29.56475056 31.88154935 -28.46875 26.66015625 C-28.31337769 25.89319931 -28.15800537 25.12624237 -27.9979248 24.33604431 C-27.50497647 21.91017971 -27.00265365 19.48637013 -26.5 17.0625 C-26.16213671 15.40833039 -25.82489094 13.75403453 -25.48828125 12.09960938 C-24.66598685 8.06491134 -23.83528509 4.03202777 -23 0 C-20.83125748 0.50603992 -19.00032373 0.99983813 -17 2 C-16.01 1.505 -15.02 1.01 -14 0.5 C-9.30655972 -1.62088515 -4.91084465 -1.36504834 0 0 Z M-16 12 C-17.3395781 16.57878709 -17.3395781 16.57878709 -15.9375 20.9375 C-13.08720774 22.50056349 -11.19919131 22.45702733 -8 22 C-4.69754692 19.76861278 -4.08135521 18.33123193 -3.125 14.4375 C-2.66015558 10.87648225 -2.66015558 10.87648225 -5 8 C-10.00014108 7.22220028 -12.63317151 8.24839111 -16 12 Z M17.125 9.5625 C14.59285318 12.46702136 14.16234888 14.18480141 14 18 C14.33 18.99 14.66 19.98 15 21 C18.73000762 21.80451145 21.19614953 22.30367685 24.8125 20.9375 C27.60741883 18.46200046 28.32892672 16.65362117 29 13 C28.75774805 10.59870168 28.75774805 10.59870168 27 9 C22.9100094 7.76528586 20.92036539 7.49980142 17.125 9.5625 Z " fill="#219ACF" transform="translate(44,56)"/>
<path d="M0 0 C2.64 0 5.28 0 8 0 C7.52690568 5.38522257 7.04026325 10.75969507 6.375 16.125 C6.189375 18.043125 6.189375 18.043125 6 20 C7.05054601 21.24660324 7.05054601 21.24660324 9.375 21.375 C12.1475335 21.28901062 12.1475335 21.28901062 13.55859375 18.99609375 C15.35106453 15.2702805 16.02414543 11.74375005 16.6875 7.6875 C16.81705078 6.94693359 16.94660156 6.20636719 17.08007812 5.44335938 C17.3958706 3.63047666 17.69920583 1.81543149 18 0 C20.97 0 23.94 0 27 0 C23.6129771 30.68244275 23.6129771 30.68244275 15.625 38.25 C9.57442073 42.28371951 3.80942436 42.27311159 -3.2109375 42.1953125 C-4.17907379 42.1924826 -5.14721008 42.18965271 -6.14468384 42.18673706 C-9.22158428 42.17558696 -12.29818828 42.1504918 -15.375 42.125 C-17.4674437 42.11496352 -19.55989198 42.10583884 -21.65234375 42.09765625 C-26.76834251 42.07566453 -31.88412108 42.04117025 -37 42 C-36.67 39.03 -36.34 36.06 -36 33 C-21.48 32.67 -6.96 32.34 8 32 C5.36 31.01 2.72 30.02 0 29 C-2.8813881 26.02856852 -3.19099966 23.42782684 -3.3125 19.4375 C-3.12444058 13.18452419 -2.83015577 5.66031155 0 0 Z " fill="#3D7CBF" transform="translate(87,56)"/>
<path d="M0 0 C2.6875 2 2.6875 2 4 4 C4.70125 3.34 5.4025 2.68 6.125 2 C9.49573583 -0.34485971 10.98135598 -0.51301839 15 0 C15.70125 0.37125 16.4025 0.7425 17.125 1.125 C18.053125 1.558125 18.053125 1.558125 19 2 C19.59039062 1.6803125 20.18078125 1.360625 20.7890625 1.03125 C23.56231072 -0.26227921 25.24108364 -0.02091005 28.25 0.375 C29.14203125 0.48585937 30.0340625 0.59671875 30.953125 0.7109375 C31.62859375 0.80632813 32.3040625 0.90171875 33 1 C32.29887218 14.58737361 32.29887218 14.58737361 27.1875 19.875 C24.34798172 21.33532369 22.14704859 21.21457149 19 21 C19.04125 20.05125 19.0825 19.1025 19.125 18.125 C19.34973818 14.89755144 19.34973818 14.89755144 17 13 C16.46375 13.495 15.9275 13.99 15.375 14.5 C12.29889257 16.44280469 10.58110811 16.52224493 7 16 C4.625 14 4.625 14 3 12 C2.34 13.32 1.68 14.64 1 16 C-0.32 16 -1.64 16 -3 16 C-3 12.7 -3 9.4 -3 6 C-3.99 9.3 -4.98 12.6 -6 16 C-7.32 16 -8.64 16 -10 16 C-10 12.7 -10 9.4 -10 6 C-10.99 9.3 -11.98 12.6 -13 16 C-14.65 16 -16.3 16 -18 16 C-17.01 11.05 -16.02 6.1 -15 1 C-9.94481666 -0.26379583 -5.18659962 -0.6060215 0 0 Z M23 5 C22.34 5.66 21.68 6.32 21 7 C21.3185177 9.10820797 21.3185177 9.10820797 22 11 C23.32 10.67 24.64 10.34 26 10 C26.33 8.68 26.66 7.36 27 6 C25.10820797 5.3185177 25.10820797 5.3185177 23 5 Z M15 6 C14.01 7.485 14.01 7.485 13 9 C14.485 9.99 14.485 9.99 16 11 C16.33 9.35 16.66 7.7 17 6 C16.34 6 15.68 6 15 6 Z " fill="#1DA2C3" transform="translate(39,38)"/>
<path d="M0 0 C1.65 0 3.3 0 5 0 C5 1.65 5 3.3 5 5 C6.1446875 5.185625 6.1446875 5.185625 7.3125 5.375 C10 6 10 6 13 8 C13.33 7.34 13.66 6.68 14 6 C16.97855507 5.14207947 19.90692285 4.84318315 23 5 C25.5625 6.9375 25.5625 6.9375 27 9 C27.78375 8.319375 28.5675 7.63875 29.375 6.9375 C33.6938291 3.9786868 38.10369153 5.1097621 43 6 C42.85816304 7.75032844 42.71136571 9.50025534 42.5625 11.25 C42.48128906 12.22453125 42.40007812 13.1990625 42.31640625 14.203125 C42.04925416 16.56461753 41.64628032 18.71901065 41 21 C39.2507786 21.08142927 37.50045458 21.13938541 35.75 21.1875 C34.77546875 21.22230469 33.8009375 21.25710937 32.796875 21.29296875 C29.62531258 20.96075202 28.32959693 20.11327721 26 18 C25.67 18.99 25.34 19.98 25 21 C23.35 21 21.7 21 20 21 C20.33 17.7 20.66 14.4 21 11 C20.01 11.33 19.02 11.66 18 12 C17.19436362 14.10584438 17.19436362 14.10584438 16.8125 16.5625 C16.544375 18.026875 16.27625 19.49125 16 21 C12.7 21 9.4 21 6 21 C6.33 17.37 6.66 13.74 7 10 C6.01 10.33 5.02 10.66 4 11 C3.19436362 13.10584438 3.19436362 13.10584438 2.8125 15.5625 C2.65394531 16.38878906 2.49539062 17.21507813 2.33203125 18.06640625 C2.22246094 18.70449219 2.11289063 19.34257813 2 20 C0.35 20.33 -1.3 20.66 -3 21 C-2.69073032 18.24960167 -2.3777116 15.49971822 -2.0625 12.75 C-1.97548828 11.97269531 -1.88847656 11.19539063 -1.79882812 10.39453125 C-1.71181641 9.64042969 -1.62480469 8.88632812 -1.53515625 8.109375 C-1.456604 7.41811523 -1.37805176 6.72685547 -1.29711914 6.01464844 C-0.99455017 3.96304687 -0.53587616 2.00217465 0 0 Z M33 10 C32.34 10.66 31.68 11.32 31 12 C31.3185177 14.10820797 31.3185177 14.10820797 32 16 C33.32 15.67 34.64 15.34 36 15 C36.33 13.68 36.66 12.36 37 11 C35.10820797 10.3185177 35.10820797 10.3185177 33 10 Z M11 15 C12 19 12 19 12 19 Z " fill="#516CB3" transform="translate(74,33)"/>
<path d="M0 0 C0.33 0.66 0.66 1.32 1 2 C0.01 2.495 0.01 2.495 -1 3 C-1.12375 4.0725 -1.2475 5.145 -1.375 6.25 C-2.07285576 10.43713457 -3.38285956 11.79189236 -6 15 C-6.50135199 17.62778044 -6.50135199 17.62778044 -6 20 C-4.04366025 22.41121859 -4.04366025 22.41121859 -0.375 22.125 C0.73875 22.08375 1.8525 22.0425 3 22 C3 22.66 3 23.32 3 24 C2.01 24 1.02 24 0 24 C0 24.99 0 25.98 0 27 C0.99 27 1.98 27 3 27 C3 27.66 3 28.32 3 29 C3.99 29.33 4.98 29.66 6 30 C2.86556646 32.08962236 2.12996308 32.25367554 -1.4375 32.1875 C-2.19933594 32.18105469 -2.96117188 32.17460938 -3.74609375 32.16796875 C-5.93937857 32.00451771 -7.88870807 31.60116513 -10 31 C-10.06058594 31.69867188 -10.12117188 32.39734375 -10.18359375 33.1171875 C-10.26738281 34.02726562 -10.35117187 34.93734375 -10.4375 35.875 C-10.51871094 36.77992187 -10.59992187 37.68484375 -10.68359375 38.6171875 C-11 41 -11 41 -12 43 C-14.64 43 -17.28 43 -20 43 C-20.17167116 37.65673512 -19.56475056 32.88154935 -18.46875 27.66015625 C-18.31337769 26.89319931 -18.15800537 26.12624237 -17.9979248 25.33604431 C-17.50497647 22.91017971 -17.00265365 20.48637013 -16.5 18.0625 C-16.16213671 16.40833039 -15.82489094 14.75403453 -15.48828125 13.09960938 C-14.66598685 9.06491134 -13.83528509 5.03202777 -13 1 C-10.83125748 1.50603992 -9.00032373 1.99983813 -7 3 C-4.64018187 2.06421005 -2.30368736 1.06652192 0 0 Z " fill="#29AFAD" transform="translate(34,55)"/>
<path d="M0 0 C4.64360286 0.1112846 8.03099208 0.34024993 11.9375 3 C16.5051671 9.64387942 16.29383888 17.18062096 16 25 C15.34 23.68 14.68 22.36 14 21 C10.04 25.455 10.04 25.455 6 30 C4.68 29.67 3.36 29.34 2 29 C2 28.34 2 27.68 2 27 C1.01 27 0.02 27 -1 27 C-1 26.01 -1 25.02 -1 24 C-0.01 24 0.98 24 2 24 C2 23.01 2 22.02 2 21 C2.66 21 3.32 21 4 21 C4.19491452 19.54263913 4.38069358 18.08405407 4.5625 16.625 C4.66691406 15.81289062 4.77132812 15.00078125 4.87890625 14.1640625 C5.18237328 11.95100814 5.18237328 11.95100814 4 10 C1.69 10 -0.62 10 -3 10 C-4.43088528 7.13822943 -3.59991697 5.06624227 -3 2 C-2.01 2 -1.02 2 0 2 C0 1.34 0 0.68 0 0 Z " fill="#1CA6C1" transform="translate(35,55)"/>
<path d="M0 0 C1.65 0 3.3 0 5 0 C5 1.65 5 3.3 5 5 C6.1446875 5.185625 6.1446875 5.185625 7.3125 5.375 C10 6 10 6 13 8 C13.33 7.34 13.66 6.68 14 6 C16.64 6 19.28 6 22 6 C20.68 6.33 19.36 6.66 18 7 C17.90912109 8.13888672 17.90912109 8.13888672 17.81640625 9.30078125 C17.73261719 10.29464844 17.64882812 11.28851563 17.5625 12.3125 C17.48128906 13.29863281 17.40007812 14.28476562 17.31640625 15.30078125 C17 18 17 18 16 21 C12.7 21 9.4 21 6 21 C6.33 17.37 6.66 13.74 7 10 C6.01 10.33 5.02 10.66 4 11 C3.19436362 13.10584438 3.19436362 13.10584438 2.8125 15.5625 C2.65394531 16.38878906 2.49539062 17.21507813 2.33203125 18.06640625 C2.22246094 18.70449219 2.11289063 19.34257813 2 20 C0.35 20.33 -1.3 20.66 -3 21 C-2.69073032 18.24960167 -2.3777116 15.49971822 -2.0625 12.75 C-1.97548828 11.97269531 -1.88847656 11.19539063 -1.79882812 10.39453125 C-1.71181641 9.64042969 -1.62480469 8.88632812 -1.53515625 8.109375 C-1.456604 7.41811523 -1.37805176 6.72685547 -1.29711914 6.01464844 C-0.99455017 3.96304687 -0.53587616 2.00217465 0 0 Z M11 15 C12 19 12 19 12 19 Z " fill="#2F87C1" transform="translate(74,33)"/>
<path d="M0 0 C-0.69087217 3.9332133 -1.38471462 7.86588988 -2.08129883 11.7980957 C-2.31779108 13.13551692 -2.553475 14.47308134 -2.78833008 15.81079102 C-3.12628406 17.73491378 -3.46739839 19.65848062 -3.80859375 21.58203125 C-4.01282959 22.73936768 -4.21706543 23.8967041 -4.42749023 25.08911133 C-5 28 -5 28 -6 31 C-9 31 -9 31 -10.6875 30 C-12.7965 26.78628571 -12.18614585 23.78496571 -12 20 C-12.66 19.67 -13.32 19.34 -14 19 C-13.649375 18.0925 -13.29875 17.185 -12.9375 16.25 C-11.75291324 13.2015419 -11.75291324 13.2015419 -12.5625 10.9375 C-13 9 -13 9 -11.6875 6.25 C-11.130625 5.5075 -10.57375 4.765 -10 4 C-9.34 4 -8.68 4 -8 4 C-7.67 3.34 -7.34 2.68 -7 2 C-4.37418862 0.42451317 -3.12900213 0 0 0 Z " fill="#2D8DCA" transform="translate(84,56)"/>
<path d="M0 0 C0.89203125 0.11085937 1.7840625 0.22171875 2.703125 0.3359375 C3.37859375 0.43132813 4.0540625 0.52671875 4.75 0.625 C4.04887218 14.21237361 4.04887218 14.21237361 -1.0625 19.5 C-3.90201828 20.96032369 -6.10295141 20.83957149 -9.25 20.625 C-9.188125 19.7175 -9.12625 18.81 -9.0625 17.875 C-8.94720532 14.62693706 -8.94720532 14.62693706 -10.8125 12.5625 C-12.25 10.625 -12.25 10.625 -11.9375 7.875 C-11.710625 7.1325 -11.48375 6.39 -11.25 5.625 C-12.24 5.955 -13.23 6.285 -14.25 6.625 C-14.25 5.965 -14.25 5.305 -14.25 4.625 C-12.6 4.295 -10.95 3.965 -9.25 3.625 C-9.25 2.965 -9.25 2.305 -9.25 1.625 C-5.9353333 -0.40407167 -3.8184021 -0.50242133 0 0 Z M-5.25 4.625 C-5.91 5.285 -6.57 5.945 -7.25 6.625 C-6.9314823 8.73320797 -6.9314823 8.73320797 -6.25 10.625 C-4.93 10.295 -3.61 9.965 -2.25 9.625 C-1.92 8.305 -1.59 6.985 -1.25 5.625 C-3.14179203 4.9435177 -3.14179203 4.9435177 -5.25 4.625 Z " fill="#1F99D3" transform="translate(67.25,38.375)"/>
<path d="M0 0 C0.98484375 0.00902344 1.9696875 0.01804688 2.984375 0.02734375 C4.10585938 0.04474609 4.10585938 0.04474609 5.25 0.0625 C4.12548273 3.0344385 3.02706209 5.39690687 1.25 8.0625 C0.58841957 10.10834079 0.58841957 10.10834079 0.125 12.25 C-0.308125 14.1371875 -0.308125 14.1371875 -0.75 16.0625 C-2.07 16.0625 -3.39 16.0625 -4.75 16.0625 C-4.75 12.7625 -4.75 9.4625 -4.75 6.0625 C-5.74 9.3625 -6.73 12.6625 -7.75 16.0625 C-9.4 16.0625 -11.05 16.0625 -12.75 16.0625 C-11.76 11.1125 -10.77 6.1625 -9.75 1.0625 C-6.20011229 0.17502807 -3.60819222 -0.04295467 0 0 Z " fill="#2AABAF" transform="translate(33.75,37.9375)"/>
<path d="M0 0 C2.31 0 4.62 0 7 0 C7 0.99 7 1.98 7 3 C9.97 3.495 9.97 3.495 13 4 C13 4.99 13 5.98 13 7 C13.66 7.33 14.32 7.66 15 8 C11.57767028 9.14077657 8.91326783 9.09815117 5.3125 9.0625 C3.54326172 9.04896484 3.54326172 9.04896484 1.73828125 9.03515625 C0.83464844 9.02355469 -0.06898437 9.01195313 -1 9 C-0.67 6.03 -0.34 3.06 0 0 Z " fill="#1D9ECC" transform="translate(51,89)"/>
<path d="M0 0 C1.65 0 3.3 0 5 0 C4.67 2.31 4.34 4.62 4 7 C3.34 7 2.68 7 2 7 C2 7.66 2 8.32 2 9 C2.66 9 3.32 9 4 9 C3.34 12.63 2.68 16.26 2 20 C0.35 20.33 -1.3 20.66 -3 21 C-2.69073032 18.24960167 -2.3777116 15.49971822 -2.0625 12.75 C-1.97548828 11.97269531 -1.88847656 11.19539063 -1.79882812 10.39453125 C-1.71181641 9.64042969 -1.62480469 8.88632812 -1.53515625 8.109375 C-1.456604 7.41811523 -1.37805176 6.72685547 -1.29711914 6.01464844 C-0.99455017 3.96304687 -0.53587616 2.00217465 0 0 Z " fill="#2791CC" transform="translate(74,33)"/>
<path d="M0 0 C2.97 0.495 2.97 0.495 6 1 C6.66 2.98 7.32 4.96 8 7 C7.01 7.99 6.02 8.98 5 10 C5.99 9.67 6.98 9.34 8 9 C7.34 11.31 6.68 13.62 6 16 C4.35 16 2.7 16 1 16 C1.33 12.7 1.66 9.4 2 6 C1.01 6 0.02 6 -1 6 C-0.67 4.02 -0.34 2.04 0 0 Z " fill="#4274B0" transform="translate(93,38)"/>
<path d="M0 0 C2.3828125 0.0234375 2.3828125 0.0234375 5.125 0.375 C6.03507812 0.48585937 6.94515625 0.59671875 7.8828125 0.7109375 C8.93082031 0.85402344 8.93082031 0.85402344 10 1 C9.85816304 2.75032844 9.71136571 4.50025534 9.5625 6.25 C9.48128906 7.22453125 9.40007812 8.1990625 9.31640625 9.203125 C9.04925416 11.56461753 8.64628032 13.71901065 8 16 C6.35 15.67 4.7 15.34 3 15 C3.99 14.67 4.98 14.34 6 14 C5.2236068 10.9254644 5.2236068 10.9254644 3 9 C3.375 6.375 3.375 6.375 4 4 C2.02 3.34 0.04 2.68 -2 2 C-1.34 1.34 -0.68 0.68 0 0 Z " fill="#5860A8" transform="translate(107,38)"/>
<path d="M0 0 C2.64 0 5.28 0 8 0 C6.68 0.33 5.36 0.66 4 1 C3.93941406 1.75925781 3.87882812 2.51851562 3.81640625 3.30078125 C3.73261719 4.29464844 3.64882812 5.28851563 3.5625 6.3125 C3.48128906 7.29863281 3.40007812 8.28476562 3.31640625 9.30078125 C3 12 3 12 2 15 C0.68 15 -0.64 15 -2 15 C-1.85930804 12.87465341 -1.71229079 10.74972471 -1.5625 8.625 C-1.48128906 7.44164062 -1.40007812 6.25828125 -1.31640625 5.0390625 C-1 2 -1 2 0 0 Z " fill="#357BBD" transform="translate(88,39)"/>
<path d="M0 0 C2.64 0 5.28 0 8 0 C7.88610125 1.79240663 7.75852313 3.58394835 7.625 5.375 C7.55539063 6.37273438 7.48578125 7.37046875 7.4140625 8.3984375 C7 11 7 11 5 13 C5 10.69 5 8.38 5 6 C4.34 6 3.68 6 3 6 C2.67 5.01 2.34 4.02 2 3 C1.34 3 0.68 3 0 3 C0 4.65 0 6.3 0 8 C-0.33 8 -0.66 8 -1 8 C-1.125 2.25 -1.125 2.25 0 0 Z " fill="#3C79B4" transform="translate(87,56)"/>
<path d="M0 0 C0.33 0 0.66 0 1 0 C0.68647844 8.5277864 -0.43367424 15.03741582 -6.25 21.5 C-6.8275 21.995 -7.405 22.49 -8 23 C-8.66 22.67 -9.32 22.34 -10 22 C-9.360625 21.236875 -8.72125 20.47375 -8.0625 19.6875 C-5.85767219 17.11753287 -5.85767219 17.11753287 -5 14 C-4.34 13.67 -3.68 13.34 -3 13 C-2.34582191 10.75189823 -2.34582191 10.75189823 -1.9375 8.125 C-1.43729298 5.2891156 -0.91310717 2.73932151 0 0 Z " fill="#5669AB" transform="translate(110,72)"/>
<path d="M0 0 C1.32 0 2.64 0 4 0 C4 2.97 4 5.94 4 9 C2.68 9.33 1.36 9.66 0 10 C-1.231394 6.30581799 -0.64432764 3.7943739 0 0 Z " fill="#2693D4" transform="translate(68,76)"/>
<path d="M0 0 C0.33 0.66 0.66 1.32 1 2 C1.99 2 2.98 2 4 2 C3.67 3.65 3.34 5.3 3 7 C-1 7 -5 7 -9 7 C-8.67 6.34 -8.34 5.68 -8 5 C-7.236875 5.103125 -6.47375 5.20625 -5.6875 5.3125 C-4.800625 5.209375 -3.91375 5.10625 -3 5 C-1.1375562 2.59141286 -1.1375562 2.59141286 0 0 Z " fill="#4B6FAC" transform="translate(102,72)"/>
<path d="M0 0 C0.33 0 0.66 0 1 0 C1 1.65 1 3.3 1 5 C4.465 4.505 4.465 4.505 8 4 C8 3.34 8 2.68 8 2 C8.99 2.33 9.98 2.66 11 3 C11.33 2.34 11.66 1.68 12 1 C12.66 1 13.32 1 14 1 C14 1.99 14 2.98 14 4 C14.66 4.33 15.32 4.66 16 5 C12.57767028 6.14077657 9.91326783 6.09815117 6.3125 6.0625 C4.54326172 6.04896484 4.54326172 6.04896484 2.73828125 6.03515625 C1.83464844 6.02355469 0.93101563 6.01195313 0 6 C0 4.02 0 2.04 0 0 Z " fill="#2E9ECB" transform="translate(50,92)"/>
<path d="M0 0 C-0.60183749 2.02045442 -1.27306096 4.02111039 -2 6 C-2.99 6.495 -2.99 6.495 -4 7 C-6.125 6.0625 -6.125 6.0625 -8 5 C-7 2 -7 2 -5.125 0.8125 C-3 0 -3 0 0 0 Z " fill="#3488C4" transform="translate(84,56)"/>
<path d="M0 0 C1.65 0 3.3 0 5 0 C4.67 1.98 4.34 3.96 4 6 C3.01 6 2.02 6 1 6 C0.67 4.02 0.34 2.04 0 0 Z " fill="#2A8AC9" transform="translate(74,33)"/>
<path d="M0 0 C0 0.66 0 1.32 0 2 C0.66 2 1.32 2 2 2 C2.33 3.65 2.66 5.3 3 7 C1.68 7.33 0.36 7.66 -1 8 C-1.33 6.02 -1.66 4.04 -2 2 C-2.99 2.33 -3.98 2.66 -5 3 C-5 2.34 -5 1.68 -5 1 C-2 0 -2 0 0 0 Z " fill="#2899C8" transform="translate(58,42)"/>
<path d="M0 0 C2.16874252 0.50603992 3.99967627 0.99983813 6 2 C5.67 2.99 5.34 3.98 5 5 C3.35 5 1.7 5 0 5 C0 3.35 0 1.7 0 0 Z " fill="#199ED9" transform="translate(62,82)"/>
<path d="M0 0 C2.97 0 5.94 0 9 0 C8.67 2.64 8.34 5.28 8 8 C7.67 8 7.34 8 7 8 C6.67 6.02 6.34 4.04 6 2 C4.02 2.33 2.04 2.66 0 3 C0 2.01 0 1.02 0 0 Z " fill="#4D5D9C" transform="translate(105,56)"/>
<path d="M0 0 C2.31 0.33 4.62 0.66 7 1 C7 1.99 7 2.98 7 4 C6.01 4.495 6.01 4.495 5 5 C4.01 4.67 3.02 4.34 2 4 C2 3.01 2 2.02 2 1 C1.34 0.67 0.68 0.34 0 0 Z " fill="#2891CA" transform="translate(62,38)"/>
<path d="M0 0 C0.33 0.66 0.66 1.32 1 2 C0.67 2.99 0.34 3.98 0 5 C-2.475 4.01 -2.475 4.01 -5 3 C-5 2.34 -5 1.68 -5 1 C-3.35 0.67 -1.7 0.34 0 0 Z " fill="#12ABBC" transform="translate(43,43)"/>
</svg>
