<?xml version="1.0" encoding="UTF-8"?>
<svg version="1.1" xmlns="http://www.w3.org/2000/svg" width="130" height="130">
<path d="M0 0 C7.0373418 4.80729231 11.59010423 11.58292281 13.80859375 19.78125 C14.88084637 31.11471083 13.72636629 39.19045046 6.55859375 48.03125 C0.05258685 55.00991552 -7.39008571 58.73379416 -17.00390625 59.09375 C-22.23470833 58.98143216 -27.46306318 58.1024366 -32.19140625 55.78125 C-33.9666011 50.45566546 -32.00785964 44.89009828 -31.00390625 39.46875 C-30.68969727 37.63280273 -30.68969727 37.63280273 -30.36914062 35.75976562 C-28.98961902 28.23175309 -27.89838332 22.88709565 -21.87890625 17.84375 C-18.20443609 16.39105249 -15.97638876 16.74898204 -12.19140625 17.78125 C-8.94265371 20.00408069 -8.29509394 21.40106182 -7.25390625 25.21875 C-7.1829464 29.26346121 -7.62540669 30.70205053 -10.19140625 33.78125 C-12.60633066 35.91206566 -14.19936996 36.7846886 -17.4453125 36.7734375 C-23.39030405 36.1818011 -23.39030405 36.1818011 -26.19140625 34.78125 C-26.85140625 37.42125 -27.51140625 40.06125 -28.19140625 42.78125 C-21.31297661 44.29326516 -14.13501703 45.3422444 -7.75390625 41.78125 C-3.16862664 38.43879772 -0.85019579 34.3153814 0.18359375 28.76953125 C0.51661717 23.47237743 -1.09205432 19.05589135 -4.19140625 14.78125 C-10.02842653 10.13545835 -14.93468938 9.13288354 -22.19140625 9.78125 C-28.0625422 11.623175 -31.25259047 15.55150641 -34.19140625 20.78125 C-35.52888666 25.01294461 -36.28413361 29.28205278 -37.00390625 33.65625 C-37.40437852 35.90398007 -37.80662982 38.15139415 -38.2109375 40.3984375 C-38.37698486 41.38440918 -38.54303223 42.37038086 -38.71411133 43.38623047 C-39.19140625 45.78125 -39.19140625 45.78125 -40.19140625 47.78125 C-40.85140625 47.78125 -41.51140625 47.78125 -42.19140625 47.78125 C-47.48543944 38.50454964 -50.65405569 30.45273092 -48.19140625 19.78125 C-47.53140625 19.78125 -46.87140625 19.78125 -46.19140625 19.78125 C-45.35321467 21.40374941 -44.52099465 23.02933497 -43.69140625 24.65625 C-43.22734375 25.56117187 -42.76328125 26.46609375 -42.28515625 27.3984375 C-41.19140625 29.78125 -41.19140625 29.78125 -41.19140625 31.78125 C-40.53140625 31.78125 -39.87140625 31.78125 -39.19140625 31.78125 C-38.15161893 25.07900645 -38.05093696 20.13221827 -40.4609375 13.7734375 C-41.55140715 10.79942937 -41.88362796 8.89624772 -41.19140625 5.78125 C-31.79347843 -6.59423912 -12.6351502 -7.02703541 0 0 Z " fill="#3166AD" transform="translate(87.19140625,32.21875)"/>
<path d="M0 0 C2.69105198 2.17574416 4.45532928 3.91065856 6 7 C6.78375 6.030625 7.5675 5.06125 8.375 4.0625 C9.91288705 2.16037654 10.79259913 1.10370043 13 0 C19.97142857 -0.68571429 19.97142857 -0.68571429 24 2 C26.51211274 5.76816911 26.64722596 8.65785118 26 13 C25.45978347 15.40600641 24.7817107 17.65486791 24 20 C22.10688117 20.25060425 20.21022961 20.47460633 18.3125 20.6875 C17.25675781 20.81511719 16.20101562 20.94273438 15.11328125 21.07421875 C11.44463291 20.98676038 9.85653739 20.26621968 7 18 C5.6875 15.8125 5.6875 15.8125 5 14 C4.57589844 14.42152344 4.15179688 14.84304687 3.71484375 15.27734375 C-0.39383262 19.11511838 -3.16093231 20.88982891 -9 21 C-11.4375 20.5625 -11.4375 20.5625 -13 20 C-13 21.32 -13 22.64 -13 24 C-14.65 24 -16.3 24 -18 24 C-17.60223317 21.26685975 -17.18267613 18.54014385 -16.75 15.8125 C-16.64042969 15.04357422 -16.53085937 14.27464844 -16.41796875 13.48242188 C-15.62519892 8.62149108 -14.59821191 5.59144835 -11 2 C-7.33091443 -0.44605705 -4.26381231 -0.83946402 0 0 Z M-9.375 7.1875 C-11.28336218 9.86823459 -11.28336218 9.86823459 -10.75 12.8125 C-10.37875 13.8953125 -10.37875 13.8953125 -10 15 C-7.75124253 15.86850174 -7.75124253 15.86850174 -5 16 C-2.08829743 14.50397498 -2.08829743 14.50397498 0 12 C0.58402133 9.41417872 0.58402133 9.41417872 0 7 C-1.82100147 4.80079504 -1.82100147 4.80079504 -4.375 4.5625 C-7.20458771 4.7879872 -7.20458771 4.7879872 -9.375 7.1875 Z M11.5625 7.25 C9.78952484 9.79121583 9.78952484 9.79121583 10.125 12.1875 C10.96774898 14.18733041 10.96774898 14.18733041 13 16 C15.70878174 15.79163217 17.54445187 15.27332888 19.875 13.875 C21.67626472 10.87289213 20.68453372 8.29820792 20 5 C16.01997612 4.54772456 14.57604315 4.46826786 11.5625 7.25 Z " fill="#030605" transform="translate(56,99)"/>
<path d="M0 0 C0.99 0 1.98 0 3 0 C3 0.66 3 1.32 3 2 C4.65 1.34 6.3 0.68 8 0 C8 0.66 8 1.32 8 2 C8.78375 1.95875 9.5675 1.9175 10.375 1.875 C13 2 13 2 15 4 C15.66 3.34 16.32 2.68 17 2 C21.05261287 1.65509678 22.54754176 1.69836118 26 4 C26.66 3.34 27.32 2.68 28 2 C31 1.75 31 1.75 34 2 C34.66 2.66 35.32 3.32 36 4 C35.8125 7.5 35.8125 7.5 35 11 C32 13 32 13 28.9375 12.6875 C26 12 26 12 24 11 C24 11.66 24 12.32 24 13 C16.57142857 13.28571429 16.57142857 13.28571429 13 11 C13 11.66 13 12.32 13 13 C12.01 12.67 11.02 12.34 10 12 C10.33 9.69 10.66 7.38 11 5 C10.01 5 9.02 5 8 5 C7.67 7.31 7.34 9.62 7 12 C3.90461839 12.99494409 2.10172125 12.85564724 -1 12 C-1.33 12.33 -1.66 12.66 -2 13 C-9.45864662 13.36090226 -9.45864662 13.36090226 -13 11 C-13.99 11.66 -14.98 12.32 -16 13 C-18.64017635 13.81779841 -21.30270591 14.3809489 -24 15 C-25.39460991 12.21078018 -24.58060045 10.87922897 -23.6875 7.9375 C-23.42324219 7.03902344 -23.15898438 6.14054688 -22.88671875 5.21484375 C-22 3 -22 3 -20 2 C-17 1.8125 -17 1.8125 -14 2 C-13.34 2.66 -12.68 3.32 -12 4 C-11.01 3.34 -10.02 2.68 -9 2 C-5.9375 1.875 -5.9375 1.875 -3 2 C-2.34 2 -1.68 2 -1 2 C-0.67 1.34 -0.34 0.68 0 0 Z M-19 5 C-19.33 6.65 -19.66 8.3 -20 10 C-18.68 9.67 -17.36 9.34 -16 9 C-16 7.68 -16 6.36 -16 5 C-16.99 5 -17.98 5 -19 5 Z M-8 5 C-8.33 6.65 -8.66 8.3 -9 10 C-7.68 9.67 -6.36 9.34 -5 9 C-5 7.68 -5 6.36 -5 5 C-5.99 5 -6.98 5 -8 5 Z M2 5 C2 6.65 2 8.3 2 10 C2.66 10 3.32 10 4 10 C4.33 8.35 4.66 6.7 5 5 C4.01 5 3.02 5 2 5 Z M17 6 C17.33 7.32 17.66 8.64 18 10 C19.32 9.34 20.64 8.68 22 8 C21.67 6.68 21.34 5.36 21 4 C19.53774984 3.90754997 19.53774984 3.90754997 17 6 Z M29 5 C28.67 6.32 28.34 7.64 28 9 C29.32 9 30.64 9 32 9 C32.33 7.68 32.66 6.36 33 5 C31.68 5 30.36 5 29 5 Z " fill="#040605" transform="translate(64,7)"/>
<path d="M0 0 C1.32 0 2.64 0 4 0 C5.42258812 3.82320557 6.24042276 6.91281305 6 11 C6.66 11 7.32 11 8 11 C8.2475 10.29875 8.495 9.5975 8.75 8.875 C10.18872146 5.56594064 11.7597134 2.83330365 14 0 C15.32 0 16.64 0 18 0 C17.09433338 5.64544668 14.55601177 9.9001478 11.75 14.8125 C11.27175781 15.69615234 10.79351562 16.57980469 10.30078125 17.49023438 C9.82511719 18.32490234 9.34945312 19.15957031 8.859375 20.01953125 C8.43108398 20.78370361 8.00279297 21.54787598 7.56152344 22.33520508 C6 24 6 24 3.32128906 24.2487793 C2.55526367 24.16668213 1.78923828 24.08458496 1 24 C1.309375 22.2984375 1.309375 22.2984375 1.625 20.5625 C2.15708923 16.43698622 1.51306571 13.1792842 0.48046875 9.1875 C-0.2066704 6.05906161 -0.13579485 3.19117902 0 0 Z " fill="#030605" transform="translate(83,99)"/>
<path d="M0 0 C0.66 0.33 1.32 0.66 2 1 C2.75 4.375 2.75 4.375 3 8 C2.01 9.485 2.01 9.485 1 11 C0.63890458 9.35567294 0.28629924 7.7094792 -0.0625 6.0625 C-0.25972656 5.14597656 -0.45695312 4.22945312 -0.66015625 3.28515625 C-0.77230469 2.53105469 -0.88445312 1.77695312 -1 1 C-0.67 0.67 -0.34 0.34 0 0 Z " fill="#3D5D99" transform="translate(77,53)"/>
<path d="M0 0 C2.17766075 4.35532149 2.03039555 5.46625958 1 10 C0.34 10 -0.32 10 -1 10 C-0.67 6.7 -0.34 3.4 0 0 Z " fill="#32629E" transform="translate(58,64)"/>
</svg>
