<?xml version="1.0" encoding="UTF-8"?>
<svg version="1.1" xmlns="http://www.w3.org/2000/svg" width="114" height="33" viewBox="8.634 49 114.366 33.273">
<path d="M0 0 C1.11375 0.495 1.11375 0.495 2.25 1 C5.13883312 2.22782871 5.13883312 2.22782871 9 2 C10.71108689 3.62102968 12.37253306 5.29503463 14 7 C15.03253906 7.50789063 16.06507812 8.01578125 17.12890625 8.5390625 C20 11 20 11 20.53320312 13.16210938 C20.70043202 15.83983631 20.67055594 18.44445435 20.5625 21.125 C20.56056641 22.04410156 20.55863281 22.96320313 20.55664062 23.91015625 C20.45772609 28.899845 20.45772609 28.899845 20 31 C16.54639557 33.30240295 15.19500616 33.25691777 11.125 33.265625 C9.97515625 33.26820312 8.8253125 33.27078125 7.640625 33.2734375 C6.43921875 33.26570313 5.2378125 33.25796875 4 33.25 C2.19789062 33.26160156 2.19789062 33.26160156 0.359375 33.2734375 C-1.36539062 33.26957031 -1.36539062 33.26957031 -3.125 33.265625 C-4.70667969 33.26224121 -4.70667969 33.26224121 -6.3203125 33.25878906 C-9 33 -9 33 -12 31 C-12.37231445 28.96875 -12.37231445 28.96875 -12.36328125 26.5 C-12.36263672 25.613125 -12.36199219 24.72625 -12.36132812 23.8125 C-12.34521484 22.884375 -12.32910156 21.95625 -12.3125 21 C-12.31733398 19.6078125 -12.31733398 19.6078125 -12.32226562 18.1875 C-12.26694139 11.26694139 -12.26694139 11.26694139 -10 9 C-9.04867188 8.81630859 -9.04867188 8.81630859 -8.078125 8.62890625 C-5.24155241 7.77046981 -4.42604285 6.33728863 -2.75 3.9375 C-2.22921875 3.20402344 -1.7084375 2.47054687 -1.171875 1.71484375 C-0.78515625 1.14894531 -0.3984375 0.58304688 0 0 Z " fill="#B89F60" transform="translate(21,49)"/>
<path d="M0 0 C2.24940295 -0.08119503 4.49964871 -0.13927819 6.75 -0.1875 C8.00296875 -0.22230469 9.2559375 -0.25710937 10.546875 -0.29296875 C14.14109357 0.01197061 15.44725126 0.54394629 18 3 C18.33 2.505 18.66 2.01 19 1.5 C22.17572747 -0.88179561 25.10246066 -0.19168226 29 0 C29.66 1.32 30.32 2.64 31 4 C31.66 4 32.32 4 33 4 C33.33 3.01 33.66 2.02 34 1 C36.64458379 -0.32229189 38.67761301 -0.09677194 41.625 -0.0625 C43.12933594 -0.04896484 43.12933594 -0.04896484 44.6640625 -0.03515625 C45.43492188 -0.02355469 46.20578125 -0.01195312 47 0 C47.495 1.485 47.495 1.485 48 3 C48.391875 2.505 48.78375 2.01 49.1875 1.5 C51.55091715 -0.45593143 53.01435003 -0.24207973 56 0 C55.505 0.7425 55.01 1.485 54.5 2.25 C52.68076525 5.06318188 52.68076525 5.06318188 53 9 C54.29233607 10.37310707 55.62437146 11.71034824 57 13 C57 13.66 57 14.32 57 15 C55.35 15 53.7 15 52 15 C51.505 13.515 51.505 13.515 51 12 C50.34 12 49.68 12 49 12 C49 11.34 49 10.68 49 10 C48.34 10 47.68 10 47 10 C47 11.65 47 13.3 47 15 C37.00437637 15.63019694 37.00437637 15.63019694 32.8125 13 C32.214375 12.34 31.61625 11.68 31 11 C30.67 11.99 30.34 12.98 30 14 C27.17998673 15.41000664 25.12992745 15.24548451 22 15 C19.125 13.5 19.125 13.5 17 12 C16.649375 12.495 16.29875 12.99 15.9375 13.5 C13.05625711 15.73063966 10.52990974 15.19980621 7 15 C6.67 16.98 6.34 18.96 6 21 C5.01 21 4.02 21 3 21 C3 15.06 3 9.12 3 3 C2.01 3 1.02 3 0 3 C0 2.01 0 1.02 0 0 Z M7 5 C6.95936168 6.66617115 6.957279 8.33388095 7 10 C9.39719432 10.67958603 9.39719432 10.67958603 12 11 C12.66 10.34 13.32 9.68 14 9 C13.67958603 6.39719432 13.67958603 6.39719432 13 4 C9.71069596 3.63314303 9.71069596 3.63314303 7 5 Z M23 4 C22.34 4.66 21.68 5.32 21 6 C21.3185177 8.10820797 21.3185177 8.10820797 22 10 C24.39719432 10.67958603 24.39719432 10.67958603 27 11 C27.66 10.34 28.32 9.68 29 9 C28.6814823 6.89179203 28.6814823 6.89179203 28 5 C25.60280568 4.32041397 25.60280568 4.32041397 23 4 Z M36 5 C35.95936168 6.66617115 35.957279 8.33388095 36 10 C38.35367713 10.6878236 38.35367713 10.6878236 41 11 C41.99 10.34 42.98 9.68 44 9 C43.50243908 6.24358584 43.50243908 6.24358584 42 4 C38.71105107 3.59371033 38.71105107 3.59371033 36 5 Z " fill="#D8C68B" transform="translate(43,61)"/>
<path d="M0 0 C3.27066566 -0.08706892 6.54103365 -0.14041241 9.8125 -0.1875 C10.74126953 -0.21263672 11.67003906 -0.23777344 12.62695312 -0.26367188 C13.9659668 -0.27817383 13.9659668 -0.27817383 15.33203125 -0.29296875 C16.56530151 -0.31653442 16.56530151 -0.31653442 17.82348633 -0.34057617 C20 0 20 0 21.76831055 1.3034668 C23.82472973 4.13598551 23.35509695 6.62657897 23 10 C21.9375 12.4375 21.9375 12.4375 20 14 C14.04477612 14.52238806 14.04477612 14.52238806 11 13 C11 15.31 11 17.62 11 20 C9.741875 20.04125 8.48375 20.0825 7.1875 20.125 C6.47980469 20.14820312 5.77210937 20.17140625 5.04296875 20.1953125 C3 20 3 20 0 18 C-0.34057617 16.12060547 -0.34057617 16.12060547 -0.29296875 13.8671875 C-0.28330078 13.06152344 -0.27363281 12.25585938 -0.26367188 11.42578125 C-0.23853516 10.58402344 -0.21339844 9.74226563 -0.1875 8.875 C-0.17396484 8.02550781 -0.16042969 7.17601563 -0.14648438 6.30078125 C-0.11108219 4.20025163 -0.05727401 2.10004707 0 0 Z " fill="#29421A" transform="translate(9,62)"/>
<path d="M0 0 C0.99 0 1.98 0 3 0 C6.66666667 0 10.33333333 0 14 0 C14 1.32 14 2.64 14 4 C13.01 4 12.02 4 11 4 C11 7.63 11 11.26 11 15 C9.68 15 8.36 15 7 15 C7 11.37 7 7.74 7 4 C6.01 4 5.02 4 4 4 C4.12375 5.60875 4.12375 5.60875 4.25 7.25 C4 11 4 11 2.4375 13.4375 C-0.96719488 15.61999672 -3.03430012 15.63734462 -7 15 C-9.5 12.9375 -9.5 12.9375 -11 10 C-10.93977486 6.50694211 -10.63658168 4.09633511 -8.875 1.0625 C-5.95654201 -0.59129286 -3.28629724 -0.17605164 0 0 Z M-5 4 C-1 5 -1 5 -1 5 Z M-6 9 C-5.67 9.66 -5.34 10.32 -5 11 C-3.35 10.67 -1.7 10.34 0 10 C0 9.67 0 9.34 0 9 C-1.98 9 -3.96 9 -6 9 Z " fill="#E2DA9F" transform="translate(109,61)"/>
<path d="M0 0 C1.11375 0.495 1.11375 0.495 2.25 1 C5.13883312 2.22782871 5.13883312 2.22782871 9 2 C9.99 2.66 10.98 3.32 12 4 C12 4.66 12 5.32 12 6 C9.66682784 6.77772405 7.38564077 7.42415568 5 8 C8.46008142 10.30672095 10.92481479 10.48134006 15 11 C15.66 11.33 16.32 11.66 17 12 C16.33035714 20.16964286 16.33035714 20.16964286 13 23 C12.58427734 22.15115234 12.58427734 22.15115234 12.16015625 21.28515625 C11.79792969 20.55167969 11.43570313 19.81820312 11.0625 19.0625 C10.70285156 18.33160156 10.34320312 17.60070312 9.97265625 16.84765625 C9.13628173 15.03750973 9.13628173 15.03750973 8 14 C6.51361008 13.84344973 5.02050873 13.74933057 3.52734375 13.68359375 C2.17866211 13.62075195 2.17866211 13.62075195 0.80273438 13.55664062 C-0.14279297 13.51732422 -1.08832031 13.47800781 -2.0625 13.4375 C-3.01189453 13.39431641 -3.96128906 13.35113281 -4.93945312 13.30664062 C-7.29281353 13.20020724 -9.64628354 13.09818992 -12 13 C-11.12011719 11.03100586 -11.12011719 11.03100586 -10 9 C-8.66925122 8.65649371 -7.33566279 8.32387312 -6 8 C-4.23151264 6.16463663 -4.23151264 6.16463663 -2.75 3.9375 C-2.22921875 3.20402344 -1.7084375 2.47054687 -1.171875 1.71484375 C-0.78515625 1.14894531 -0.3984375 0.58304688 0 0 Z " fill="#A5A16C" transform="translate(21,49)"/>
<path d="M0 0 C2.97 0 5.94 0 9 0 C9 5.94 9 11.88 9 18 C3 18 3 18 0 16 C-0.22107787 13.2114711 -0.28107535 10.65346819 -0.1875 7.875 C-0.17396484 7.12089844 -0.16042969 6.36679688 -0.14648438 5.58984375 C-0.11109985 3.72625873 -0.05729167 1.86304022 0 0 Z " fill="#DDD798" transform="translate(9,64)"/>
<path d="M0 0 C0.66 0.99 1.32 1.98 2 3 C2.92232422 2.87431641 2.92232422 2.87431641 3.86328125 2.74609375 C4.67152344 2.64425781 5.47976562 2.54242188 6.3125 2.4375 C7.11300781 2.33308594 7.91351563 2.22867188 8.73828125 2.12109375 C11 2 11 2 14 3 C13.34 3 12.68 3 12 3 C12 4.65 12 6.3 12 8 C2.00437637 8.63019694 2.00437637 8.63019694 -2.1875 6 C-2.785625 5.34 -3.38375 4.68 -4 4 C-4.33 4.99 -4.66 5.98 -5 7 C-7.76250036 8.38125018 -9.94731099 8.19079306 -13 8 C-13.66 7.34 -14.32 6.68 -15 6 C-14.67 5.01 -14.34 4.02 -14 3 C-13.05125 3.020625 -12.1025 3.04125 -11.125 3.0625 C-8.09333717 3.22551826 -8.09333717 3.22551826 -6 2 C-3.875 2.4375 -3.875 2.4375 -2 3 C-2 2.34 -2 1.68 -2 1 C-1.34 0.67 -0.68 0.34 0 0 Z " fill="#BFA66D" transform="translate(78,68)"/>
<path d="M0 0 C-0.495 0.7425 -0.99 1.485 -1.5 2.25 C-3.31923475 5.06318188 -3.31923475 5.06318188 -3 9 C-1.70766393 10.37310707 -0.37562854 11.71034824 1 13 C1 13.66 1 14.32 1 15 C-0.65 15 -2.3 15 -4 15 C-4.33 14.01 -4.66 13.02 -5 12 C-5.66 12 -6.32 12 -7 12 C-7 11.01 -7 10.02 -7 9 C-7.99 9 -8.98 9 -10 9 C-10.33 9.66 -10.66 10.32 -11 11 C-11.99 8.69 -12.98 6.38 -14 4 C-13.01 4.33 -12.02 4.66 -11 5 C-10.34 4.34 -9.68 3.68 -9 3 C-5.92981907 0.24742399 -4.11528647 -0.34294054 0 0 Z " fill="#D2BD80" transform="translate(99,61)"/>
<path d="M0 0 C1.32 0 2.64 0 4 0 C4.33 1.65 4.66 3.3 5 5 C6.98 4.67 8.96 4.34 11 4 C11.66 5.32 12.32 6.64 13 8 C11 10 11 10 7.375 10.125 C6.26125 10.08375 5.1475 10.0425 4 10 C3.67 11.98 3.34 13.96 3 16 C2.01 16 1.02 16 0 16 C0 10.72 0 5.44 0 0 Z " fill="#D2C589" transform="translate(46,66)"/>
<path d="M0 0 C1.32 0.33 2.64 0.66 4 1 C3.01 1 2.02 1 1 1 C1.12375 2.60875 1.12375 2.60875 1.25 4.25 C1 8 1 8 -0.5625 10.4375 C-3.96719488 12.61999672 -6.03430012 12.63734462 -10 12 C-12.84248268 9.449054 -13.91018797 8.0103853 -14.25 4.1875 C-14.1675 3.465625 -14.085 2.74375 -14 2 C-13.01 3.485 -13.01 3.485 -12 5 C-8.964349 6.92257897 -7.78149076 7 -4 7 C-3.67 6.01 -3.34 5.02 -3 4 C-2.34 4 -1.68 4 -1 4 C-0.67 2.68 -0.34 1.36 0 0 Z " fill="#B29B64" transform="translate(112,64)"/>
<path d="M0 0 C2.375 -0.1875 2.375 -0.1875 5 0 C5.66 0.99 6.32 1.98 7 3 C9.56282742 3.72965366 9.56282742 3.72965366 12 4 C11.67 4.99 11.34 5.98 11 7 C10.34 6.67 9.68 6.34 9 6 C9 6.66 9 7.32 9 8 C5.7 8 2.4 8 -1 8 C-1.125 2.25 -1.125 2.25 0 0 Z " fill="#D8CD90" transform="translate(100,62)"/>
<path d="M0 0 C3.29714793 0.32971479 4.6226839 0.6226839 7 3 C6.44444444 7.55555556 6.44444444 7.55555556 5 9 C2 9.125 2 9.125 -1 9 C-2 8 -2 8 -2.1875 5.0625 C-2 2 -2 2 0 0 Z " fill="#C3B67F" transform="translate(23,64)"/>
<path d="M0 0 C4.62 0 9.24 0 14 0 C14 1.32 14 2.64 14 4 C10.37 4.33 6.74 4.66 3 5 C3 4.34 3 3.68 3 3 C2.01 3 1.02 3 0 3 C0 2.01 0 1.02 0 0 Z " fill="#E8E8A8" transform="translate(43,61)"/>
<path d="M0 0 C1.50433594 0.01353516 1.50433594 0.01353516 3.0390625 0.02734375 C3.80992188 0.03894531 4.58078125 0.05054688 5.375 0.0625 C5.045 2.3725 4.715 4.6825 4.375 7.0625 C3.715 6.4025 3.055 5.7425 2.375 5.0625 C-0.29449409 4.81934344 -0.29449409 4.81934344 -3.25 4.9375 C-4.25289063 4.95554687 -5.25578125 4.97359375 -6.2890625 4.9921875 C-7.44535156 5.02699219 -7.44535156 5.02699219 -8.625 5.0625 C-8.25 3.125 -8.25 3.125 -7.625 1.0625 C-4.98041621 -0.25979189 -2.94738699 -0.03427194 0 0 Z " fill="#E0D896" transform="translate(84.625,60.9375)"/>
<path d="M0 0 C1.11375 0.495 1.11375 0.495 2.25 1 C5.13883312 2.22782871 5.13883312 2.22782871 9 2 C9.99 2.66 10.98 3.32 12 4 C12 4.66 12 5.32 12 6 C8.0410989 7.3196337 5.22237739 8 1 8 C1.33 7.01 1.66 6.02 2 5 C2.66 5 3.32 5 4 5 C2.21858253 4.13641377 2.21858253 4.13641377 0 4 C-2.27144074 5.85432087 -2.27144074 5.85432087 -4 8 C-3.40072174 4.64404172 -2.15377564 2.62198774 0 0 Z " fill="#CEC891" transform="translate(21,49)"/>
<path d="M0 0 C2.475 0.99 2.475 0.99 5 2 C4.375 9.625 4.375 9.625 1 13 C-0.32 10.03 -1.64 7.06 -3 4 C-2.01 3.34 -1.02 2.68 0 2 C0 1.34 0 0.68 0 0 Z " fill="#CBB675" transform="translate(33,59)"/>
<path d="M0 0 C0.99 0.66 1.98 1.32 3 2 C3 2.66 3 3.32 3 4 C4.65 4.33 6.3 4.66 8 5 C7.67 5.99 7.34 6.98 7 8 C6.34 8 5.68 8 5 8 C5 8.66 5 9.32 5 10 C3.68 10 2.36 10 1 10 C0.731875 9.21625 0.46375 8.4325 0.1875 7.625 C-0.84814432 4.71885077 -0.84814432 4.71885077 -4 3 C-3.01 2.67 -2.02 2.34 -1 2 C-0.67 1.34 -0.34 0.68 0 0 Z " fill="#D7C68A" transform="translate(71,61)"/>
<path d="M0 0 C0.66 0 1.32 0 2 0 C2.33 4.29 2.66 8.58 3 13 C-0.35327639 15.23551759 -0.90743657 15.17283528 -4.6875 14.625 C-5.49574219 14.51414062 -6.30398437 14.40328125 -7.13671875 14.2890625 C-7.75160156 14.19367188 -8.36648437 14.09828125 -9 14 C-9 13.67 -9 13.34 -9 13 C-4.545 12.505 -4.545 12.505 0 12 C0 8.04 0 4.08 0 0 Z " fill="#9D8547" transform="translate(38,67)"/>
<path d="M0 0 C-0.99 0.495 -0.99 0.495 -2 1 C-2 2.65 -2 4.3 -2 6 C-5.63 6 -9.26 6 -13 6 C-13.33 5.34 -13.66 4.68 -14 4 C-11.69 4.33 -9.38 4.66 -7 5 C-7 4.34 -7 3.68 -7 3 C-7.99 2.67 -8.98 2.34 -10 2 C-6.3558226 -0.4294516 -4.28758728 -0.16179575 0 0 Z " fill="#BEA167" transform="translate(92,70)"/>
<path d="M0 0 C0.33 0 0.66 0 1 0 C1 5.94 1 11.88 1 18 C-5 18 -5 18 -6.875 16.5 C-7.24625 16.005 -7.6175 15.51 -8 15 C-7.67 14.34 -7.34 13.68 -7 13 C-6.401875 13.309375 -5.80375 13.61875 -5.1875 13.9375 C-2.91043228 15.10209704 -2.91043228 15.10209704 0 16 C0 10.72 0 5.44 0 0 Z " fill="#B7B47B" transform="translate(17,64)"/>
<path d="M0 0 C0.7425 0.391875 1.485 0.78375 2.25 1.1875 C1.26 1.5175 0.27 1.8475 -0.75 2.1875 C-1.96869929 4.69197516 -1.96869929 4.69197516 -2.75 7.1875 C-5.06 7.1875 -7.37 7.1875 -9.75 7.1875 C-9.09 6.8575 -8.43 6.5275 -7.75 6.1875 C-7.62625 5.56875 -7.5025 4.95 -7.375 4.3125 C-6.75 2.1875 -6.75 2.1875 -5 0.3125 C-2.75 -0.8125 -2.75 -0.8125 0 0 Z " fill="#95925C" transform="translate(23.75,52.8125)"/>
<path d="M0 0 C2.64 0.66 5.28 1.32 8 2 C7.67 2.99 7.34 3.98 7 5 C3.4375 6.1875 3.4375 6.1875 0 7 C0 4.69 0 2.38 0 0 Z " fill="#B8AF74" transform="translate(20,75)"/>
<path d="M0 0 C0.99 1.32 1.98 2.64 3 4 C1 6 1 6 -2.625 6.125 C-3.73875 6.08375 -4.8525 6.0425 -6 6 C-6 4.35 -6 2.7 -6 1 C-4.7934375 1.0309375 -4.7934375 1.0309375 -3.5625 1.0625 C-1.06645115 1.29633621 -1.06645115 1.29633621 0 0 Z " fill="#BCA26B" transform="translate(56,70)"/>
<path d="M0 0 C0.99 0.33 1.98 0.66 3 1 C1.9375 3 1.9375 3 0 5 C-3.5625 5.375 -3.5625 5.375 -7 5 C-7.66 4.34 -8.32 3.68 -9 3 C-7 1 -7 1 -3.9375 0.9375 C-2.4834375 0.9684375 -2.4834375 0.9684375 -1 1 C-0.67 0.67 -0.34 0.34 0 0 Z " fill="#35481B" transform="translate(29,71)"/>
<path d="M0 0 C-0.33 0.99 -0.66 1.98 -1 3 C-1.66 2.67 -2.32 2.34 -3 2 C-3 2.66 -3 3.32 -3 4 C-6.3 4 -9.6 4 -13 4 C-12 2 -12 2 -9.3125 0.875 C-6.0420565 0.01110926 -3.36293818 -0.16013991 0 0 Z " fill="#DAC583" transform="translate(112,66)"/>
<path d="M0 0 C0.99 1.485 0.99 1.485 2 3 C2.99 3.33 3.98 3.66 5 4 C5 4.99 5 5.98 5 7 C6.98 7 8.96 7 11 7 C7.77856724 9.14762184 6.7404533 9.561068 3 9 C0.59688549 6.76261752 0.03658575 5.53659096 -0.1875 2.25 C-0.125625 1.5075 -0.06375 0.765 0 0 Z " fill="#C6A869" transform="translate(98,66)"/>
<path d="M0 0 C1.32 0.33 2.64 0.66 4 1 C3.01 1 2.02 1 1 1 C1 4.63 1 8.26 1 12 C-0.32 12 -1.64 12 -3 12 C-3 10.35 -3 8.7 -3 7 C-2.01 7 -1.02 7 0 7 C0 4.69 0 2.38 0 0 Z " fill="#947D50" transform="translate(119,64)"/>
<path d="M0 0 C0.66 0 1.32 0 2 0 C3.625 2.5 3.625 2.5 5 5 C0.25 6 0.25 6 -2 6 C-2 5.34 -2 4.68 -2 4 C-2.66 3.67 -3.32 3.34 -4 3 C-2.68 2.34 -1.36 1.68 0 1 C0 0.67 0 0.34 0 0 Z " fill="#928E53" transform="translate(29,54)"/>
<path d="M0 0 C0.33 0.66 0.66 1.32 1 2 C3.32156597 2.40729228 5.6568787 2.74438677 8 3 C8.33 2.34 8.66 1.68 9 1 C9 1.66 9 2.32 9 3 C9.66 3.33 10.32 3.66 11 4 C5.72 4 0.44 4 -5 4 C-4.67 3.01 -4.34 2.02 -4 1 C-1.9375 0.3125 -1.9375 0.3125 0 0 Z " fill="#E3E4AD" transform="translate(15,57)"/>
<path d="M0 0 C2.125 0.375 2.125 0.375 4 1 C4.33 2.32 4.66 3.64 5 5 C3.35 5.66 1.7 6.32 0 7 C-0.66 5.35 -1.32 3.7 -2 2 C-1.34 1.34 -0.68 0.68 0 0 Z " fill="#E2D998" transform="translate(58,63)"/>
<path d="M0 0 C0.763125 0.0825 1.52625 0.165 2.3125 0.25 C0.8275 2.725 0.8275 2.725 -0.6875 5.25 C-2.3375 4.92 -3.9875 4.59 -5.6875 4.25 C-3.34903846 0.31153846 -3.34903846 0.31153846 0 0 Z " fill="#CFCB94" transform="translate(96.6875,60.75)"/>
<path d="M0 0 C0.66 0.99 1.32 1.98 2 3 C0.741875 3.04125 -0.51625 3.0825 -1.8125 3.125 C-2.52019531 3.14820312 -3.22789063 3.17140625 -3.95703125 3.1953125 C-6 3 -6 3 -9 1 C-5.95699684 -0.52150158 -3.345915 -0.23899393 0 0 Z " fill="#E6E4A3" transform="translate(86,61)"/>
<path d="M0 0 C1.98 0 3.96 0 6 0 C5.67 1.65 5.34 3.3 5 5 C3.35 4.67 1.7 4.34 0 4 C0 2.68 0 1.36 0 0 Z " fill="#D9C492" transform="translate(21,67)"/>
<path d="M0 0 C2.625 0.375 2.625 0.375 5 1 C5.33 2.32 5.66 3.64 6 5 C5.67 4.34 5.34 3.68 5 3 C4.1028125 3.309375 4.1028125 3.309375 3.1875 3.625 C1 4 1 4 -2 2 C-1.34 1.34 -0.68 0.68 0 0 Z " fill="#C9BF85" transform="translate(23,64)"/>
<path d="M0 0 C4.29 0.33 8.58 0.66 13 1 C13 1.33 13 1.66 13 2 C9.7 2.33 6.4 2.66 3 3 C3 2.34 3 1.68 3 1 C2.01 0.67 1.02 0.34 0 0 Z " fill="#E0DC9F" transform="translate(43,63)"/>
<path d="M0 0 C2.04119788 1.61594832 4.04072937 3.2856382 6 5 C6 5.66 6 6.32 6 7 C3.6875 6.8125 3.6875 6.8125 1 6 C-0.8125 3.4375 -0.8125 3.4375 -2 1 C-1.34 0.67 -0.68 0.34 0 0 Z " fill="#B4A46A" transform="translate(33,54)"/>
<path d="M0 0 C0.99 0 1.98 0 3 0 C3 2.31 3 4.62 3 7 C2.01 7 1.02 7 0 7 C0 4.69 0 2.38 0 0 Z " fill="#D8C987" transform="translate(116,64)"/>
<path d="M0 0 C0.66 0.33 1.32 0.66 2 1 C0.515 4.465 0.515 4.465 -1 8 C-1.66 7.67 -2.32 7.34 -3 7 C-1.125 1.125 -1.125 1.125 0 0 Z " fill="#CFAC6C" transform="translate(36,64)"/>
<path d="M0 0 C1.65 0 3.3 0 5 0 C4.67 0.99 4.34 1.98 4 3 C2.02 3.33 0.04 3.66 -2 4 C-1.34 2.68 -0.68 1.36 0 0 Z " fill="#EAE7A7" transform="translate(66,61)"/>
<path d="M0 0 C0 2.31 0 4.62 0 7 C-0.99 7 -1.98 7 -3 7 C-3 5.02 -3 3.04 -3 1 C-1 0 -1 0 0 0 Z " fill="#B9955D" transform="translate(49,75)"/>
<path d="M0 0 C3.465 1.485 3.465 1.485 7 3 C7 3.66 7 4.32 7 5 C4.36 4.67 1.72 4.34 -1 4 C-0.67 2.68 -0.34 1.36 0 0 Z " fill="#D0B172" transform="translate(78,70)"/>
<path d="M0 0 C2.125 0.9375 2.125 0.9375 4 2 C4 2.66 4 3.32 4 4 C2.35 4 0.7 4 -1 4 C-1.33 3.01 -1.66 2.02 -2 1 C-1.34 0.67 -0.68 0.34 0 0 Z " fill="#B29561" transform="translate(96,72)"/>
<path d="M0 0 C2.475 0.495 2.475 0.495 5 1 C5 1.66 5 2.32 5 3 C4.01 3 3.02 3 2 3 C1.67 3.66 1.34 4.32 1 5 C0.67 3.35 0.34 1.7 0 0 Z " fill="#D2B173" transform="translate(46,72)"/>
</svg>
