<?xml version="1.0" encoding="UTF-8"?>
<svg version="1.1" xmlns="http://www.w3.org/2000/svg" width="250" height="158">
<path d="M0 0 C6.25101447 4.04477407 9.78139156 9.94635912 11.53125 17.203125 C11.8125 19.125 11.8125 19.125 12 22 C14.31 22 16.62 22 19 22 C19 26.95 19 31.9 19 37 C3.16 37 -12.68 37 -29 37 C-29 44.92 -29 52.84 -29 61 C-18.44 61 -7.88 61 3 61 C3 60.01 3 59.02 3 58 C-3.6 57.67 -10.2 57.34 -17 57 C-16.16583712 52.82918558 -15.21232487 49.96469139 -13.4375 46.1875 C-12.75494141 44.72376953 -12.75494141 44.72376953 -12.05859375 43.23046875 C-11.53458984 42.12638672 -11.53458984 42.12638672 -11 41 C-8.4784979 40.91827064 -5.95970083 40.85916627 -3.4375 40.8125 C-2.73302734 40.78736328 -2.02855469 40.76222656 -1.30273438 40.73632812 C4.65437845 40.65397173 9.33554441 41.66462059 13.9609375 45.71875 C14.42757812 46.3065625 14.89421875 46.894375 15.375 47.5 C15.85710937 48.0878125 16.33921875 48.675625 16.8359375 49.28125 C19.83768972 53.71336737 19.4327988 58.8705328 19 64 C17.07278083 69.67458978 13.35898258 73.32050871 8 76 C6.30456409 76.09051069 4.60556022 76.11754872 2.90771484 76.11352539 C1.83191162 76.11340454 0.7561084 76.11328369 -0.35229492 76.11315918 C-1.48642822 76.10804321 -2.62056152 76.10292725 -3.7890625 76.09765625 C-4.82893311 76.09664917 -5.86880371 76.09564209 -6.94018555 76.09460449 C-10.83513487 76.08936135 -14.73006851 76.07540015 -18.625 76.0625 C-27.32875 76.041875 -36.0325 76.02125 -45 76 C-45 58.18 -45 40.36 -45 22 C-31.47 22 -17.94 22 -4 22 C-6.74484314 15.77589785 -6.74484314 15.77589785 -12 13 C-18.08378725 12.73452565 -21.38260423 13.9597787 -26 18 C-27.64913882 16.54540569 -29.29421782 15.08620743 -30.9375 13.625 C-31.85402344 12.81289062 -32.77054688 12.00078125 -33.71484375 11.1640625 C-36 9 -36 9 -37 7 C-28.65242202 -4.8481752 -12.57699485 -6.63150638 0 0 Z " fill="#8C3293" transform="translate(231,63)"/>
<path d="M0 0 C-2.15215151 9.30806039 -4.9585437 18.34701548 -7.96484375 27.40625 C-8.44458675 28.86238701 -8.92395432 30.31864777 -9.40296936 31.77502441 C-10.65525635 35.57899759 -11.91266748 39.38125704 -13.17120361 43.1831665 C-14.44222612 47.0259975 -15.70814921 50.87050731 -16.97460938 54.71484375 C-20.96318404 66.81652181 -24.96368052 78.91414469 -29 91 C-32.90433059 89.69855647 -34.34369417 87.25365412 -36.6875 84.0625 C-37.57336248 82.88216936 -38.46009317 81.70248988 -39.34765625 80.5234375 C-39.78996582 79.93272461 -40.23227539 79.34201172 -40.68798828 78.73339844 C-43.70166059 74.75180681 -46.86164826 70.88349112 -50 67 C-52.07535607 69.64028108 -53.72678097 72.22782269 -55.1875 75.25 C-55.53167969 75.95640625 -55.87585938 76.6628125 -56.23046875 77.390625 C-56.61138672 78.18726562 -56.61138672 78.18726562 -57 79 C-60.70651975 72.73013139 -62.31089478 64.18337668 -61 57 C-57.91829878 50.79101982 -52.25518137 46.36163199 -47.125 41.875 C-45.76242097 40.6129205 -44.40429356 39.34601697 -43.05078125 38.07421875 C-39.7492631 34.99141916 -36.39426111 31.98024915 -33 29 C-38.8572275 32.8689473 -44.64662205 36.81798253 -50.375 40.875 C-51.10887939 41.39022217 -51.84275879 41.90544434 -52.59887695 42.4362793 C-55.8957311 44.75872587 -59.16295415 47.09503837 -62.33203125 49.58984375 C-63.27433594 50.32332031 -64.21664062 51.05679688 -65.1875 51.8125 C-66.38439453 52.78123047 -66.38439453 52.78123047 -67.60546875 53.76953125 C-70.84446156 55.43394028 -72.48915975 54.81851441 -76 54 C-78.68481445 52.81665039 -78.68481445 52.81665039 -81.36328125 51.34765625 C-82.81637695 50.55391602 -82.81637695 50.55391602 -84.29882812 49.74414062 C-85.29333984 49.18919922 -86.28785156 48.63425781 -87.3125 48.0625 C-88.32634766 47.51142578 -89.34019531 46.96035156 -90.38476562 46.39257812 C-97.86556577 42.26886847 -97.86556577 42.26886847 -99 40 C-75.88361423 30.31266114 -52.76057074 20.64144116 -29.625 11 C-28.57449463 10.5620813 -27.52398926 10.1241626 -26.44165039 9.67297363 C-23.4534586 8.42740526 -20.46505142 7.18235528 -17.4765625 5.9375 C-16.14493576 5.38240753 -16.14493576 5.38240753 -14.78640747 4.81610107 C-13.19283435 4.15261421 -11.59851551 3.49091372 -10.00323486 2.83154297 C-8.36242954 2.15044453 -6.72788242 1.45428743 -5.09521484 0.75390625 C-3 -0 -3 -0 0 0 Z " fill="#8B3292" transform="translate(209,0)"/>
<path d="M0 0 C1.55055336 -0.00218285 1.55055336 -0.00218285 3.13243103 -0.00440979 C5.30486894 -0.00275892 7.47731954 0.00871059 9.6496582 0.02954102 C12.95900524 0.05854258 16.2667517 0.05012216 19.57617188 0.03710938 C21.6966223 0.04334661 23.81706771 0.05173743 25.9375 0.0625 C26.91791763 0.05956436 27.89833527 0.05662872 28.90846252 0.05360413 C38.39424586 0.18279323 44.96785961 2.65505706 51.9140625 9.27734375 C57.74259184 15.78147865 58.62054012 22.46204772 58.3515625 31.05078125 C57.47122454 37.80259062 54.78723074 43.18911767 49.58984375 47.62109375 C48.25953125 48.54921875 48.25953125 48.54921875 46.90234375 49.49609375 C42.98786816 45.77466079 39.40581024 42.35576399 36.90234375 37.49609375 C37.54171875 37.02171875 38.18109375 36.54734375 38.83984375 36.05859375 C41.76037176 32.43005895 42.09952379 29.08874541 41.90234375 24.49609375 C39.98274189 19.30187694 38.27014992 19.17999683 32.90234375 16.49609375 C32.57234375 29.03609375 32.24234375 41.57609375 31.90234375 54.49609375 C25.96034986 54.61144738 20.02230337 54.71081182 14.08007812 54.77075195 C12.06269097 54.79575955 10.04539316 54.82977715 8.02832031 54.87329102 C-14.75576232 55.35218494 -14.75576232 55.35218494 -23.2043457 47.55078125 C-28.84094552 41.80218605 -31.19449525 36.04737773 -31.47265625 28.05859375 C-31.14853929 19.02071689 -28.50845811 13.35797185 -22.62109375 6.5390625 C-15.68889111 0.92676841 -8.70195531 -0.09991643 0 0 Z M-13.97265625 20.30859375 C-16.18943667 24.61900013 -16.40357687 27.45236458 -15.03515625 32.12109375 C-12.89815925 35.84360465 -11.07450723 37.9600689 -7.09765625 39.49609375 C-2.95640499 39.97547876 1.11578764 39.8725576 5.27734375 39.74609375 C11.03171875 39.62234375 11.03171875 39.62234375 16.90234375 39.49609375 C16.90234375 31.57609375 16.90234375 23.65609375 16.90234375 15.49609375 C11.67390625 15.40328125 11.67390625 15.40328125 6.33984375 15.30859375 C5.25501709 15.28128174 4.17019043 15.25396973 3.05249023 15.22583008 C-3.52992997 15.16951832 -9.00911751 15.5105063 -13.97265625 20.30859375 Z " fill="#8B3292" transform="translate(122.09765625,84.50390625)"/>
<path d="M0 0 C0.83623901 0.00402832 1.67247803 0.00805664 2.53405762 0.01220703 C5.61538078 0.03291052 8.69638766 0.08875357 11.77734375 0.140625 C18.68671875 0.223125 25.59609375 0.305625 32.71484375 0.390625 C32.71484375 18.210625 32.71484375 36.030625 32.71484375 54.390625 C18.71484375 54.390625 18.71484375 54.390625 15.46484375 51.453125 C14.88734375 50.4425 14.30984375 49.431875 13.71484375 48.390625 C10.02822933 46.54731779 5.74764281 47.03441562 1.71484375 47.390625 C-2.07037121 49.00135477 -4.04440562 50.97053193 -6.28515625 54.390625 C-13.26862767 53.94487151 -19.18542888 51.59587501 -24.12109375 46.4921875 C-30.21980034 38.72749276 -31.18606206 31.08391535 -30.28515625 21.390625 C-28.65891935 14.35982834 -25.27607815 8.53580676 -19.28515625 4.390625 C-12.7817535 0.78253116 -7.372897 -0.17098524 0 0 Z M-13.72265625 21.078125 C-15.70304816 25.27655585 -15.80448463 28.02364114 -14.28515625 32.390625 C-12.20156741 35.84833695 -10.20625391 38.08359245 -6.28515625 39.390625 C-4.43905093 39.47301669 -2.59010461 39.49805859 -0.7421875 39.48828125 C0.22485107 39.48578369 1.19188965 39.48328613 2.18823242 39.48071289 C3.41388916 39.47160889 4.6395459 39.46250488 5.90234375 39.453125 C9.80046875 39.4325 13.69859375 39.411875 17.71484375 39.390625 C17.71484375 31.470625 17.71484375 23.550625 17.71484375 15.390625 C14.04359375 15.32875 10.37234375 15.266875 6.58984375 15.203125 C5.44370605 15.17581299 4.29756836 15.14850098 3.11669922 15.12036133 C-3.99376741 15.0623854 -8.72954348 15.5728981 -13.72265625 21.078125 Z " fill="#8B3292" transform="translate(30.28515625,84.609375)"/>
<path d="M0 0 C0.83265381 0.00523682 1.66530762 0.01047363 2.52319336 0.01586914 C3.42231445 0.0190918 4.32143555 0.02231445 5.24780273 0.02563477 C6.66609375 0.03820312 6.66609375 0.03820312 8.11303711 0.05102539 C9.06243164 0.05553711 10.01182617 0.06004883 10.98999023 0.06469727 C13.34356776 0.07652429 15.69702188 0.09300514 18.05053711 0.11352539 C17.44109253 0.90581543 17.44109253 0.90581543 16.81933594 1.71411133 C16.28332764 2.41826172 15.74731934 3.12241211 15.19506836 3.84790039 C14.66502197 4.54109375 14.13497559 5.23428711 13.58886719 5.94848633 C7.24854028 14.87183485 6.20207126 23.27838723 7.05053711 34.11352539 C8.44071616 39.79123684 10.37794113 44.54645761 14.05053711 49.11352539 C12.61339704 52.47181643 10.84076312 54.51323237 8.11303711 56.92602539 C7.42338867 57.5512207 6.73374023 58.17641602 6.02319336 58.82055664 C5.04672852 59.46057617 5.04672852 59.46057617 4.05053711 60.11352539 C-1.24259674 58.34914744 -3.34883487 52.82177138 -5.94946289 48.11352539 C-11.57261956 35.24903746 -10.65286674 22.37108876 -6.94946289 9.11352539 C-3.38825348 0.19731219 -3.38825348 0.19731219 0 0 Z " fill="#8B3291" transform="translate(78.949462890625,84.886474609375)"/>
<path d="M0 0 C0.7031987 0.00565979 1.4063974 0.01131958 2.13090515 0.01715088 C4.36272123 0.03942731 6.59289336 0.08960127 8.82421875 0.140625 C10.34307566 0.16070157 11.86195791 0.17895032 13.38085938 0.1953125 C17.0916742 0.23926143 20.80153585 0.30822579 24.51171875 0.390625 C24.51171875 2.370625 24.51171875 4.350625 24.51171875 6.390625 C22.20171875 6.390625 19.89171875 6.390625 17.51171875 6.390625 C17.51171875 11.010625 17.51171875 15.630625 17.51171875 20.390625 C15.53171875 20.390625 13.55171875 20.390625 11.51171875 20.390625 C11.51171875 15.770625 11.51171875 11.150625 11.51171875 6.390625 C9.20171875 6.720625 6.89171875 7.050625 4.51171875 7.390625 C4.51171875 11.680625 4.51171875 15.970625 4.51171875 20.390625 C-5.38731549 20.87350472 -5.38731549 20.87350472 -10.05078125 18.828125 C-13.11063942 15.76826683 -13.88923407 13.65883613 -14.48828125 9.390625 C-13.7900504 6.05463318 -12.77355799 4.67567196 -10.36645508 2.27050781 C-6.67318182 -0.14175821 -4.38611524 -0.06989825 0 0 Z " fill="#8B3292" transform="translate(110.48828125,58.609375)"/>
<path d="M0 0 C2.75329021 1.79562405 4.52627461 3.05254922 6 6 C6.763125 5.195625 7.52625 4.39125 8.3125 3.5625 C12.0948332 -0.04391072 14.6583329 -0.12166667 19.6875 -0.0625 C20.68136719 -0.05347656 21.67523438 -0.04445312 22.69921875 -0.03515625 C23.83810547 -0.01775391 23.83810547 -0.01775391 25 0 C25 1.98 25 3.96 25 6 C24.06027344 6.09087891 24.06027344 6.09087891 23.1015625 6.18359375 C22.28429687 6.26738281 21.46703125 6.35117188 20.625 6.4375 C19.81289062 6.51871094 19.00078125 6.59992188 18.1640625 6.68359375 C15.95727195 6.89090114 15.95727195 6.89090114 14 8 C14 9.32 14 10.64 14 12 C17.63 12.66 21.26 13.32 25 14 C25 15.98 25 17.96 25 20 C13.21595725 20.55721393 13.21595725 20.55721393 9 17 C7.1875 15.3125 7.1875 15.3125 6 14 C5.38125 14.804375 4.7625 15.60875 4.125 16.4375 C1.49255652 19.61191714 0.83246707 19.90394611 -3.25 20.375 C-6.98037178 20.00196282 -9.1265573 19.36173839 -11.88671875 16.7578125 C-13.80548103 13.72818784 -13.80731469 10.89304278 -13.58203125 7.3828125 C-12.95216115 4.80414968 -12.35292868 3.68200819 -10.4375 1.875 C-6.46058559 -0.29422604 -4.45828211 -0.72953707 0 0 Z M-4 6 C-4.99 6.66 -5.98 7.32 -7 8 C-6.67 9.65 -6.34 11.3 -6 13 C-5.01 13.33 -4.02 13.66 -3 14 C-2.01 13.34 -1.02 12.68 0 12 C-0.33 10.35 -0.66 8.7 -1 7 C-1.99 6.67 -2.98 6.34 -4 6 Z " fill="#8B3292" transform="translate(56,59)"/>
<path d="M0 0 C3.62531608 1.8741654 5.69121639 4.07364917 7 8 C7.39308695 12.79566077 7.48270142 15.06907584 5.25 19.375 C1.8538211 23.33720871 0.34221819 23.87010792 -4.875 24.375 C-9.18785966 24.26235068 -11.70279071 22.82617939 -15 20 C-17.54481052 15.8198645 -17.83428051 11.77439737 -17 7 C-13.02714657 -0.11864443 -7.60824315 -1.06026053 0 0 Z " fill="#8B3292" transform="translate(42,133)"/>
<path d="M0 0 C0 0.66 0 1.32 0 2 C3.63 2 7.26 2 11 2 C10.67 5.3 10.34 8.6 10 12 C9.34 12 8.68 12 8 12 C7.505 10.515 7.505 10.515 7 9 C6.34 9 5.68 9 5 9 C5 9.99 5 10.98 5 12 C0.95965637 12.69929024 -2.06921849 13.14119463 -6 12 C-7.423125 12.061875 -7.423125 12.061875 -8.875 12.125 C-12.57532869 11.97698685 -14.81483781 10.82009268 -18 9 C-18 9.99 -18 10.98 -18 12 C-19.99954746 12.04254356 -22.00041636 12.04080783 -24 12 C-24.33 11.67 -24.66 11.34 -25 11 C-27.03341513 11.29048788 -29.06689209 11.58527864 -31.08984375 11.94140625 C-31.72019531 11.96074219 -32.35054687 11.98007813 -33 12 C-33.66 11.34 -34.32 10.68 -35 10 C-34.54545455 4.54545455 -34.54545455 4.54545455 -32 2 C-29.47802734 1.77294922 -29.47802734 1.77294922 -26.3359375 1.8046875 C-25.21445313 1.81113281 -24.09296875 1.81757813 -22.9375 1.82421875 C-21.761875 1.84097656 -20.58625 1.85773438 -19.375 1.875 C-18.19164062 1.88402344 -17.00828125 1.89304688 -15.7890625 1.90234375 C-12.85917477 1.92597188 -9.9296866 1.95891486 -7 2 C-7 1.34 -7 0.68 -7 0 C-4.3333581 -1.33332095 -2.83319697 -0.67102033 0 0 Z M-25 4 C-24 6 -24 6 -24 6 Z M-18 4 C-17.67 4.66 -17.34 5.32 -17 6 C-16.34 5.34 -15.68 4.68 -15 4 C-15.99 4 -16.98 4 -18 4 Z M-31 5 C-31.33 6.65 -31.66 8.3 -32 10 C-31.71125 9.360625 -31.4225 8.72125 -31.125 8.0625 C-30 6 -30 6 -28 5 C-28.99 5 -29.98 5 -31 5 Z M0 5 C0.33 5.66 0.66 6.32 1 7 C1.33 6.34 1.66 5.68 2 5 C1.34 5 0.68 5 0 5 Z M-1 9 C0 11 0 11 0 11 Z " fill="#8C3292" transform="translate(194,144)"/>
<path d="M0 0 C1.093125 0.226875 2.18625 0.45375 3.3125 0.6875 C3.8075 2.1725 3.8075 2.1725 4.3125 3.6875 C6.2925 3.6875 8.2725 3.6875 10.3125 3.6875 C10.90982819 6.45014289 11.3125 8.84782769 11.3125 11.6875 C11.6187434 13.02731486 11.94701555 14.36261887 12.3125 15.6875 C11.755625 15.39875 11.19875 15.11 10.625 14.8125 C8.22755355 13.6461747 5.79653061 12.6535119 3.3125 11.6875 C2.9825 12.3475 2.6525 13.0075 2.3125 13.6875 C0.3125 12.6875 -1.6875 11.6875 -3.6875 10.6875 C-3.6875 11.6775 -3.6875 12.6675 -3.6875 13.6875 C-4.3475 13.6875 -5.0075 13.6875 -5.6875 13.6875 C-5.6875 14.3475 -5.6875 15.0075 -5.6875 15.6875 C-8.15550047 14.53576645 -9.73533565 13.63966435 -11.6875 11.6875 C-12.0175 12.3475 -12.3475 13.0075 -12.6875 13.6875 C-13.3475 13.6875 -14.0075 13.6875 -14.6875 13.6875 C-15.0175 11.7075 -15.3475 9.7275 -15.6875 7.6875 C-15.6875 9.6675 -15.6875 11.6475 -15.6875 13.6875 C-20.53731776 14.03391555 -23.5568377 13.28117168 -27.6875 10.6875 C-28.0175 9.6975 -28.3475 8.7075 -28.6875 7.6875 C-28.0275 7.3575 -27.3675 7.0275 -26.6875 6.6875 C-27.3475 6.3575 -28.0075 6.0275 -28.6875 5.6875 C-28.6875 5.0275 -28.6875 4.3675 -28.6875 3.6875 C-26.80804688 3.70490234 -26.80804688 3.70490234 -24.890625 3.72265625 C-23.23958483 3.73203716 -21.58854304 3.74113704 -19.9375 3.75 C-19.1125 3.75837891 -18.2875 3.76675781 -17.4375 3.77539062 C-16.23867187 3.78022461 -16.23867187 3.78022461 -15.015625 3.78515625 C-13.91589355 3.79301147 -13.91589355 3.79301147 -12.79394531 3.80102539 C-10.61451309 3.68356642 -8.76054646 3.36892322 -6.6875 2.6875 C-6.0378125 1.883125 -6.0378125 1.883125 -5.375 1.0625 C-3.6875 -0.3125 -3.6875 -0.3125 0 0 Z M-1.6875 1.6875 C-2.3475 2.3475 -3.0075 3.0075 -3.6875 3.6875 C-1.7075 3.6875 0.2725 3.6875 2.3125 3.6875 C0.9925 3.0275 -0.3275 2.3675 -1.6875 1.6875 Z M-19.6875 5.6875 C-19.6875 7.6675 -19.6875 9.6475 -19.6875 11.6875 C-19.0275 11.3575 -18.3675 11.0275 -17.6875 10.6875 C-18.0175 9.0375 -18.3475 7.3875 -18.6875 5.6875 C-19.0175 5.6875 -19.3475 5.6875 -19.6875 5.6875 Z M-3.6875 5.6875 C-3.3575 6.3475 -3.0275 7.0075 -2.6875 7.6875 C-2.3575 7.0275 -2.0275 6.3675 -1.6875 5.6875 C-2.3475 5.6875 -3.0075 5.6875 -3.6875 5.6875 Z M-7.6875 8.6875 C-7.6875 11.6875 -7.6875 11.6875 -7.6875 11.6875 Z " fill="#8B3292" transform="translate(236.6875,142.3125)"/>
<path d="M0 0 C13.28595989 -0.36905444 13.28595989 -0.36905444 16.43359375 1.2578125 C18 3 18 3 18.42578125 4.97265625 C18.11111111 10.77777778 18.11111111 10.77777778 17 13 C16.34 13 15.68 13 15 13 C16.65 15.31 18.3 17.62 20 20 C18.39667209 20.08121924 16.79215974 20.13929134 15.1875 20.1875 C13.84751953 20.23970703 13.84751953 20.23970703 12.48046875 20.29296875 C9.58352485 19.95081002 8.77444972 19.24606427 7 17 C6.67 17.99 6.34 18.98 6 20 C4.02 20 2.04 20 0 20 C0 13.4 0 6.8 0 0 Z M6 6 C6 6.66 6 7.32 6 8 C7.98 8 9.96 8 12 8 C12 7.34 12 6.68 12 6 C10.02 6 8.04 6 6 6 Z " fill="#8C3293" transform="translate(24,59)"/>
<path d="M0 0 C12 0 24 0 36 0 C36 2.97 36 5.94 36 9 C32.79226388 10.06924537 30.37015182 10.16684956 27 10.1875 C25.948125 10.20167969 24.89625 10.21585938 23.8125 10.23046875 C21 10 21 10 18 8 C18 7.01 18 6.02 18 5 C17.67 6.65 17.34 8.3 17 10 C14.69 10 12.38 10 10 10 C10.33 8.68 10.66 7.36 11 6 C10.34 5.67 9.68 5.34 9 5 C9 6.65 9 8.3 9 10 C2.84765625 10.09765625 2.84765625 10.09765625 1 10 C0 9 0 9 -0.09765625 6.93359375 C-0.08605469 6.10988281 -0.07445313 5.28617188 -0.0625 4.4375 C-0.05347656 3.61121094 -0.04445313 2.78492188 -0.03515625 1.93359375 C-0.02355469 1.29550781 -0.01195313 0.65742188 0 0 Z M3 5 C3 5.99 3 6.98 3 8 C4.32 8 5.64 8 7 8 C7 7.01 7 6.02 7 5 C5.68 5 4.36 5 3 5 Z M26 5 C26.33 5.99 26.66 6.98 27 8 C27.99 8 28.98 8 30 8 C30 7.01 30 6.02 30 5 C28.68 5 27.36 5 26 5 Z M21 6 C22.485 6.99 22.485 6.99 24 8 C24 7.34 24 6.68 24 6 C23.01 6 22.02 6 21 6 Z " fill="#8B3292" transform="translate(120,146)"/>
<path d="M0 0 C1.98 0 3.96 0 6 0 C6.33 0.99 6.66 1.98 7 3 C7.33 2.505 7.66 2.01 8 1.5 C11.17572747 -0.88179561 14.10246066 -0.19168226 18 0 C16.44499019 3.81684226 13.96404505 6.19195732 11 9 C12.17325643 11.87981123 13.37938667 13.37938667 15.625 15.625 C18 18 18 18 18 20 C10.49230769 20.36923077 10.49230769 20.36923077 8 18.5 C7.67 18.005 7.34 17.51 7 17 C6.67 17.99 6.34 18.98 6 20 C4.02 20 2.04 20 0 20 C0 13.4 0 6.8 0 0 Z " fill="#8B3391" transform="translate(82,59)"/>
<path d="M0 0 C7.92 0 15.84 0 24 0 C24 0.66 24 1.32 24 2 C21.69 2 19.38 2 17 2 C17 2.66 17 3.32 17 4 C20.465 3.505 20.465 3.505 24 3 C24 4.98 24 6.96 24 9 C24.99 9.33 25.98 9.66 27 10 C26.67 10.66 26.34 11.32 26 12 C25.28457031 11.855625 24.56914063 11.71125 23.83203125 11.5625 C16.96715723 10.28366189 10.49999405 9.83689221 3.51953125 10.02734375 C1 10 1 10 0 9 C0 6.03 0 3.06 0 0 Z M3 3 C3 4.65 3 6.3 3 8 C4.65 8 6.3 8 8 8 C6.68 7.67 5.36 7.34 4 7 C3.67 5.68 3.34 4.36 3 3 Z M17 6 C17 6.66 17 7.32 17 8 C18.32 8 19.64 8 21 8 C21 7.34 21 6.68 21 6 C19.68 6 18.36 6 17 6 Z " fill="#8C3292" transform="translate(53,146)"/>
<path d="M0 0 C2.81256281 -0.02684312 5.62487241 -0.04676188 8.4375 -0.0625 C9.23994141 -0.07087891 10.04238281 -0.07925781 10.86914062 -0.08789062 C12.91295221 -0.0965143 14.95683902 -0.0522815 17 0 C18 1 18 1 18.09765625 3.06640625 C18.08605469 3.89011719 18.07445313 4.71382812 18.0625 5.5625 C18.05347656 6.38878906 18.04445313 7.21507812 18.03515625 8.06640625 C18.02355469 8.70449219 18.01195313 9.34257812 18 10 C16.35 9.34 14.7 8.68 13 8 C13 7.01 13 6.02 13 5 C12.67 6.65 12.34 8.3 12 10 C10.18757948 10.02687279 8.37504767 10.04633715 6.5625 10.0625 C5.55316406 10.07410156 4.54382813 10.08570313 3.50390625 10.09765625 C1 10 1 10 0 9 C-0.07179964 7.48071962 -0.08392007 5.95832518 -0.0625 4.4375 C-0.05347656 3.61121094 -0.04445313 2.78492188 -0.03515625 1.93359375 C-0.02355469 1.29550781 -0.01195313 0.65742188 0 0 Z M2 5 C2.33 5.99 2.66 6.98 3 8 C3.99 8 4.98 8 6 8 C6 7.01 6 6.02 6 5 C4.68 5 3.36 5 2 5 Z " fill="#8A3391" transform="translate(84,146)"/>
<path d="M0 0 C4.29 0 8.58 0 13 0 C13 3.3 13 6.6 13 10 C11.35 10 9.7 10 8 10 C7.67 9.01 7.34 8.02 7 7 C5.68 7.33 4.36 7.66 3 8 C3.66 8 4.32 8 5 8 C5 8.66 5 9.32 5 10 C3.35 10 1.7 10 0 10 C0 6.7 0 3.4 0 0 Z " fill="#8C3293" transform="translate(103,146)"/>
<path d="M0 0 C1.65 0 3.3 0 5 0 C5 0.99 5 1.98 5 3 C3.35 3 1.7 3 0 3 C0 2.01 0 1.02 0 0 Z " fill="#8A3292" transform="translate(78,150)"/>
</svg>
