<?xml version="1.0" encoding="UTF-8"?>
<svg version="1.1" xmlns="http://www.w3.org/2000/svg" width="300" height="390" viewBox="0 0 300 390">
<path d="M0 0 C99 0 198 0 300 0 C300 128.7 300 257.4 300 390 C201 390 102 390 0 390 C0 261.3 0 132.6 0 0 Z " fill="#F5F5F5" transform="translate(0,0)"/>
<path d="M0 0 C3.19231372 2.49139266 5.33874396 5.63784197 6.796875 9.40234375 C6.796875 11.05234375 6.796875 12.70234375 6.796875 14.40234375 C19.996875 14.40234375 33.196875 14.40234375 46.796875 14.40234375 C46.796875 27.93234375 46.796875 41.46234375 46.796875 55.40234375 C43.826875 56.06234375 40.856875 56.72234375 37.796875 57.40234375 C33.49765266 59.48080618 33.49765266 59.48080618 31.796875 63.40234375 C31.24 64.82546875 31.24 64.82546875 30.671875 66.27734375 C29.02098169 72.1733913 29.58393583 76.19000543 32.46484375 81.50390625 C34.65899082 84.63104841 37.33110031 86.80644355 40.796875 88.40234375 C42.776875 88.73234375 44.756875 89.06234375 46.796875 89.40234375 C46.796875 102.60234375 46.796875 115.80234375 46.796875 129.40234375 C33.74901666 129.49275827 20.70136683 129.56612554 7.65326595 129.60959244 C1.59432766 129.63045569 -4.46438495 129.65875089 -10.52319336 129.70410156 C-16.37168531 129.74760341 -22.21996034 129.77149036 -28.06860161 129.78185272 C-30.29851126 129.78923622 -32.52840922 129.80365448 -34.75822639 129.82526398 C-37.88473166 129.85435489 -41.01034378 129.85829727 -44.13696289 129.85644531 C-45.05622055 129.87082642 -45.97547821 129.88520752 -46.92259216 129.90002441 C-53.43513437 129.85835806 -57.7875486 128.62303217 -62.66307163 124.02569962 C-68.25507324 117.83089163 -68.49302116 111.53557845 -68.43017578 103.63330078 C-68.43046783 102.66682114 -68.43075989 101.70034149 -68.43106079 100.70457458 C-68.42967199 97.52300919 -68.41413184 94.34168053 -68.3984375 91.16015625 C-68.39470578 88.9491285 -68.39185956 86.73809909 -68.38986206 84.52706909 C-68.38223819 78.71723844 -68.36260032 72.90750831 -68.3404541 67.09771729 C-68.31996888 61.16541911 -68.31085461 55.23310463 -68.30078125 49.30078125 C-68.27935331 37.66791755 -68.24418124 26.03515475 -68.203125 14.40234375 C-55.003125 14.40234375 -41.803125 14.40234375 -28.203125 14.40234375 C-27.873125 12.09234375 -27.543125 9.78234375 -27.203125 7.40234375 C-24.81296944 3.51512839 -21.68510655 0.33833209 -17.828125 -2.09765625 C-11.37980769 -3.32590717 -5.83070073 -3.27685381 0 0 Z " fill="#6574AE" transform="translate(91.203125,146.59765625)"/>
<path d="M0 0 C0.97608719 -0.00029205 1.95217438 -0.00058411 2.95783997 -0.00088501 C6.17730667 0.00050596 9.39654063 0.0160564 12.6159668 0.03173828 C14.85084405 0.03546923 17.08572294 0.03831582 19.32060242 0.04031372 C25.19785085 0.04794368 31.07500016 0.0675868 36.95220947 0.08972168 C42.95144307 0.11019377 48.9506927 0.11931836 54.94995117 0.12939453 C66.71757981 0.15083322 78.48510892 0.18601027 90.25268555 0.22705078 C90.25268555 13.42705078 90.25268555 26.62705078 90.25268555 40.22705078 C92.23268555 40.55705078 94.21268555 40.88705078 96.25268555 41.22705078 C100.99029611 43.78536048 103.93953635 46.33385056 106.25268555 51.22705078 C107.07235616 57.40681463 106.99464498 63.03659093 103.25268555 68.22705078 C98.92777109 72.85776727 96.79685246 74.1363563 90.25268555 75.22705078 C90.25268555 88.42705078 90.25268555 101.62705078 90.25268555 115.22705078 C77.05268555 115.22705078 63.85268555 115.22705078 50.25268555 115.22705078 C49.26268555 111.26705078 49.26268555 111.26705078 48.25268555 107.22705078 C45.19596056 102.72687232 42.41864841 100.01526869 37.25268555 98.22705078 C31.91122663 97.4360852 27.39692324 97.8357001 22.82299805 100.82470703 C18.30366096 104.86063244 16.42206067 109.38017518 15.25268555 115.22705078 C2.05268555 115.22705078 -11.14731445 115.22705078 -24.74731445 115.22705078 C-24.81515763 102.45722592 -24.87016964 89.68752125 -24.90275097 76.91755676 C-24.91839029 70.98761282 -24.93959716 65.05779884 -24.97363281 59.12792969 C-25.00628769 53.40263597 -25.02418051 47.67746708 -25.03194618 41.9520874 C-25.03747866 39.77046749 -25.04828222 37.58885421 -25.06450462 35.4072876 C-25.08636005 32.34575772 -25.08927795 29.28474017 -25.08789062 26.22314453 C-25.09867645 25.32618362 -25.10946228 24.42922272 -25.12057495 23.50508118 C-25.08942936 17.13095956 -24.26539141 11.31796042 -20.09887695 6.20361328 C-19.52911133 5.75759766 -18.9593457 5.31158203 -18.37231445 4.85205078 C-17.80770508 4.39056641 -17.2430957 3.92908203 -16.66137695 3.45361328 C-11.18380728 -0.05650279 -6.32024169 -0.04955419 0 0 Z " fill="#44AB9A" transform="translate(47.747314453125,22.77294921875)"/>
<path d="M0 0 C12.80436988 -0.04519108 25.60868676 -0.08188182 38.41311836 -0.10362434 C44.35877573 -0.11405984 50.30437568 -0.12821491 56.25 -0.15087891 C61.98824503 -0.17261542 67.72643484 -0.18457039 73.46471786 -0.18975449 C75.65356185 -0.19344877 77.84240283 -0.20066274 80.0312233 -0.21146011 C83.09786755 -0.22598561 86.16428389 -0.22797748 89.23095703 -0.22705078 C90.13510849 -0.23424133 91.03925995 -0.24143188 91.97080994 -0.24884033 C99.17281143 -0.22530311 104.66144743 0.80193566 110 6 C114.06909207 11.78754691 114.56322396 16.09092519 114.45410156 23.06616211 C114.45468567 24.05229492 114.45526978 25.03842773 114.45587158 26.05444336 C114.45309732 29.29577521 114.42203567 32.53617365 114.390625 35.77734375 C114.38316029 38.03177895 114.37746845 40.28622066 114.37347412 42.54066467 C114.35823603 48.4607652 114.31896947 54.38047025 114.2746582 60.30041504 C114.2336664 66.34670666 114.21545473 72.39306246 114.1953125 78.43945312 C114.15247374 90.29317004 114.08213834 102.14649019 114 114 C100.8 114 87.6 114 74 114 C74 116.31 74 118.62 74 121 C71.99837904 125.23037622 68.9738481 128.3074858 65.1875 131 C59.38601243 132.82007453 54.32458174 132.89994737 48.75 130.3125 C45.22200178 128.28442917 42.43726393 126.32354172 40 123 C39.505 118.545 39.505 118.545 39 114 C26.13 114 13.26 114 0 114 C0 101.13 0 88.26 0 75 C2.97 73.68 5.94 72.36 9 71 C13.35377316 66.46481962 15.14559764 63.880669 15.1875 57.6875 C15.20876953 56.27017578 15.20876953 56.27017578 15.23046875 54.82421875 C14.92337692 51.06104254 14.2030998 48.19999903 11.484375 45.48828125 C10.91203125 45.10027344 10.3396875 44.71226563 9.75 44.3125 C9.18796875 43.91675781 8.6259375 43.52101562 8.046875 43.11328125 C5.44242155 41.61916418 5.44242155 41.61916418 0 40 C0 26.8 0 13.6 0 0 Z " fill="#EA9E53" transform="translate(162,23)"/>
<path d="M0 0 C12.87 0 25.74 0 39 0 C40.32 2.97 41.64 5.94 43 9 C46.2791549 12.85300701 49.24552199 15.65000857 54.3671875 16.30078125 C59.64460267 16.32544207 63.57454633 16.19044335 68 13 C72.01535355 8.67913042 72.99245743 6.0452554 74 0 C87.2 0 100.4 0 114 0 C114.0904545 12.90020375 114.16380484 25.80019603 114.20724869 38.70064545 C114.22810204 44.69117539 114.2563791 50.68147665 114.30175781 56.671875 C114.34529505 62.45553325 114.36915404 68.23897186 114.37950897 74.02278137 C114.38688613 76.22674516 114.40129202 78.43069725 114.42292023 80.63456726 C114.45205828 83.72734328 114.45595157 86.81921765 114.45410156 89.91210938 C114.46848267 90.81842102 114.48286377 91.72473267 114.49768066 92.6585083 C114.45535489 99.21993401 113.07589189 104.59764688 108.58795547 109.56191254 C102.8345578 114.75006902 96.63955304 114.14241868 89.34448242 114.11352539 C87.89498199 114.11374443 87.89498199 114.11374443 86.41619873 114.1139679 C83.22926573 114.11327248 80.04239152 114.1054974 76.85546875 114.09765625 C74.64301078 114.09579075 72.4305524 114.09436747 70.21809387 114.09336853 C64.40006364 114.08955372 58.58205844 114.07973225 52.76403809 114.06866455 C45.78060676 114.05662785 38.79716706 114.05204326 31.81372833 114.04621124 C21.20913482 114.03651997 10.60459622 114.01735613 0 114 C0 99.81 0 85.62 0 71 C-2.31 70.67 -4.62 70.34 -7 70 C-12.40692892 67.29653554 -15.7127427 63.54220039 -18 58 C-19.00829228 52.37829494 -18.27344567 47.75177597 -15 43 C-9.90434497 37.97511796 -7.43027907 36 0 36 C0 24.12 0 12.24 0 0 Z " fill="#A1619D" transform="translate(162,162)"/>
<path d="M0 0 C41.58 0 83.16 0 126 0 C126 6.93 126 13.86 126 21 C124.35 21 122.7 21 121 21 C121 34.2 121 47.4 121 61 C116.38 61 111.76 61 107 61 C107 47.8 107 34.6 107 21 C104.36 21 101.72 21 99 21 C99 34.2 99 47.4 99 61 C94.38 61 89.76 61 85 61 C84.86979167 57.74479167 84.73958333 54.48958333 84.609375 51.234375 C83.8963417 47.44981364 83.13896256 46.19297384 80 44 C77.4149692 43.51973083 77.4149692 43.51973083 74.75 43.75 C73.41195312 43.80414063 73.41195312 43.80414063 72.046875 43.859375 C71.37140625 43.90578125 70.6959375 43.9521875 70 44 C70 45.98 70 47.96 70 50 C71.98 50.33 73.96 50.66 76 51 C76 53.31 76 55.62 76 58 C73.45651575 58.13593443 70.92038504 58.23448907 68.375 58.3125 C67.66214844 58.35439453 66.94929688 58.39628906 66.21484375 58.43945312 C62.16648804 58.53230532 59.73595687 58.20712546 56.5390625 55.60546875 C52.65781612 51.62271285 52.6093752 48.94918342 52.640625 43.55078125 C53.21960034 39.44131496 54.99914929 37.78650423 58 35 C60.43387753 33.78306124 62.41838846 33.68040104 65.125 33.4375 C66.03507812 33.35371094 66.94515625 33.26992188 67.8828125 33.18359375 C68.58148438 33.12300781 69.28015625 33.06242187 70 33 C67.3016484 29.41891628 64.06142018 29.1310993 59.8125 28.3125 C58.54019531 28.06113281 57.26789063 27.80976563 55.95703125 27.55078125 C54.98121094 27.36902344 54.00539062 27.18726563 53 27 C53 25.35 53 23.7 53 22 C51.02 22 49.04 22 47 22 C47 34.87 47 47.74 47 61 C42.38 61 37.76 61 33 61 C33 56.05 33 51.1 33 46 C31.35 45.67 29.7 45.34 28 45 C27.938125 46.0725 27.87625 47.145 27.8125 48.25 C27 52 27 52 24.5625 54.375 C20.33038415 57.05878079 17.92531632 57.10841197 12.875 57.0625 C11.59367187 57.05347656 10.31234375 57.04445313 8.9921875 57.03515625 C7.51105469 57.01775391 7.51105469 57.01775391 6 57 C6 54.36 6 51.72 6 49 C7.98 48.34 9.96 47.68 12 47 C12 41.72 12 36.44 12 31 C10.02 30.01 8.04 29.02 6 28 C6 25.69 6 23.38 6 21 C4.02 21 2.04 21 0 21 C0 14.07 0 7.14 0 0 Z " fill="#444444" transform="translate(24,307)"/>
<path d="M0 0 C3.31838097 1.29422992 6.35040287 2.70080575 8 6 C8.125 9.0625 8.125 9.0625 8 12 C7 13 7 13 4.4375 13.0625 C3.633125 13.041875 2.82875 13.02125 2 13 C2 12.01 2 11.02 2 10 C-0.50965614 10.70339566 -0.50965614 10.70339566 -3 12 C-3.88693303 14.04105639 -3.88693303 14.04105639 -4 16 C-1.20261218 17.5067748 1.40322432 18.48224115 4.5 19.1875 C5.2528125 19.36667969 6.005625 19.54585938 6.78125 19.73046875 C9.3207813 20.17321615 9.3207813 20.17321615 13 19 C13 13.06 13 7.12 13 1 C44.35 1 75.7 1 108 1 C108 7.93 108 14.86 108 22 C107.505 22.495 107.505 22.495 107 23 C105.35 23 103.7 23 102 23 C102 35.87 102 48.74 102 62 C97.38 62 92.76 62 88 62 C87.98582031 60.68644531 87.97164063 59.37289062 87.95703125 58.01953125 C87.91012012 56.28381949 87.86187279 54.54814348 87.8125 52.8125 C87.80669922 51.94818359 87.80089844 51.08386719 87.79492188 50.19335938 C87.64131091 45.73864136 87.43261226 43.58321447 84.7109375 39.9140625 C80.68540626 37.07182863 78.81406513 37.4475663 74 38 C71.77947138 39.80599761 71.77947138 39.80599761 71.734375 42.3125 C71.74210937 43.6428125 71.74210937 43.6428125 71.75 45 C71.74484375 45.886875 71.7396875 46.77375 71.734375 47.6875 C71.77947138 50.19400239 71.77947138 50.19400239 74 52 C76.57061311 52.64767793 76.57061311 52.64767793 79 53 C79 55.31 79 57.62 79 60 C76.62374823 60.10883596 74.25256024 60.18766696 71.875 60.25 C71.20984375 60.28351563 70.5446875 60.31703125 69.859375 60.3515625 C64.72295168 60.45227668 61.8928447 59.30371983 58 56 C54.3460756 51.07881858 55.46203789 43.78309264 56 38 C58.21234024 33.06477946 61.06477946 30.21234024 66 28 C73.20873648 27.30768437 80.19240406 27.40663012 87 30 C87 27.69 87 25.38 87 23 C74.79 23 62.58 23 50 23 C50 35.87 50 48.74 50 62 C45.38 62 40.76 62 36 62 C36 48.8 36 35.6 36 22 C33.03 22 30.06 22 27 22 C27 35.2 27 48.4 27 62 C22.38 62 17.76 62 13 62 C10.5625 59.25 10.5625 59.25 9 56 C5.58612645 53.5107172 3.28051381 52.18391272 -0.91015625 51.58203125 C-4.33626224 51.08530956 -6.90685726 50.58293612 -10 49 C-13.34715292 43.92027627 -16 38.17657262 -16 32 C-11.71 29.69 -7.42 27.38 -3 25 C-4.4025 24.29875 -5.805 23.5975 -7.25 22.875 C-11.4635697 20.51274675 -13.93031082 18.4993243 -16 14 C-16.55025477 10.57619252 -16.78306293 8.28873087 -14.94140625 5.2578125 C-10.49789814 -0.25371982 -6.77815513 -0.8293012 0 0 Z " fill="#464646" transform="translate(168,306)"/>
<path d="M0 0 C0.33 0 0.66 0 1 0 C1 33.33 1 66.66 1 101 C13.54 100.67 26.08 100.34 39 100 C39 100.99 39 101.98 39 103 C25.8 103 12.6 103 -1 103 C-1.02257681 90.1610865 -1.0409301 77.32218614 -1.05181217 64.48325729 C-1.05703456 58.52187107 -1.06412057 52.56049911 -1.07543945 46.59912109 C-1.08629114 40.84792185 -1.0922817 35.09673634 -1.09487724 29.34552765 C-1.09672736 27.1494551 -1.10034009 24.95338331 -1.10573006 22.75731659 C-1.1129707 19.68552516 -1.11398965 16.61379076 -1.11352539 13.54199219 C-1.11712067 12.63065018 -1.12071594 11.71930817 -1.12442017 10.78034973 C-1.1230455 9.94184982 -1.12167084 9.10334991 -1.12025452 8.23944092 C-1.12117631 7.51306805 -1.1220981 6.78669518 -1.12304783 6.038311 C-0.995039 3.91782009 -0.57900229 2.03984092 0 0 Z " fill="#6FB4A6" transform="translate(24,35)"/>
<path d="M0 0 C0.33 0 0.66 0 1 0 C1 32.67 1 65.34 1 99 C-11.87 99 -24.74 99 -38 99 C-37.01 99.99 -36.02 100.98 -35 102 C-35.33 102.66 -35.66 103.32 -36 104 C-36.99 104 -37.98 104 -39 104 C-39.12375 104.7425 -39.2475 105.485 -39.375 106.25 C-39.9780107 108.90324709 -40.41984459 110.78778243 -42 113 C-44.5625 113.625 -44.5625 113.625 -47 114 C-47.33 114.66 -47.66 115.32 -48 116 C-50 116.625 -50 116.625 -53 117 C-53.66515625 117.08894531 -54.3303125 117.17789063 -55.015625 117.26953125 C-61.00999223 117.72015676 -64.46431241 115.98624526 -69.34765625 112.60546875 C-69.89292969 112.07566406 -70.43820313 111.54585938 -71 111 C-71 110.01 -71 109.02 -71 108 C-70.278125 108.61875 -69.55625 109.2375 -68.8125 109.875 C-63.46910997 113.91222802 -58.59803149 114.90539026 -52 114 C-46.71436626 112.17950775 -43.52092289 108.94488721 -41 104 C-40.67 101.69 -40.34 99.38 -40 97 C-26.8 97 -13.6 97 0 97 C0 64.99 0 32.98 0 0 Z " fill="#F9E3C9" transform="translate(276,40)"/>
<path d="M0 0 C0.97608719 -0.00029205 1.95217438 -0.00058411 2.95783997 -0.00088501 C6.17730667 0.00050596 9.39654063 0.0160564 12.6159668 0.03173828 C14.85084405 0.03546923 17.08572294 0.03831582 19.32060242 0.04031372 C25.19785085 0.04794368 31.07500016 0.0675868 36.95220947 0.08972168 C42.95144307 0.11019377 48.9506927 0.11931836 54.94995117 0.12939453 C66.71757981 0.15083322 78.48510892 0.18601027 90.25268555 0.22705078 C90.25268555 13.42705078 90.25268555 26.62705078 90.25268555 40.22705078 C89.92268555 40.22705078 89.59268555 40.22705078 89.25268555 40.22705078 C89.25268555 27.68705078 89.25268555 15.14705078 89.25268555 2.22705078 C56.25268555 2.22705078 23.25268555 2.22705078 -10.74731445 2.22705078 C-11.07731445 3.21705078 -11.40731445 4.20705078 -11.74731445 5.22705078 C-12.73731445 5.55705078 -13.72731445 5.88705078 -14.74731445 6.22705078 C-15.73731445 7.71205078 -15.73731445 7.71205078 -16.74731445 9.22705078 C-18.06731445 8.56705078 -19.38731445 7.90705078 -20.74731445 7.22705078 C-13.89213243 1.16898295 -9.08196921 -0.07120767 0 0 Z " fill="#60AB99" transform="translate(47.747314453125,22.77294921875)"/>
<path d="M0 0 C0.66 0.66 1.32 1.32 2 2 C1.01 2 0.02 2 -1 2 C-1 15.2 -1 28.4 -1 42 C-14.2 42 -27.4 42 -41 42 C-36.73239341 39.8661967 -33.78240263 39.73858488 -29.171875 39.8046875 C-28.50752441 39.80670166 -27.84317383 39.80871582 -27.15869141 39.81079102 C-24.68905686 39.82121498 -22.21952113 39.84913755 -19.75 39.875 C-14.2225 39.91625 -8.695 39.9575 -3 40 C-3 27.13 -3 14.26 -3 1 C-2.01 0.67 -1.02 0.34 0 0 Z " fill="#6EBBA7" transform="translate(139,96)"/>
<path d="M0 0 C3.96 0 7.92 0 12 0 C12 5.28 12 10.56 12 16 C10.68 16 9.36 16 8 16 C8 13.36 8 10.72 8 8 C5.36 8 2.72 8 0 8 C0 5.36 0 2.72 0 0 Z " fill="#000000" transform="translate(288,0)"/>
<path d="M0 0 C3.96 0 7.92 0 12 0 C12 5.28 12 10.56 12 16 C6 13 6 13 4.609375 10.5546875 C4.18398437 9.22824219 4.18398437 9.22824219 3.75 7.875 C3.20830198 6.23565073 2.63326828 4.60619864 2 3 C1.34 2.67 0.68 2.34 0 2 C0 1.34 0 0.68 0 0 Z " fill="#E1E1E1" transform="translate(97,328)"/>
<path d="M0 0 C1.32 0 2.64 0 4 0 C4 4.62 4 9.24 4 14 C0.04 14 -3.92 14 -8 14 C-8 12.02 -8 10.04 -8 8 C-5.36 8 -2.72 8 0 8 C0 5.36 0 2.72 0 0 Z " fill="#000000" transform="translate(296,376)"/>
<path d="M0 0 C4.29 0 8.58 0 13 0 C13 4.62 13 9.24 13 14 C11.35 13.67 9.7 13.34 8 13 C7.79375 11.906875 7.5875 10.81375 7.375 9.6875 C6.34336062 5.7714341 6.34336062 5.7714341 2.875 4.0625 C1.92625 3.711875 0.9775 3.36125 0 3 C0 2.01 0 1.02 0 0 Z " fill="#E0E0E0" transform="translate(44,328)"/>
<path d="M0 0 C12.87 0 25.74 0 39 0 C38.67 1.32 38.34 2.64 38 4 C37.505 3.505 37.505 3.505 37 3 C34.26298822 2.83989519 31.5483241 2.74053172 28.80859375 2.68359375 C27.57883568 2.6524221 27.57883568 2.6524221 26.32423401 2.62062073 C23.69541099 2.55503506 21.06648496 2.49619874 18.4375 2.4375 C16.65949439 2.39432333 14.88149935 2.35070933 13.10351562 2.30664062 C8.73578366 2.19934457 4.36794773 2.09810296 0 2 C0 1.34 0 0.68 0 0 Z " fill="#FADFC4" transform="translate(162,137)"/>
<path d="M0 0 C2.64 0 5.28 0 8 0 C8 2.64 8 5.28 8 8 C5.36 8 2.72 8 0 8 C0 5.36 0 2.72 0 0 Z " fill="#000000" transform="translate(0,0)"/>
<path d="M0 0 C0.66 0.33 1.32 0.66 2 1 C0.95295574 3.25517225 0.08485927 4.91514073 -1.6875 6.6875 C-3.77736211 10.36963801 -2.71731112 13.95540235 -2 18 C-3.32 18 -4.64 18 -6 18 C-6.34829047 12.1951589 -6.25063466 8.0565428 -3 3 C-1.3125 1.125 -1.3125 1.125 0 0 Z " fill="#9E739C" transform="translate(150,202)"/>
<path d="M0 0 C0 3.3 0 6.6 0 10 C-3.3 8.35 -6.6 6.7 -10 5 C-10 4.34 -10 3.68 -10 3 C-8.70990357 2.49596232 -7.41786211 1.99690074 -6.125 1.5 C-5.04605469 1.08234375 -5.04605469 1.08234375 -3.9453125 0.65625 C-2 0 -2 0 0 0 Z " fill="#EBEBEB" transform="translate(181,342)"/>
<path d="M0 0 C2.64 0 5.28 0 8 0 C8 1.98 8 3.96 8 6 C5.36 6 2.72 6 0 6 C0 4.02 0 2.04 0 0 Z " fill="#000000" transform="translate(0,384)"/>
<path d="M0 0 C0.33 0 0.66 0 1 0 C1.33 1.98 1.66 3.96 2 6 C1.38125 6.2475 0.7625 6.495 0.125 6.75 C-2.13023317 7.81201152 -2.13023317 7.81201152 -2.9375 9.9375 C-4.43131974 12.83726773 -6.05605473 13.66184306 -9 15 C-12.3125 15.1875 -12.3125 15.1875 -15 15 C-15 14.67 -15 14.34 -15 14 C-14.113125 13.773125 -13.22625 13.54625 -12.3125 13.3125 C-5.87322387 10.7610887 -3.09974228 5.85506876 0 0 Z " fill="#F4DFF5" transform="translate(276,261)"/>
<path d="M0 0 C0.86625 0.33 1.7325 0.66 2.625 1 C8.5629676 2.74573789 14.87784069 2.1528417 21 2 C20.67 2.66 20.34 3.32 20 4 C15.21010828 5.59663057 10.41731613 5.91347425 5.6328125 4.10546875 C3.7178505 3.14117294 1.85320514 2.07822844 0 1 C0 0.67 0 0.34 0 0 Z " fill="#DDA46C" transform="translate(207,150)"/>
<path d="M0 0 C0.66 0 1.32 0 2 0 C2.33 1.32 2.66 2.64 3 4 C9.93 4.495 9.93 4.495 17 5 C17 5.33 17 5.66 17 6 C11.72 6 6.44 6 1 6 C0.67 4.02 0.34 2.04 0 0 Z " fill="#E7EFFC" transform="translate(97,155)"/>
<path d="M0 0 C0.33 0.99 0.66 1.98 1 3 C-0.21484375 4.82421875 -0.21484375 4.82421875 -1.9375 6.6875 C-2.50339844 7.31011719 -3.06929687 7.93273437 -3.65234375 8.57421875 C-4.09707031 9.04472656 -4.54179687 9.51523438 -5 10 C-5.66 9.67 -6.32 9.34 -7 9 C-7 8.34 -7 7.68 -7 7 C-6.01 7 -5.02 7 -4 7 C-3.896875 6.401875 -3.79375 5.80375 -3.6875 5.1875 C-2.91123545 2.71756736 -1.92911079 1.67748765 0 0 Z " fill="#55A695" transform="translate(152,85)"/>
<path d="M0 0 C0 0.66 0 1.32 0 2 C-0.639375 2.28875 -1.27875 2.5775 -1.9375 2.875 C-4.15206079 3.82823451 -4.15206079 3.82823451 -5 6 C-7.31 6 -9.62 6 -12 6 C-3 0 -3 0 0 0 Z " fill="#956C93" transform="translate(233,174)"/>
<path d="M0 0 C2.01136276 2.55991624 3.62845496 5.04590299 5 8 C3.33333333 8 1.66666667 8 0 8 C0 5.36 0 2.72 0 0 Z " fill="#EDEDED" transform="translate(151,318)"/>
<path d="M0 0 C1.32 0 2.64 0 4 0 C4 1.65 4 3.3 4 5 C2.68 4.67 1.36 4.34 0 4 C0 2.68 0 1.36 0 0 Z " fill="#DBDBDB" transform="translate(52,337)"/>
<path d="M0 0 C0.66 0 1.32 0 2 0 C1.67 1.98 1.34 3.96 1 6 C0.01 6 -0.98 6 -2 6 C-1.125 1.125 -1.125 1.125 0 0 Z " fill="#DADADA" transform="translate(166,316)"/>
<path d="M0 0 C0.99 0 1.98 0 3 0 C3 2.31 3 4.62 3 7 C2.01 7 1.02 7 0 7 C0 4.69 0 2.38 0 0 Z " fill="#535353" transform="translate(244,359)"/>
<path d="M0 0 C-1.28610235 2.5722047 -2.33393981 3.00974907 -5 4 C-7.25 3.625 -7.25 3.625 -9 3 C-5.55930376 0.70620251 -4.27709699 0 0 0 Z " fill="#E6F0F8" transform="translate(136,202)"/>
<path d="M0 0 C2.95409701 1.37154504 5.44008376 2.98863724 8 5 C7.67 5.66 7.34 6.32 7 7 C3.42895561 5.12050295 1.45255699 3.82946843 0 0 Z " fill="#FCE8D0" transform="translate(168,65)"/>
</svg>
