<?xml version="1.0" encoding="UTF-8"?>
<svg version="1.1" xmlns="http://www.w3.org/2000/svg" width="97" height="110" viewBox="14.264 9.812 96.514 110.188">
<path d="M0 0 C2.47962925 1.10045562 4.49829806 1.16805145 7.203125 1.26953125 C14.32814632 1.84029397 19.55158171 3.36958425 24.60351562 8.54638672 C28.59169509 14.29323458 27.73383412 21.27372105 27.6796875 27.98828125 C27.68306078 29.46366779 27.68791765 30.93905162 27.69418335 32.41442871 C27.70153081 35.49774791 27.69091946 38.58033996 27.66748047 41.66357422 C27.63899227 45.60135534 27.65540794 49.53743236 27.68534279 53.47515106 C27.70347448 56.51915151 27.69763128 59.56275279 27.68470383 62.60676575 C27.68138593 64.05792954 27.68539967 65.50913045 27.69710159 66.96025085 C27.7863726 81.13972333 27.7863726 81.13972333 23.71820068 85.60289001 C16.20730448 91.30095286 7.9444603 91.47792502 -1.1484375 91.390625 C-2.99651505 91.39280785 -2.99651505 91.39280785 -4.88192749 91.39503479 C-7.47209044 91.39338307 -10.06226395 91.38190404 -12.65234375 91.36108398 C-16.60459232 91.33206636 -20.55550251 91.34050492 -24.5078125 91.35351562 C-27.03386065 91.34727914 -29.55990459 91.3388889 -32.0859375 91.328125 C-33.84715439 91.33252846 -33.84715439 91.33252846 -35.64395142 91.33702087 C-42.79241751 91.25520887 -49.35553106 90.98627874 -55.04296875 86.140625 C-55.49800781 85.54378906 -55.95304687 84.94695312 -56.421875 84.33203125 C-57.13150391 83.43291016 -57.13150391 83.43291016 -57.85546875 82.515625 C-60.67769895 78.46294149 -60.57573869 73.88799841 -60.97070312 69.09960938 C-61.36493975 65.36308346 -61.98159449 62.55135273 -63.93359375 59.3125 C-69.67003912 49.75175771 -69.61973422 36.74479133 -67.07421875 26.08203125 C-65.89891733 22.87735086 -64.57235034 19.9142184 -62.984375 16.89453125 C-62.5615625 16.06566406 -62.13875 15.23679687 -61.703125 14.3828125 C-57.87019972 7.82004219 -52.32475333 3.9061623 -45.984375 -0.10546875 C-45.30246094 -0.53988281 -44.62054688 -0.97429688 -43.91796875 -1.421875 C-30.66307724 -8.92098898 -12.96871833 -7.22469938 0 0 Z M-42.77734375 24.77734375 C-48.5987043 31.87796624 -50.62746531 40.00342529 -50.33203125 49.09765625 C-49.15817882 58.5412331 -44.91046755 66.77452657 -37.62109375 72.87109375 C-28.72789994 79.4296555 -20.91031971 80.71862927 -9.984375 79.89453125 C-1.91795367 78.52099201 4.64410764 73.98589328 9.80859375 67.71875 C16.09950177 58.72508149 18.13645624 50.92038279 17.015625 39.89453125 C15.26071344 31.11997347 10.74410025 24.70215764 4.015625 18.89453125 C-12.0040302 8.69167618 -29.81034794 11.16058562 -42.77734375 24.77734375 Z " fill="#E51F28" transform="translate(82.984375,16.10546875)"/>
<path d="M0 0 C6.91138583 -0.5194361 13.25270969 -0.25448764 19 4 C25.35548355 10.51243865 24.73414247 17.40334299 24.6640625 26.09375 C24.66743578 27.56913654 24.67229265 29.04452037 24.67855835 30.51989746 C24.68590581 33.60321666 24.67529446 36.68580871 24.65185547 39.76904297 C24.62336727 43.70682409 24.63978294 47.64290111 24.66971779 51.58061981 C24.68784948 54.62462026 24.68200628 57.66822154 24.66907883 60.7122345 C24.66576093 62.16339829 24.66977467 63.6145992 24.68147659 65.0657196 C24.7707476 79.24519208 24.7707476 79.24519208 20.70257568 83.70835876 C13.19167948 89.40642161 4.9288353 89.58339377 -4.1640625 89.49609375 C-6.01214005 89.4982766 -6.01214005 89.4982766 -7.89755249 89.50050354 C-10.48771544 89.49885182 -13.07788895 89.48737279 -15.66796875 89.46655273 C-19.62021732 89.43753511 -23.57112751 89.44597367 -27.5234375 89.45898438 C-30.04948565 89.45274789 -32.57552959 89.44435765 -35.1015625 89.43359375 C-36.86277939 89.43799721 -36.86277939 89.43799721 -38.65957642 89.44248962 C-45.80804251 89.36067762 -52.37115606 89.09174749 -58.05859375 84.24609375 C-58.74115234 83.35083984 -58.74115234 83.35083984 -59.4375 82.4375 C-59.91058594 81.83808594 -60.38367188 81.23867187 -60.87109375 80.62109375 C-63.22793386 77.23670397 -63.28189676 74.46379014 -63.5625 70.375 C-63.64628906 69.18648438 -63.73007812 67.99796875 -63.81640625 66.7734375 C-63.87699219 65.85820313 -63.93757813 64.94296875 -64 64 C-60.01488983 66.17046179 -57.17692243 68.71699175 -54 71.9375 C-44.91474885 80.24644131 -34.7219922 81.80615595 -22.8125 81.33203125 C-17.60580422 80.87857926 -12.91807052 79.72342642 -8 78 C-6.1746875 77.4121875 -6.1746875 77.4121875 -4.3125 76.8125 C-3.549375 76.544375 -2.78625 76.27625 -2 76 C-2 75.34 -2 74.68 -2 74 C-1.26007813 73.56429687 -0.52015625 73.12859375 0.2421875 72.6796875 C3.29202501 70.82213774 4.94579069 68.93660731 7.125 66.125 C7.78757812 65.28195313 8.45015625 64.43890625 9.1328125 63.5703125 C11.91109379 59.7458165 14.16293268 56.33745935 15.1875 51.6875 C15.455625 50.470625 15.72375 49.25375 16 48 C16.66 48 17.32 48 18 48 C17.6778674 32.74702121 17.23132131 18.56946862 6 7 C4.04860918 5.26210927 2.03643376 3.63908083 0 2 C0 1.34 0 0.68 0 0 Z " fill="#31AA4A" transform="translate(86,18)"/>
<path d="M0 0 C2.97851562 0.24414062 2.97851562 0.24414062 5.95703125 0.48828125 C5.62703125 1.80828125 5.29703125 3.12828125 4.95703125 4.48828125 C6.80428177 5.17987526 6.80428177 5.17987526 8.95703125 5.48828125 C9.94703125 4.82828125 10.93703125 4.16828125 11.95703125 3.48828125 C15.3125 3.29296875 15.3125 3.29296875 19.14453125 3.36328125 C20.41683594 3.38132813 21.68914062 3.399375 23 3.41796875 C24.46373047 3.45277344 24.46373047 3.45277344 25.95703125 3.48828125 C25.84120014 5.03066391 25.71386553 6.57218397 25.58203125 8.11328125 C25.51242188 8.97179688 25.4428125 9.8303125 25.37109375 10.71484375 C24.91026808 13.80150627 24.01421301 16.55739524 22.95703125 19.48828125 C20.8534963 19.56930185 18.74907173 19.62748032 16.64453125 19.67578125 C15.47277344 19.71058594 14.30101562 19.74539062 13.09375 19.78125 C9.95703125 19.48828125 9.95703125 19.48828125 8.08203125 18.17578125 C6.45951947 15.74201358 6.275733 13.35659703 5.95703125 10.48828125 C4.96703125 11.47828125 3.97703125 12.46828125 2.95703125 13.48828125 C3.94703125 13.81828125 4.93703125 14.14828125 5.95703125 14.48828125 C5.95703125 16.13828125 5.95703125 17.78828125 5.95703125 19.48828125 C0.68623597 20.68618927 0.68623597 20.68618927 -2.1875 19.90625 C-4.04296875 18.48828125 -4.04296875 18.48828125 -4.7578125 15.625 C-4.83128906 14.48675781 -4.90476563 13.34851563 -4.98046875 12.17578125 C-5.07199219 11.04527344 -5.16351563 9.91476563 -5.2578125 8.75 C-4.99488942 4.75834964 -4.31416925 1.0311112 0 0 Z M6.95703125 6.48828125 C7.95703125 8.48828125 7.95703125 8.48828125 7.95703125 8.48828125 Z M14.95703125 9.48828125 C14.62703125 10.80828125 14.29703125 12.12828125 13.95703125 13.48828125 C15.27703125 13.15828125 16.59703125 12.82828125 17.95703125 12.48828125 C17.62703125 11.49828125 17.29703125 10.50828125 16.95703125 9.48828125 C16.29703125 9.48828125 15.63703125 9.48828125 14.95703125 9.48828125 Z " fill="#B34E30" transform="translate(47.04296875,54.51171875)"/>
<path d="M0 0 C6.91138583 -0.5194361 13.25270969 -0.25448764 19 4 C25.35919524 10.49454824 24.71561538 17.63574302 24.62890625 26.19921875 C24.62973585 27.6817899 24.63219868 29.16436094 24.63621521 30.64692688 C24.63906396 33.74284794 24.6244587 36.83804179 24.59692383 39.93383789 C24.56275154 43.89863952 24.56889697 47.86214944 24.5875864 51.82701397 C24.59815844 54.88374074 24.58921851 57.94016737 24.57420158 60.99686623 C24.56902674 62.45887167 24.56949313 63.92090854 24.57574654 65.38290977 C24.58120364 67.42417852 24.55796311 69.46546298 24.53344727 71.5065918 C24.52724869 72.66684372 24.52105011 73.82709564 24.5146637 75.02250671 C23.899671 78.58043517 22.76089 79.76203975 20 82 C20.52268466 79.23723823 21.10869587 76.6739124 22 74 C22.08770177 72.29716578 22.11765393 70.59107252 22.11352539 68.88598633 C22.11344986 67.84513382 22.11337433 66.80428131 22.11329651 65.73188782 C22.10555458 64.04895882 22.10555458 64.04895882 22.09765625 62.33203125 C22.09553383 60.60710701 22.09553383 60.60710701 22.09336853 58.84733582 C22.08776429 55.16903092 22.07521104 51.49078655 22.0625 47.8125 C22.05748555 45.32096442 22.05292255 42.82942789 22.04882812 40.33789062 C22.03779347 34.22523971 22.02105118 28.11262418 22 22 C21.34 22 20.68 22 20 22 C20 21.01 20 20.02 20 19 C18.35 18.34 16.7 17.68 15 17 C15 16.34 15 15.68 15 15 C14.01 15 13.02 15 12 15 C10.60546875 13.42578125 10.60546875 13.42578125 9.1875 11.3125 C7.20345658 8.50301496 5.32929891 6.25391617 2.625 4.125 C1.75875 3.42375 0.8925 2.7225 0 2 C0 1.34 0 0.68 0 0 Z " fill="#54AF4C" transform="translate(86,18)"/>
<path d="M0 0 C2.10353495 -0.0810206 4.20795952 -0.13919907 6.3125 -0.1875 C7.48425781 -0.22230469 8.65601562 -0.25710937 9.86328125 -0.29296875 C13 0 13 0 14.86328125 1.3359375 C16.62053464 3.90841154 16.87842225 5.89976742 17 9 C14.77647059 14.61176471 14.77647059 14.61176471 12 16 C9.3276379 16.13415472 6.67749512 16.04318541 4 16 C3.67 17.65 3.34 19.3 3 21 C0.69 21 -1.62 21 -4 21 C-3.39700836 13.76410027 -1.8849413 7.00629124 0 0 Z M6 6 C6 7.32 6 8.64 6 10 C6.99 9.67 7.98 9.34 9 9 C9 8.01 9 7.02 9 6 C8.01 6 7.02 6 6 6 Z " fill="#58A94C" transform="translate(75,58)"/>
<path d="M0 0 C5.71467903 5.07838073 7.64993604 11.98374261 8.171875 19.46289062 C8.33673799 24.98167917 8.20968618 30.48408857 8 36 C7.34 36 6.68 36 6 36 C6.020625 37.051875 6.04125 38.10375 6.0625 39.1875 C5.05334791 47.62220406 -2.87013945 56.60131562 -9 62 C-9.99 62 -10.98 62 -12 62 C-12 62.66 -12 63.32 -12 64 C-24.59192578 70.86832315 -38.47706905 72.17647984 -52.3125 68.25 C-56.5341277 66.9151817 -58.65790855 65.80489942 -61 62 C-59.58194169 62.28482368 -58.16559621 62.57818144 -56.75 62.875 C-55.96109375 63.03742188 -55.1721875 63.19984375 -54.359375 63.3671875 C-52 64 -52 64 -49.828125 65.1328125 C-49.22484375 65.41898437 -48.6215625 65.70515625 -48 66 C-47.01 65.505 -47.01 65.505 -46 65 C-46.33 63.68 -46.66 62.36 -47 61 C-46.03513672 61.433125 -46.03513672 61.433125 -45.05078125 61.875 C-35.68170667 65.7242061 -25.74877551 66.90949176 -16.12109375 63.09375 C-6.98704391 58.38374272 -1.58183084 51.62999767 2.12109375 42.12109375 C3.07368342 38.73834199 3.41044033 35.62947467 3.625 32.125 C3.69976562 30.97257812 3.77453125 29.82015625 3.8515625 28.6328125 C3.92503906 27.32957031 3.92503906 27.32957031 4 26 C4.99 27.485 4.99 27.485 6 29 C6.35666982 21.8137636 5.83413065 16.61297151 3 10 C3 9.01 3 8.02 3 7 C2.34 7 1.68 7 1 7 C0.505 3.535 0.505 3.535 0 0 Z " fill="#92462C" transform="translate(96,30)"/>
<path d="M0 0 C2.9375 0.8125 2.9375 0.8125 6 2 C6.33 2.99 6.66 3.98 7 5 C7.556875 5.268125 8.11375 5.53625 8.6875 5.8125 C12.15529249 7.5932583 14.80323346 9.75585869 17 13 C17.76130631 16.01084367 17.9862241 18.90042252 18 22 C18.66 22 19.32 22 20 22 C23.26682231 29.53994257 24.57184845 35.78762084 24 44 C23.01 44.495 23.01 44.495 22 45 C22 43.68 22 42.36 22 41 C21.34 41 20.68 41 20 41 C19.8040625 40.31035156 19.608125 39.62070312 19.40625 38.91015625 C16.59246008 30.06854912 12.17088445 23.17760741 4 18.4375 C3.01 17.963125 2.02 17.48875 1 17 C2.625 16.25 2.625 16.25 5 16 C7.0133653 17.31306433 9.01231606 18.64837492 11 20 C14.23038842 20.79070548 14.23038842 20.79070548 17 21 C16.01873444 18.99074195 15.0150089 16.99242489 14 15 C13.3503125 13.63875 13.3503125 13.63875 12.6875 12.25 C11.12794053 9.71017222 11.12794053 9.71017222 7.9375 9.0625 C6.968125 8.711875 5.99875 8.36125 5 8 C3.625 4.875 3.625 4.875 3 2 C2.01 2 1.02 2 0 2 C0 1.34 0 0.68 0 0 Z " fill="#C52D27" transform="translate(79,15)"/>
<path d="M0 0 C0.99 0 1.98 0 3 0 C3.33 0.66 3.66 1.32 4 2 C4.7425 2 5.485 2 6.25 2 C8.5 2 10.75 2 13 2 C14.299375 1.938125 14.299375 1.938125 15.625 1.875 C18 2 18 2 20 4 C19.67 5.65 19.34 7.3 19 9 C10.09 9 1.18 9 -8 9 C-8 8.34 -8 7.68 -8 7 C-8.99 7 -9.98 7 -11 7 C-11 7.66 -11 8.32 -11 9 C-11.99 9 -12.98 9 -14 9 C-13.34 6.69 -12.68 4.38 -12 2 C-8.8886605 0.99992659 -7.11166412 1.12484447 -4 2 C-2.68 2 -1.36 2 0 2 C0 1.34 0 0.68 0 0 Z M-1 4 C0 7 0 7 0 7 Z M-6 5 C-5 7 -5 7 -5 7 Z M12 5 C13 7 13 7 13 7 Z " fill="#757578" transform="translate(68,109)"/>
<path d="M0 0 C6.47047634 3.7616498 10.64791613 6.80370043 12.625 14.25 C12.89183594 15.52617188 12.89183594 15.52617188 13.1640625 16.828125 C13.8033933 19.16645203 13.8033933 19.16645203 16.0078125 20.1640625 C16.66523437 20.43992187 17.32265625 20.71578125 18 21 C19.25 23.125 19.25 23.125 20 25 C12.81547338 24.50451541 8.60834908 22.96082869 3.6875 17.375 C0.98198865 13.56724329 0.75725955 11.03435349 0.4375 6.375 C0.35371094 5.18648438 0.26992188 3.99796875 0.18359375 2.7734375 C0.12300781 1.85820313 0.06242187 0.94296875 0 0 Z " fill="#27BEB6" transform="translate(22,82)"/>
<path d="M0 0 C1.29035156 0.08378906 2.58070312 0.16757813 3.91015625 0.25390625 C5.62758205 0.35713949 7.34503127 0.45998344 9.0625 0.5625 C9.91005859 0.61857422 10.75761719 0.67464844 11.63085938 0.73242188 C15.50808194 0.95697144 19.1525167 1.08567562 22.99609375 0.46484375 C26 0 26 0 28 1 C28 3.31 28 5.62 28 8 C21 8 14 8 7 8 C7 6.02 7 4.04 7 2 C6.34 2 5.68 2 5 2 C5 3.98 5 5.96 5 8 C4.01 8 3.02 8 2 8 C2 6.02 2 4.04 2 2 C1.34 2 0.68 2 0 2 C0 1.34 0 0.68 0 0 Z " fill="#737375" transform="translate(24,110)"/>
<path d="M0 0 C2.97851562 0.24414062 2.97851562 0.24414062 5.95703125 0.48828125 C5.95703125 2.79828125 5.95703125 5.10828125 5.95703125 7.48828125 C4.96703125 7.81828125 3.97703125 8.14828125 2.95703125 8.48828125 C2.95703125 9.14828125 2.95703125 9.80828125 2.95703125 10.48828125 C2.29703125 10.48828125 1.63703125 10.48828125 0.95703125 10.48828125 C1.69953125 11.63296875 1.69953125 11.63296875 2.45703125 12.80078125 C3.95703125 15.48828125 3.95703125 15.48828125 3.95703125 18.48828125 C2.96703125 18.48828125 1.97703125 18.48828125 0.95703125 18.48828125 C0.62703125 19.14828125 0.29703125 19.80828125 -0.04296875 20.48828125 C-1.984375 19.8828125 -1.984375 19.8828125 -4.04296875 18.48828125 C-4.7578125 15.625 -4.7578125 15.625 -4.98046875 12.17578125 C-5.07199219 11.04527344 -5.16351563 9.91476563 -5.2578125 8.75 C-4.99488942 4.75834964 -4.31416925 1.0311112 0 0 Z " fill="#E1232B" transform="translate(47.04296875,54.51171875)"/>
<path d="M0 0 C0.62003906 0.28875 1.24007812 0.5775 1.87890625 0.875 C10.1647587 4.34854513 17.15382573 4.42977365 26 4 C24.63956279 6.72087442 22.73019605 7.26816779 19.99707031 8.37158203 C10.51928208 11.35395696 -2.27647083 9.28895819 -11 5 C-12.85546875 2.859375 -12.85546875 2.859375 -14 1 C-12.58194169 1.28482368 -11.16559621 1.57818144 -9.75 1.875 C-8.96109375 2.03742188 -8.1721875 2.19984375 -7.359375 2.3671875 C-5 3 -5 3 -2.828125 4.1328125 C-2.22484375 4.41898437 -1.6215625 4.70515625 -1 5 C-0.34 4.67 0.32 4.34 1 4 C0.67 2.68 0.34 1.36 0 0 Z " fill="#9E302D" transform="translate(49,91)"/>
<path d="M0 0 C3.05095243 -0.2878257 5.95795822 -0.42534743 9 0 C11.125 2.125 11.125 2.125 12 5 C11.76576872 8.90385466 11.18666686 10.71999971 9 14 C7.0546875 14.29296875 7.0546875 14.29296875 4.875 14.1875 C3.59625 14.125625 2.3175 14.06375 1 14 C0.34 12.68 -0.32 11.36 -1 10 C-0.0409375 9.5978125 -0.0409375 9.5978125 0.9375 9.1875 C3.33131686 8.11332248 3.33131686 8.11332248 4 5 C2.68 5 1.36 5 0 5 C0 3.35 0 1.7 0 0 Z " fill="#50B04D" transform="translate(80,59)"/>
<path d="M0 0 C4.81975443 -0.11208731 8.95981149 0.51424083 13.625 1.625 C16.14042413 2.20892371 16.14042413 2.20892371 19 1 C18.5020163 4.73487777 18.12508244 6.81237635 16 10 C14.68 10 13.36 10 12 10 C12 9.34 12 8.68 12 8 C10.35 8 8.7 8 7 8 C6.67 7.34 6.34 6.68 6 6 C4.68 6 3.36 6 2 6 C2 6.66 2 7.32 2 8 C1.34 8 0.68 8 0 8 C0 5.36 0 2.72 0 0 Z M2 2 C2 2.66 2 3.32 2 4 C2.66 4 3.32 4 4 4 C4 3.34 4 2.68 4 2 C3.34 2 2.68 2 2 2 Z M13 6 C14 8 14 8 14 8 Z " fill="#747577" transform="translate(91,110)"/>
<path d="M0 0 C2.31 0 4.62 0 7 0 C6.88416889 1.54238266 6.75683428 3.08390272 6.625 4.625 C6.55539063 5.48351563 6.48578125 6.34203125 6.4140625 7.2265625 C6 10 6 10 4 16 C-0.29 16 -4.58 16 -9 16 C-9 15.67 -9 15.34 -9 15 C-7.02 14.67 -5.04 14.34 -3 14 C-2.67 13.01 -2.34 12.02 -2 11 C-2.66 10.67 -3.32 10.34 -4 10 C-3.34 9.46375 -2.68 8.9275 -2 8.375 C0.31024799 6.10041408 0.31024799 6.10041408 0.25 2.75 C0.12625 1.38875 0.12625 1.38875 0 0 Z " fill="#90723C" transform="translate(66,58)"/>
<path d="M0 0 C-6.91275066 3.17444641 -12.83303313 3.39742013 -20.375 3.29296875 C-21.5400708 3.28872391 -22.7051416 3.28447906 -23.90551758 3.28010559 C-27.60391965 3.2633965 -31.30176434 3.22575761 -35 3.1875 C-37.51691918 3.17244317 -40.03384695 3.15875652 -42.55078125 3.14648438 C-48.700709 3.11351839 -54.85031467 3.06339635 -61 3 C-61 2.67 -61 2.34 -61 2 C-54.05858516 1.68931964 -47.11684284 1.38700062 -40.17480469 1.09057617 C-37.81176445 0.98867616 -35.44880687 0.88484069 -33.0859375 0.77905273 C-29.69550974 0.62759277 -26.30484859 0.48302706 -22.9140625 0.33984375 C-21.85256989 0.29093491 -20.79107727 0.24202606 -19.69741821 0.19163513 C-18.71655243 0.1515181 -17.73568665 0.11140106 -16.72509766 0.07006836 C-15.85905914 0.03231796 -14.99302063 -0.00543243 -14.10073853 -0.04432678 C-12 0 -12 0 -10 1 C-8.865625 0.67 -7.73125 0.34 -6.5625 0 C-3 -1 -3 -1 0 0 Z " fill="#48A85C" transform="translate(103,104)"/>
<path d="M0 0 C2.64 0.33 5.28 0.66 8 1 C7.34 4.3 6.68 7.6 6 11 C4.68 11.33 3.36 11.66 2 12 C1.67 10.02 1.34 8.04 1 6 C0.01 6.99 -0.98 7.98 -2 9 C-1.01 9.33 -0.02 9.66 1 10 C1 11.65 1 13.3 1 15 C-0.65 15.33 -2.3 15.66 -4 16 C-4 15.34 -4 14.68 -4 14 C-3.01 14 -2.02 14 -1 14 C-1.495 13.05125 -1.99 12.1025 -2.5 11.125 C-4 8 -4 8 -4 6 C-3.34 6 -2.68 6 -2 6 C-2 5.34 -2 4.68 -2 4 C-1.34 3.67 -0.68 3.34 0 3 C0 2.01 0 1.02 0 0 Z M2 2 C3 4 3 4 3 4 Z " fill="#C13F30" transform="translate(52,59)"/>
<path d="M0 0 C3.99534208 0.57076315 6.588173 1.90041415 10 4 C12.19130534 4.69579454 12.19130534 4.69579454 14 5 C14.28875 6.11375 14.5775 7.2275 14.875 8.375 C15.69241329 12.00291092 15.69241329 12.00291092 18 14 C18.71927295 16.31765729 19.3909893 18.65095874 20 21 C20.66 21 21.32 21 22 21 C21.67 18.69 21.34 16.38 21 14 C23.28062828 17.42094242 23.21925007 18.68187222 23.125 22.6875 C23.10695313 23.68136719 23.08890625 24.67523438 23.0703125 25.69921875 C23.04710938 26.45847656 23.02390625 27.21773437 23 28 C22.34 28.33 21.68 28.66 21 29 C21 27.68 21 26.36 21 25 C20.34 25 19.68 25 19 25 C18.70609375 23.96552734 18.70609375 23.96552734 18.40625 22.91015625 C15.59246008 14.06854912 11.17088445 7.17760741 3 2.4375 C2.01 1.963125 1.02 1.48875 0 1 C0 0.67 0 0.34 0 0 Z " fill="#C52935" transform="translate(80,31)"/>
<path d="M0 0 C0.33 0.66 0.66 1.32 1 2 C1.99 2.33 2.98 2.66 4 3 C4 3.66 4 4.32 4 5 C4.61875 5.2475 5.2375 5.495 5.875 5.75 C8.35068687 7.20628639 8.95125002 8.37812506 10 11 C3.13059607 10.526248 -0.99413427 9.00586573 -6 4 C-6 3.01 -6 2.02 -6 1 C-4 0 -4 0 0 0 Z " fill="#29BDC0" transform="translate(32,96)"/>
<path d="M0 0 C1.98 0.99 1.98 0.99 4 2 C4 2.99 4 3.98 4 5 C4.598125 5.12375 5.19625 5.2475 5.8125 5.375 C8 6 8 6 11 8 C10.34 9.32 9.68 10.64 9 12 C22.365 12.495 22.365 12.495 36 13 C36 13.33 36 13.66 36 14 C31.62535204 14.14564235 27.2513304 14.23419143 22.875 14.3125 C21.6375 14.35439453 20.4 14.39628906 19.125 14.43945312 C8.84673035 14.57760191 8.84673035 14.57760191 5.25 11.67578125 C2.14125965 7.97875497 0 4.91468088 0 0 Z " fill="#239E59" transform="translate(33,92)"/>
<path d="M0 0 C0.99 0.33 1.98 0.66 3 1 C3 2.32 3 3.64 3 5 C3.66 5 4.32 5 5 5 C5.11712011 9.47894321 5.1875608 13.95748714 5.25 18.4375 C5.28351563 19.69755859 5.31703125 20.95761719 5.3515625 22.25585938 C5.42561478 29.34636499 5.40906551 36.08750629 1 42 C-0.485 42.495 -0.485 42.495 -2 43 C-1.79503906 42.39671875 -1.59007813 41.7934375 -1.37890625 41.171875 C-1.10949219 40.37265625 -0.84007813 39.5734375 -0.5625 38.75 C-0.29566406 37.96109375 -0.02882813 37.1721875 0.24609375 36.359375 C0.91954708 34.25178012 1.49150595 32.15246027 2 30 C2.66 30 3.32 30 4 30 C3.59984337 14.75629649 3.59984337 14.75629649 0 0 Z " fill="#4F8A47" transform="translate(100,36)"/>
<path d="M0 0 C4.29 0 8.58 0 13 0 C13 0.33 13 0.66 13 1 C8.545 1.495 8.545 1.495 4 2 C3.58427734 3.37285156 3.58427734 3.37285156 3.16015625 4.7734375 C2.79792969 5.96195313 2.43570313 7.15046875 2.0625 8.375 C1.70285156 9.55835937 1.34320313 10.74171875 0.97265625 11.9609375 C0 15 0 15 -1 17 C-1 18.32 -1 19.64 -1 21 C-1.99 21 -2.98 21 -4 21 C-3.39481689 13.73780267 -1.86327965 7.04805782 0 0 Z " fill="#6A9A4F" transform="translate(75,58)"/>
<path d="M0 0 C0.33 0.66 0.66 1.32 1 2 C-0.38923907 4.06721195 -1.78602884 6.12860338 -3.1875 8.1875 C-3.57486328 8.76564453 -3.96222656 9.34378906 -4.36132812 9.93945312 C-6.91796122 13.67932138 -9.55677582 17.00760713 -13 20 C-13.99 20 -14.98 20 -16 20 C-16 20.66 -16 21.32 -16 22 C-21.04140164 24.81532819 -25.22621075 26.5188509 -31 27 C-27.95441033 23.95441033 -24.68336264 22.27076633 -20.6875 20.6875 C-12.85832748 17.35159171 -8.32780803 12.73754449 -4.32421875 5.26953125 C-3.075789 3.12989206 -1.83084387 1.64829639 0 0 Z " fill="#675B40" transform="translate(100,72)"/>
<path d="M0 0 C0.33 0 0.66 0 1 0 C1.10134036 7.61707204 1.17144061 15.23397053 1.21972656 22.8515625 C1.23985375 25.44342546 1.26715816 28.03524296 1.30175781 30.62695312 C1.35022501 34.35037449 1.37295816 38.07319599 1.390625 41.796875 C1.41127014 42.95741394 1.43191528 44.11795288 1.45318604 45.31365967 C1.45348816 46.39447815 1.45379028 47.47529663 1.45410156 48.58886719 C1.46298401 49.53928894 1.47186646 50.48971069 1.48101807 51.46893311 C0.86458592 54.71253478 -0.51910815 55.90894832 -3 58 C-2.47731534 55.23723823 -1.89130413 52.6739124 -1 50 C-0.88507216 48.35912211 -0.82367646 46.7142222 -0.79467773 45.06958008 C-0.77473251 44.06876907 -0.75478729 43.06795807 -0.73423767 42.03681946 C-0.71752518 40.95861435 -0.70081268 39.88040924 -0.68359375 38.76953125 C-0.6524221 37.11119514 -0.6524221 37.11119514 -0.62062073 35.4193573 C-0.55517668 31.8838021 -0.49626397 28.34817194 -0.4375 24.8125 C-0.3943099 22.41730992 -0.35069546 20.02212745 -0.30664062 17.62695312 C-0.19950052 11.75138158 -0.09772443 5.87573528 0 0 Z " fill="#409D5B" transform="translate(109,42)"/>
<path d="M0 0 C0 0.66 0 1.32 0 2 C-5.35714286 7 -5.35714286 7 -9 7 C-9.33 8.32 -9.66 9.64 -10 11 C-10.66 11 -11.32 11 -12 11 C-12.2475 11.61875 -12.495 12.2375 -12.75 12.875 C-14.20628639 15.35068687 -15.37812506 15.95125002 -18 17 C-15.34448781 10.99015663 -7.51807803 0 0 0 Z " fill="#D32833" transform="translate(39,16)"/>
<path d="M0 0 C1.14505889 2.24711087 2.22673206 4.50400502 3.26171875 6.8046875 C6.33875134 13.43084536 9.05269932 17.71794351 15 22 C14.67 22.66 14.34 23.32 14 24 C13.01 23.67 12.02 23.34 11 23 C11 22.34 11 21.68 11 21 C10.401875 20.731875 9.80375 20.46375 9.1875 20.1875 C4.95302999 17.88878771 3.6672847 15.44609253 2 11 C1.34 10.01 0.68 9.02 0 8 C-0.25760279 5.30547479 -0.08900053 2.71451625 0 0 Z " fill="#C92A33" transform="translate(33,68)"/>
<path d="M0 0 C0.33 0.66 0.66 1.32 1 2 C2.65 1.34 4.3 0.68 6 0 C5.67 2.31 5.34 4.62 5 7 C2.36 7 -0.28 7 -3 7 C-3.66 5.68 -4.32 4.36 -5 3 C-3.35 2.01 -1.7 1.02 0 0 Z " fill="#48B642" transform="translate(84,66)"/>
<path d="M0 0 C0.87011719 0.06574219 1.74023438 0.13148437 2.63671875 0.19921875 C4.75947219 0.36250748 6.88007279 0.55339385 9 0.75 C9 1.41 9 2.07 9 2.75 C7.94941406 2.71519531 6.89882812 2.68039063 5.81640625 2.64453125 C-2.02729875 2.4642484 -8.70159931 2.511859 -16 5.75 C-16.99 6.08 -17.98 6.41 -19 6.75 C-17.87916838 3.38750515 -17.54013125 3.12106536 -14.5625 1.546875 C-9.62121344 -0.76935308 -5.33088199 -0.51589181 0 0 Z " fill="#D6242B" transform="translate(67,27.25)"/>
<path d="M0 0 C3.91389179 2.34833507 5.64704042 3.4021661 8.3125 6.6875 C8.82425781 7.31011719 9.33601563 7.93273437 9.86328125 8.57421875 C10.23839844 9.04472656 10.61351562 9.51523438 11 10 C8.36 9.34 5.72 8.68 3 8 C2.67 9.65 2.34 11.3 2 13 C1.67 13 1.34 13 1 13 C0.67 8.71 0.34 4.42 0 0 Z " fill="#50A495" transform="translate(22,82)"/>
<path d="M0 0 C2.28062828 3.42094242 2.21925007 4.68187222 2.125 8.6875 C2.10695313 9.68136719 2.08890625 10.67523438 2.0703125 11.69921875 C2.03550781 12.83810547 2.03550781 12.83810547 2 14 C1.01 14.495 1.01 14.495 0 15 C0 13.68 0 12.36 0 11 C-0.66 11 -1.32 11 -2 11 C-2.99 7.7 -3.98 4.4 -5 1 C-4.34 1 -3.68 1 -3 1 C-2.34 2.98 -1.68 4.96 -1 7 C-0.34 7 0.32 7 1 7 C0.67 4.69 0.34 2.38 0 0 Z " fill="#B3292D" transform="translate(101,45)"/>
<path d="M0 0 C0 2.31 0 4.62 0 7 C-1.98 7 -3.96 7 -6 7 C-6 6.34 -6 5.68 -6 5 C-5.34 5 -4.68 5 -4 5 C-4.66 4.34 -5.32 3.68 -6 3 C-6.33 2.01 -6.66 1.02 -7 0 C-3.86650268 -1.04449911 -3.01031744 -0.93423645 0 0 Z " fill="#777679" transform="translate(52,111)"/>
<path d="M0 0 C0.99 0 1.98 0 3 0 C2.57910004 5.60461531 2.08386889 10.72086547 0 16 C-0.66 16 -1.32 16 -2 16 C-2.19909954 11.71935998 -1.64965775 8.91793715 0 5 C0 3.68 0 2.36 0 1 C0 0.67 0 0.34 0 0 Z " fill="#818145" transform="translate(70,58)"/>
<path d="M0 0 C2.54058004 2.23140892 2.96582746 2.70383797 3.375 6.25 C2.9493294 10.506706 1.86762662 13.18692898 0 17 C-1.23104155 13.31599416 -0.90767252 10.08525024 -0.5625 6.25 C-0.46066406 5.07953125 -0.35882813 3.9090625 -0.25390625 2.703125 C-0.17011719 1.81109375 -0.08632812 0.9190625 0 0 Z " fill="#943030" transform="translate(100,56)"/>
<path d="M0 0 C1.8871875 0.1546875 1.8871875 0.1546875 3.8125 0.3125 C3.4825 0.9725 3.1525 1.6325 2.8125 2.3125 C-0.1575 1.8175 -0.1575 1.8175 -3.1875 1.3125 C-4.34077757 6.25511817 -4.72722977 11.26911339 -5.1875 16.3125 C-5.5175 16.3125 -5.8475 16.3125 -6.1875 16.3125 C-7.58834388 6.6753692 -7.58834388 6.6753692 -6.25 2.125 C-3.84978864 0.01572335 -3.09673403 0.03294398 0 0 Z " fill="#CF2F39" transform="translate(49.1875,54.6875)"/>
<path d="M0 0 C5.75 -0.125 5.75 -0.125 8 1 C7.67 3.31 7.34 5.62 7 8 C5.35 7.67 3.7 7.34 2 7 C2 4 2 4 3.5 2.3125 C4.2425 1.6628125 4.2425 1.6628125 5 1 C3.35 1 1.7 1 0 1 C0 0.67 0 0.34 0 0 Z " fill="#A25C37" transform="translate(59,58)"/>
<path d="M0 0 C9.59453303 1.55808656 9.59453303 1.55808656 13 6 C9.06754014 5.45128467 5.56748077 4.78374039 2 3 C1.34 2.01 0.68 1.02 0 0 Z " fill="#9F3E31" transform="translate(35,92)"/>
<path d="M0 0 C0.99 0.33 1.98 0.66 3 1 C2.01 2.32 1.02 3.64 0 5 C0.99 5.33 1.98 5.66 3 6 C3 7.65 3 9.3 3 11 C1.35 11.33 -0.3 11.66 -2 12 C-2 11.34 -2 10.68 -2 10 C-1.01 10 -0.02 10 1 10 C0.505 9.05125 0.01 8.1025 -0.5 7.125 C-2 4 -2 4 -2 2 C-1.34 2 -0.68 2 0 2 C0 1.34 0 0.68 0 0 Z " fill="#C84042" transform="translate(50,63)"/>
<path d="M0 0 C0.99 0.33 1.98 0.66 3 1 C2.66226563 1.56847656 2.32453125 2.13695312 1.9765625 2.72265625 C-0.74688739 7.43753048 -2.75866982 11.69613469 -4 17 C-4.33 17 -4.66 17 -5 17 C-4.34784679 10.58716006 -2.97546204 5.73839108 0 0 Z " fill="#D02C38" transform="translate(38,40)"/>
<path d="M0 0 C5.75 1.625 5.75 1.625 8 5 C8 5.99 8 6.98 8 8 C8.66 8.33 9.32 8.66 10 9 C8.35 8.67 6.7 8.34 5 8 C4.34 6.02 3.68 4.04 3 2 C2.01 2 1.02 2 0 2 C0 1.34 0 0.68 0 0 Z " fill="#D42B35" transform="translate(79,15)"/>
<path d="M0 0 C0.33 0 0.66 0 1 0 C1.10823773 2.24893954 1.18569645 4.49937575 1.25 6.75 C1.29640625 8.00296875 1.3428125 9.2559375 1.390625 10.546875 C1 14 1 14 -1.015625 16.453125 C-1.67046875 16.96359375 -2.3253125 17.4740625 -3 18 C-2.85691406 17.31550781 -2.71382813 16.63101563 -2.56640625 15.92578125 C-1.93988262 12.68946264 -1.43130921 9.44664081 -0.9375 6.1875 C-0.76089844 5.02605469 -0.58429688 3.86460938 -0.40234375 2.66796875 C-0.26957031 1.78753906 -0.13679688 0.90710938 0 0 Z " fill="#4FA859" transform="translate(109,82)"/>
<path d="M0 0 C-4.84060277 3.06242216 -8.29290936 4.53411505 -14 5 C-9.97189283 0.97189283 -5.61597902 -1.87199301 0 0 Z " fill="#6F452D" transform="translate(83,94)"/>
<path d="M0 0 C2.97 1.98 2.97 1.98 6 4 C5.67 4.99 5.34 5.98 5 7 C3.02 7 1.04 7 -1 7 C-1 6.34 -1 5.68 -1 5 C-0.34 4.67 0.32 4.34 1 4 C0.67 2.68 0.34 1.36 0 0 Z " fill="#BC242C" transform="translate(49,91)"/>
<path d="M0 0 C0.66 0 1.32 0 2 0 C2 1.98 2 3.96 2 6 C1.34 6 0.68 6 0 6 C0 6.66 0 7.32 0 8 C-0.99 8 -1.98 8 -3 8 C-1.125 1.125 -1.125 1.125 0 0 Z " fill="#767678" transform="translate(57,110)"/>
<path d="M0 0 C1.0828125 1.11375 1.0828125 1.11375 2.1875 2.25 C4.68592573 4.69290515 7.23643202 6.8681047 10 9 C9.67 9.66 9.34 10.32 9 11 C8.01 10.67 7.02 10.34 6 10 C6 9.34 6 8.68 6 8 C5.38125 7.79375 4.7625 7.5875 4.125 7.375 C1.15346355 5.45224112 0.86975341 3.33405473 0 0 Z " fill="#B72C33" transform="translate(38,81)"/>
<path d="M0 0 C0.99 0.33 1.98 0.66 3 1 C2.67 2.32 2.34 3.64 2 5 C-0.31 5 -2.62 5 -5 5 C-3.35 3.35 -1.7 1.7 0 0 Z " fill="#A15E33" transform="translate(61,68)"/>
<path d="M0 0 C2 1.375 2 1.375 4 3 C4 3.66 4 4.32 4 5 C-3.75 4.25 -3.75 4.25 -6 2 C-3.03 2.495 -3.03 2.495 0 3 C0 2.01 0 1.02 0 0 Z " fill="#43B4A8" transform="translate(38,102)"/>
<path d="M0 0 C1.875 0.5625 1.875 0.5625 4 2 C5.25 5.625 5.25 5.625 6 9 C5.01 8.67 4.02 8.34 3 8 C2.67 7.01 2.34 6.02 2 5 C1.34 4.67 0.68 4.34 0 4 C0 2.68 0 1.36 0 0 Z " fill="#2EB89E" transform="translate(29,90)"/>
<path d="M0 0 C0.99 0.66 1.98 1.32 3 2 C3.66 1.67 4.32 1.34 5 1 C5 1.99 5 2.98 5 4 C1.37 4 -2.26 4 -6 4 C-2 1 -2 1 0 0 Z " fill="#6C6C6E" transform="translate(66,114)"/>
<path d="M0 0 C4.62 1.32 9.24 2.64 14 4 C8.63581784 5.34104554 5.12113258 3.70704419 0 2 C0 1.34 0 0.68 0 0 Z " fill="#437F40" transform="translate(37,95)"/>
<path d="M0 0 C-1.33333333 0.66666667 -2.66666667 1.33333333 -4 2 C-5.546875 2.804375 -5.546875 2.804375 -7.125 3.625 C-10 5 -10 5 -12 5 C-11 2 -11 2 -9.375 0.8125 C-6.19617272 -0.27499354 -3.33338467 -0.1282071 0 0 Z " fill="#CB2B31" transform="translate(60,29)"/>
<path d="M0 0 C2.31 0.33 4.62 0.66 7 1 C7 2.65 7 4.3 7 6 C5.83054208 5.19152271 4.66449539 4.37810888 3.5 3.5625 C2.8503125 3.11003906 2.200625 2.65757813 1.53125 2.19140625 C1.0259375 1.79824219 0.520625 1.40507813 0 1 C0 0.67 0 0.34 0 0 Z " fill="#B93B3F" transform="translate(22,81)"/>
<path d="M0 0 C1.65 0 3.3 0 5 0 C4.34 1.32 3.68 2.64 3 4 C2.01 4 1.02 4 0 4 C0 2.68 0 1.36 0 0 Z " fill="#6B6D6F" transform="translate(81,114)"/>
</svg>
