<?xml version="1.0" encoding="UTF-8"?>
<svg version="1.1" xmlns="http://www.w3.org/2000/svg" width="250" height="347" viewBox="0 0 250 347">
<path d="M0 0 C2.17710691 0.00315523 4.35284623 -0.02031817 6.52978516 -0.0456543 C22.57599482 -0.12080437 22.57599482 -0.12080437 27.81787109 4.69702148 C31.71178188 9.11335376 33.53929267 12.72779106 33.65869141 18.56958008 C33.68833984 19.58987305 33.71798828 20.61016602 33.74853516 21.66137695 C33.77044922 22.72291992 33.79236328 23.78446289 33.81494141 24.87817383 C34.16010676 41.32656823 34.16010676 41.32656823 40.31494141 56.31567383 C40.67845703 56.90993164 41.04197266 57.50418945 41.41650391 58.11645508 C49.20834271 68.89596213 65.38992278 72.41445273 77.72119141 74.77661133 C93.58729705 77.10615859 114.4530632 73.79839345 127.81494141 64.50317383 C135.9306564 57.70821759 139.79277196 49.62965716 141.31494141 39.31567383 C141.41067892 37.39268459 141.46838098 35.46747765 141.49072266 33.54223633 C141.51457031 32.46973633 141.53841797 31.39723633 141.56298828 30.29223633 C141.60580309 28.06586618 141.63713709 25.83924434 141.65673828 23.61254883 C141.85112444 16.0721743 142.6992135 10.05034016 148.09619141 4.47583008 C148.66337891 4.11360352 149.23056641 3.75137695 149.81494141 3.37817383 C150.38212891 2.99790039 150.94931641 2.61762695 151.53369141 2.22583008 C157.43310053 -0.78856099 164.39781937 0.09263528 170.84912109 0.07543945 C173.04384748 0.06576679 175.2376233 0.03473526 177.43212891 0.00317383 C193.20097821 -0.11913416 193.20097821 -0.11913416 199.37353516 5.03442383 C199.82857422 5.62223633 200.28361328 6.21004883 200.75244141 6.81567383 C201.22552734 7.40348633 201.69861328 7.99129883 202.18603516 8.59692383 C204.70182347 12.42718978 204.49144455 16.33358685 204.51806641 20.73754883 C204.52376648 21.47459045 204.52946655 22.21163208 204.53533936 22.9710083 C204.54478995 24.53786794 204.55132358 26.10474746 204.55517578 27.67163086 C204.56473715 30.01559964 204.59569527 32.35863508 204.62744141 34.70239258 C204.81799117 61.83506049 195.59303256 86.21467759 176.84228516 105.91333008 C149.24923853 132.07064095 111.74105375 135.34759233 75.76586914 134.54873657 C66.78170263 134.29296088 58.06848789 133.38636142 49.31494141 131.31567383 C48.59580566 131.14938477 47.87666992 130.9830957 47.13574219 130.81176758 C22.00805284 124.76634443 -0.83833004 110.93116048 -14.66308594 88.6640625 C-24.97426144 71.2446055 -28.86910144 52.62764808 -28.98022461 32.55517578 C-28.99176713 31.1055324 -29.01225513 29.65593226 -29.04174805 28.20654297 C-29.34612265 13.20036478 -29.34612265 13.20036478 -24.68505859 6.31567383 C-17.74560669 -0.62377808 -9.17056256 -0.02781456 0 0 Z " fill="#FAD401" transform="translate(36.68505859375,87.684326171875)"/>
<path d="M0 0 C2.19472639 -0.00967266 4.3885022 -0.0407042 6.58300781 -0.07226562 C22.35185711 -0.19457361 22.35185711 -0.19457361 28.52441406 4.95898438 C28.97945313 5.54679687 29.43449219 6.13460937 29.90332031 6.74023438 C30.37640625 7.32804687 30.84949219 7.91585937 31.33691406 8.52148438 C33.85270238 12.35175032 33.64232345 16.2581474 33.66894531 20.66210938 C33.67464539 21.399151 33.68034546 22.13619263 33.68621826 22.89556885 C33.69566886 24.46242848 33.70220248 26.029308 33.70605469 27.59619141 C33.71561605 29.94016019 33.74657418 32.28319562 33.77832031 34.62695312 C33.96887007 61.75962104 24.74391146 86.13923814 5.99316406 105.83789062 C-15.80078349 126.49784416 -47.50892827 135.00356446 -76.95605469 134.34570312 C-77.80683594 134.31089844 -78.65761719 134.27609375 -79.53417969 134.24023438 C-76.53417969 132.24023438 -76.53417969 132.24023438 -72.84667969 131.05273438 C-65.41279529 128.26502772 -60.84356422 123.67765824 -57.53417969 116.49023438 C-54.66833143 108.74469855 -54.05070161 100.84661907 -57.43261719 93.15039062 C-62.67060043 84.06750479 -69.75276988 80.17465732 -79.53417969 77.24023438 C-79.03917969 76.25023437 -79.03917969 76.25023437 -78.53417969 75.24023438 C-75.96456772 74.71785732 -73.43859439 74.29952427 -70.84667969 73.92773438 C-57.46875682 71.76700013 -45.01872255 68.30267696 -36.22167969 57.36523438 C-31.09299331 50.06243094 -29.46114444 42.32069373 -29.35839844 33.46679688 C-29.33455078 32.39429688 -29.31070313 31.32179688 -29.28613281 30.21679688 C-29.243318 27.99042673 -29.21198401 25.76380489 -29.19238281 23.53710938 C-28.99799666 15.99673484 -28.1499076 9.9749007 -22.75292969 4.40039062 C-22.18574219 4.03816406 -21.61855469 3.6759375 -21.03417969 3.30273438 C-20.46699219 2.92246094 -19.89980469 2.5421875 -19.31542969 2.15039062 C-13.41602056 -0.86400044 -6.45130172 0.01719583 0 0 Z " fill="#0D56A2" transform="translate(207.5341796875,87.759765625)"/>
<path d="M0 0 C0.75341675 0.00142502 1.5068335 0.00285004 2.28308105 0.00431824 C3.13736694 0.00124161 3.99165283 -0.00183502 4.87182617 -0.00500488 C5.795802 0.00218063 6.71977783 0.00936615 7.67175293 0.01676941 C8.61860962 0.01722763 9.56546631 0.01768585 10.54101562 0.01815796 C12.54505667 0.02118206 14.54909534 0.02907306 16.55310059 0.04142761 C19.62789194 0.05966337 22.70238195 0.06193747 25.77722168 0.06169128 C27.72123471 0.06660718 29.66524569 0.07243582 31.60925293 0.07926941 C32.99521667 0.08093864 32.99521667 0.08093864 34.40917969 0.0826416 C35.26346558 0.08902145 36.11775146 0.09540131 36.9979248 0.10197449 C38.12804993 0.10769218 38.12804993 0.10769218 39.28100586 0.11352539 C41.14050293 0.24723816 41.14050293 0.24723816 43.14050293 1.24723816 C44.43634836 4.71229641 44.27404236 8.23549539 44.2857666 11.8959198 C44.28912521 12.55492783 44.29248383 13.21393585 44.29594421 13.89291382 C44.30541922 16.06442667 44.30739527 18.23586219 44.30847168 20.40739441 C44.31168556 21.91906771 44.31504973 23.43074069 44.31855774 24.94241333 C44.32453957 28.10726137 44.3263985 31.27208213 44.32580566 34.43693542 C44.32570384 38.49462732 44.33938079 42.55214503 44.35657787 46.60979557 C44.36768581 49.7298666 44.36972528 52.84989527 44.36919594 55.96998405 C44.37037692 57.46632426 44.37480534 58.96266554 44.38252831 60.45898628 C44.39230837 62.54876645 44.38945876 64.63816495 44.38342285 66.72795105 C44.38484787 67.91723709 44.38627289 69.10652313 44.38774109 70.33184814 C44.14050293 73.24723816 44.14050293 73.24723816 42.14050293 76.24723816 C39.51353229 76.46861209 37.13156329 76.52885841 34.51550293 76.43473816 C33.80909668 76.421203 33.10269043 76.40766785 32.37487793 76.39372253 C30.62976165 76.35834856 28.88503685 76.30454037 27.14050293 76.24723816 C25.2550839 73.03929586 24.87452626 70.62887136 24.82165527 66.92790222 C24.80178558 65.86710449 24.78191589 64.80630676 24.76144409 63.71336365 C24.74989288 62.57469849 24.73834167 61.43603333 24.72644043 60.26286316 C24.70707428 59.09213257 24.68770813 57.92140198 24.66775513 56.7151947 C24.60797586 52.97594997 24.56157993 49.23667442 24.51550293 45.49723816 C24.47732169 42.96206848 24.43826988 40.42691176 24.39831543 37.89176941 C24.30227556 31.67704062 24.21722301 25.46223384 24.14050293 19.24723816 C21.50050293 19.24723816 18.86050293 19.24723816 16.14050293 19.24723816 C14.87456854 21.77910694 14.98132099 23.59698607 14.93518066 26.43132019 C14.91523544 27.51228973 14.89529022 28.59325928 14.8747406 29.70698547 C14.85802811 30.87784698 14.84131561 32.0487085 14.82409668 33.25505066 C14.79292503 35.04868546 14.79292503 35.04868546 14.76112366 36.8785553 C14.69558004 40.7097228 14.63672075 44.54096054 14.57800293 48.37223816 C14.5348223 50.96469343 14.49120816 53.55714152 14.44714355 56.14958191 C14.33989374 62.51539243 14.23813633 68.88127329 14.14050293 75.24723816 C11.17008844 76.7324454 8.44285846 76.41782035 5.14050293 76.43473816 C3.25331543 76.45600769 3.25331543 76.45600769 1.32800293 76.47770691 C-1.85949707 76.24723816 -1.85949707 76.24723816 -3.85949707 74.24723816 C-4.17834473 71.358078 -4.17834473 71.358078 -4.27355957 67.70817566 C-4.33156738 65.75524597 -4.33156738 65.75524597 -4.39074707 63.76286316 C-4.4222047 62.38265954 -4.45345198 61.00245112 -4.48449707 59.62223816 C-4.52267641 58.23419275 -4.56172812 56.84617105 -4.60168457 55.45817566 C-4.6962265 52.05466631 -4.78177604 48.65116651 -4.85949707 45.24723816 C-5.69609863 45.9368866 -6.5327002 46.62653503 -7.39465332 47.33708191 C-15.78680602 54.14946363 -24.42572544 59.97406114 -33.85949707 65.24723816 C-34.57105957 65.65071472 -35.28262207 66.05419128 -36.01574707 66.46989441 C-39.54024431 67.95585829 -43.12122909 67.77293209 -46.85949707 67.24723816 C-51.20911296 65.07243021 -54.08739548 62.83385403 -55.85949707 58.24723816 C-55.66681657 54.20094767 -55.19377436 51.15175318 -53.79699707 47.37223816 C-51.11671582 38.43796734 -53.4014367 32.45309569 -57.44543457 24.29801941 C-59.8023204 19.21313589 -60.58481557 15.46585946 -58.79699707 9.99723816 C-55.22313743 4.92466318 -51.38005508 3.14396767 -45.42199707 1.93473816 C-30.43056368 -0.1298389 -17.22659253 2.60090208 -4.85949707 11.24723816 C-4.8105127 10.62075378 -4.76152832 9.99426941 -4.71105957 9.34880066 C-4.63629395 8.53153503 -4.56152832 7.71426941 -4.48449707 6.87223816 C-4.4148877 6.06012878 -4.34527832 5.24801941 -4.27355957 4.41130066 C-3.73861393 1.61545269 -2.90879834 0.38675293 0 0 Z M-38.85949707 19.24723816 C-38.43562348 21.79047969 -38.04250914 23.90910806 -36.80871582 26.18864441 C-35.53976102 28.94065749 -35.63013854 31.16711878 -35.67199707 34.18473816 C-35.67844238 35.2043866 -35.6848877 36.22403503 -35.69152832 37.27458191 C-35.84727741 40.03097864 -36.24112321 42.56102211 -36.85949707 45.24723816 C-27.83148421 42.63561036 -18.5068769 35.86060004 -12.85949707 28.24723816 C-12.85949707 27.25723816 -12.85949707 26.26723816 -12.85949707 25.24723816 C-21.64578157 20.54600541 -28.88347966 18.9225215 -38.85949707 19.24723816 Z " fill="#0A0A0A" transform="translate(133.8594970703125,255.7527618408203)"/>
<path d="M0 0 C3.54662906 -0.25333065 5.58003594 -0.22912569 8.7421875 1.49609375 C12.5948003 3.27457808 15.27692251 3.33583491 19.5 3.25 C20.7684375 3.23453125 22.036875 3.2190625 23.34375 3.203125 C26.64526952 3.01970725 29.75092466 2.58574879 33 2 C40.49799824 1.51625818 46.11010418 2.5405142 51.9375 7.5 C55.13909769 11.38072448 55.11490563 14.31377664 55.0625 19.1875 C55.05347656 20.27417969 55.04445312 21.36085937 55.03515625 22.48046875 C55.02355469 23.31191406 55.01195312 24.14335937 55 25 C55.69867188 25.03738281 56.39734375 25.07476562 57.1171875 25.11328125 C58.48230469 25.21189453 58.48230469 25.21189453 59.875 25.3125 C61.23238281 25.39951172 61.23238281 25.39951172 62.6171875 25.48828125 C65 26 65 26 67 29 C67.265625 31.59375 67.265625 31.59375 67.25 34.5 C67.25773437 35.93859375 67.25773437 35.93859375 67.265625 37.40625 C67 40 67 40 65 43 C61.94080612 44.01973129 59.87581975 44.11533602 56.67578125 44.09765625 C55.64775391 44.09443359 54.61972656 44.09121094 53.56054688 44.08789062 C52.48869141 44.07951172 51.41683594 44.07113281 50.3125 44.0625 C49.22904297 44.05798828 48.14558594 44.05347656 47.02929688 44.04882812 C44.35284106 44.03703757 41.67641361 44.01910208 39 44 C39.495 49.94 39.495 49.94 40 56 C41.959375 55.690625 43.91875 55.38125 45.9375 55.0625 C47.12085938 54.88460937 48.30421875 54.70671875 49.5234375 54.5234375 C51.59368548 54.21173724 53.66227124 53.88804011 55.7265625 53.5390625 C59.11682049 53.028823 61.37888218 52.68944109 64.5 54.25 C68.85166969 59.32694797 67.43981511 68.42651193 67.17919922 74.79150391 C66.60464415 81.87246463 63.71743026 88.35531965 58.828125 93.50390625 C47.80853982 102.52207104 33.57375741 103.19185698 20 102 C11.32016617 100.2170575 5.20294656 94.89547555 -0.3125 88.1875 C-4.50239741 80.27324933 -5.48395651 72.54324333 -5.375 63.6875 C-5.38660156 62.72521484 -5.39820313 61.76292969 -5.41015625 60.77148438 C-5.3937004 56.80836825 -5.21369002 53.60860127 -3.89453125 49.8515625 C-2 48 -2 48 1.13671875 47.51171875 C2.89435547 47.59873047 2.89435547 47.59873047 4.6875 47.6875 C5.86699219 47.73261719 7.04648438 47.77773438 8.26171875 47.82421875 C9.61716797 47.91123047 9.61716797 47.91123047 11 48 C12.96276078 52.12964867 13.25162817 55.57922262 13.375 60.125 C13.73135386 67.27753108 14.3302003 75.09595777 19.46875 80.5625 C24.18194239 83.7639137 29.51625867 83.67814206 35 83 C41.67200537 81.72058217 45.14914525 79.58995044 49 74 C45.24432313 72.74810771 42.91532402 73.43164651 39 74 C29.40545567 74.59144451 29.40545567 74.59144451 25 72 C22.14687775 68.90016122 21.60411605 66.74817787 21.48828125 62.578125 C21.43510742 61.04091797 21.43510742 61.04091797 21.38085938 59.47265625 C21.35830078 58.40917969 21.33574219 57.34570312 21.3125 56.25 C21.27833984 55.17105469 21.24417969 54.09210938 21.20898438 52.98046875 C21.12659337 50.32041623 21.05741355 47.66068965 21 45 C19.97060303 44.970271 19.97060303 44.970271 18.92041016 44.93994141 C15.82154221 44.84489055 12.72336706 44.73513153 9.625 44.625 C8.00464844 44.57859375 8.00464844 44.57859375 6.3515625 44.53125 C4.8046875 44.47324219 4.8046875 44.47324219 3.2265625 44.4140625 C2.27346191 44.3826416 1.32036133 44.3512207 0.33837891 44.31884766 C-2 44 -2 44 -4 42 C-5.32647839 36.6512968 -5.28800002 32.08444449 -3 27 C-0.89330541 24.89330541 3.71256289 25.74107511 6.62890625 25.68359375 C7.92525246 25.6524221 7.92525246 25.6524221 9.24778748 25.62062073 C12.01927445 25.55502886 14.79085921 25.49619582 17.5625 25.4375 C19.43685923 25.39432392 21.31120843 25.35070994 23.18554688 25.30664062 C27.79026336 25.19933773 32.39507858 25.09809785 37 25 C37.33 23.35 37.66 21.7 38 20 C37.175 20.0721875 36.35 20.144375 35.5 20.21875 C28.85674832 20.75258272 22.2261791 21.1432304 15.5625 21.25 C14.28503906 21.27578125 13.00757812 21.3015625 11.69140625 21.328125 C6.41909153 20.8594748 2.5902725 19.35173162 -1.5 15.875 C-3.63737639 11.77836191 -3.11814234 8.40170118 -2 4 C-1.37353985 2.64731012 -0.71715037 1.3068732 0 0 Z " fill="#0A0A0A" transform="translate(5,230)"/>
<path d="M0 0 C1.27472168 -0.00630432 2.54944336 -0.01260864 3.86279297 -0.019104 C5.26009254 -0.01552433 6.65739087 -0.01142239 8.0546875 -0.00683594 C9.48193427 -0.00818265 10.90918059 -0.01012323 12.33642578 -0.01263428 C15.32914595 -0.01558528 18.32174681 -0.01128876 21.31445312 -0.00195312 C25.15485123 0.00944151 28.99496982 0.00288189 32.83535767 -0.00909805 C35.7829805 -0.01631737 38.73053681 -0.01402842 41.67816162 -0.00884247 C43.09438103 -0.00750616 44.51060644 -0.00915303 45.92681885 -0.01380157 C47.90433643 -0.01886768 49.88187512 -0.00978001 51.859375 0 C53.54909424 0.00238678 53.54909424 0.00238678 55.27294922 0.00482178 C57.9296875 0.25878906 57.9296875 0.25878906 59.9296875 2.25878906 C60.19711304 4.96453857 60.19711304 4.96453857 60.22021484 8.44921875 C60.23297455 9.75107117 60.24573425 11.05292358 60.25888062 12.39422607 C60.26193877 13.82303723 60.26416626 15.25185038 60.265625 16.68066406 C60.27205111 18.14316947 60.27877933 19.60567358 60.28579712 21.06817627 C60.29778626 24.13825457 60.3014765 27.20822025 60.30029297 30.27832031 C60.3000902 34.20372366 60.32734031 38.12839956 60.36183739 42.05363083 C60.38413305 45.07691734 60.38812964 48.10002991 60.38707352 51.1233902 C60.38942747 52.56982164 60.39823954 54.01625802 60.41373825 55.46260834 C60.43343904 57.49190377 60.42502723 59.52141243 60.41552734 61.55078125 C60.41837738 62.70390808 60.42122742 63.85703491 60.42416382 65.04510498 C59.81874801 68.97980334 58.37390103 71.15407413 55.9296875 74.25878906 C51.36364564 77.34758209 46.09153282 76.13758256 40.9296875 75.25878906 C35.87443987 74.02306186 34.09235697 71.17051183 30.9296875 67.25878906 C27.2087282 66.01846929 23.79517145 65.70971464 19.9296875 66.25878906 C16.61788018 68.02160027 16.61788018 68.02160027 13.9296875 70.25878906 C10.60067067 72.47813362 9.44175113 72.53008804 5.5546875 72.50878906 C4.61882812 72.51394531 3.68296875 72.51910156 2.71875 72.52441406 C-1.46336694 72.12611721 -4.05765035 71.43134524 -6.8515625 68.19628906 C-8.52609126 64.16024538 -8.58436962 60.58838311 -8.5703125 56.25878906 C-8.61285156 55.06769531 -8.61285156 55.06769531 -8.65625 53.85253906 C-8.67010759 49.69526225 -8.46883944 47.79720114 -5.93359375 44.37207031 C-2.94539461 42.16659182 -0.21932037 40.77763824 3.2421875 39.44628906 C4.31082031 39.02734375 5.37945312 38.60839844 6.48046875 38.17675781 C7.28871094 37.87382812 8.09695312 37.57089844 8.9296875 37.25878906 C8.5996875 36.26878906 8.2696875 35.27878906 7.9296875 34.25878906 C4.67258127 33.11925052 1.3808933 32.34101488 -1.96875 31.51660156 C-5.73973165 29.98731177 -6.3355377 28.86443068 -8.0703125 25.25878906 C-8.44262695 22.61157227 -8.44262695 22.61157227 -8.43359375 19.80957031 C-8.43294922 18.79701172 -8.43230469 17.78445313 -8.43164062 16.74121094 C-8.41552734 15.69513672 -8.39941406 14.6490625 -8.3828125 13.57128906 C-8.38603516 12.51361328 -8.38925781 11.4559375 -8.39257812 10.36621094 C-8.31979918 0.01175197 -8.31979918 0.01175197 0 0 Z M13.9296875 18.25878906 C14.62801983 21.48306709 14.62801983 21.48306709 17.58203125 22.72363281 C19.76899527 23.703996 21.95649439 24.6831664 24.14453125 25.66113281 C27.08988036 27.3506809 27.92573527 28.08363895 28.9296875 31.25878906 C29.48352221 36.16418217 29.57201064 38.20206389 26.9921875 42.44628906 C24.10235729 45.51100813 20.58237404 47.27049141 16.8203125 49.08300781 C14.59947325 50.18509776 14.59947325 50.18509776 13.9296875 53.25878906 C16.6118156 54.59985311 18.81366782 54.47329325 21.8125 54.57519531 C23.56240234 54.63803711 23.56240234 54.63803711 25.34765625 54.70214844 C27.18263672 54.76112305 27.18263672 54.76112305 29.0546875 54.82128906 C30.28574219 54.86447266 31.51679688 54.90765625 32.78515625 54.95214844 C35.83321603 55.0584761 38.8813594 55.16050687 41.9296875 55.25878906 C42.51563328 37.69113143 42.51563328 37.69113143 40.9296875 20.25878906 C39.10077373 18.0026388 39.10077373 18.0026388 36.40771484 18.03173828 C35.3708252 18.04221191 34.33393555 18.05268555 33.265625 18.06347656 C31.58339844 18.07314453 31.58339844 18.07314453 29.8671875 18.08300781 C28.6915625 18.09976562 27.5159375 18.11652344 26.3046875 18.13378906 C25.12132812 18.1428125 23.93796875 18.15183594 22.71875 18.16113281 C19.78886227 18.18476094 16.8593741 18.21770392 13.9296875 18.25878906 Z " fill="#0A0A0A" transform="translate(190.0703125,255.7412109375)"/>
<path d="M0 0 C7.33903151 5.95260256 11.16068671 13.83788266 12.4375 23.0625 C13.21176614 32.82117515 10.56655411 40.52177128 4.6875 48.3125 C-1.38013718 55.25642613 -8.60071808 58.61578092 -17.70703125 59.7265625 C-27.13346617 60.12149583 -35.04324599 58.26663237 -42.66015625 52.55078125 C-49.49812855 46.24962173 -53.70449515 38.26947863 -54.515625 28.98828125 C-54.71709076 18.83104941 -52.23312841 10.84901572 -45.3125 3.3125 C-32.79548638 -9.37716209 -14.54367291 -9.92619501 0 0 Z " fill="#FBD500" transform="translate(62.3125,6.6875)"/>
<path d="M0 0 C8.3459584 5.92293822 13.44290764 12.65012633 15.80859375 22.7109375 C16.97527725 31.81821172 15.53708892 40.45393601 10.16015625 48.03515625 C8.4614876 50.04166224 6.7031688 51.88989619 4.80859375 53.7109375 C4.04546875 54.4534375 3.28234375 55.1959375 2.49609375 55.9609375 C-6.81331903 62.02288071 -16.31507112 63.33912047 -27.21484375 61.0859375 C-35.08285404 58.61754212 -41.45079754 54.13656162 -45.82421875 47.07421875 C-50.48121062 37.95982038 -51.98785711 27.99939529 -49.5078125 17.9375 C-48.56403168 15.7053213 -47.49890894 13.74982451 -46.19140625 11.7109375 C-45.77890625 11.01613281 -45.36640625 10.32132813 -44.94140625 9.60546875 C-40.46045321 2.82038929 -34.18289919 -0.69246532 -26.75390625 -3.6640625 C-17.46592496 -5.2935329 -8.28099556 -4.87117386 0 0 Z " fill="#0C55A3" transform="translate(225.19140625,4.2890625)"/>
<path d="M0 0 C2.82350458 2.39570085 3.88495152 4.48032194 4.3984375 8.15234375 C4.46081461 12.20061815 4.39491917 15.05625565 2.625 18.75 C-0.9949355 21.57531551 -4.35677439 22.5800574 -8.9375 22.75 C-12.48535364 22.02817181 -15.10760548 20.49690507 -17.8125 18.0625 C-20.13217632 13.29427646 -20.48272498 9.35538466 -18.8125 4.4375 C-14.22086932 -2.14383731 -7.17023583 -3.05116418 0 0 Z " fill="#0A0A0A" transform="translate(221.9375,324.25)"/>
</svg>
