<?xml version="1.0" encoding="UTF-8"?>
<svg version="1.1" xmlns="http://www.w3.org/2000/svg" width="130" height="130">
<path d="M0 0 C2.625 0.5 2.625 0.5 4.9375 3.5 C5.494375 4.49 6.05125 5.48 6.625 6.5 C7.57375 6.314375 8.5225 6.12875 9.5 5.9375 C12.625 5.5 12.625 5.5 14.625 6.5 C14.625 10.13 14.625 13.76 14.625 17.5 C16.275 17.5 17.925 17.5 19.625 17.5 C20.615 18.16 21.605 18.82 22.625 19.5 C23.615 18.84 24.605 18.18 25.625 17.5 C28.48010892 17.14311138 30.01549995 17.13429997 32.5 18.625 C33.625 20.5 33.625 20.5 33.5625 23.375 C32.51878182 26.85406059 31.05467854 28.83519128 28.625 31.5 C29.8934375 32.8303125 29.8934375 32.8303125 31.1875 34.1875 C33.63384821 37.11067879 33.63384821 37.11067879 33.5625 40.25 C32.625 42.5 32.625 42.5 30.625 44.5 C27.00745897 44.88079379 24.74098788 44.34651134 21.625 42.5 C20.635 43.49 20.635 43.49 19.625 44.5 C16.93660615 44.76991906 14.33358064 44.58737357 11.625 44.5 C11.295 43.84 10.965 43.18 10.625 42.5 C9.80708984 42.99113281 9.80708984 42.99113281 8.97265625 43.4921875 C6.1583372 44.70033112 4.11332793 44.69971415 1.0625 44.625 C0.11246094 44.60695312 -0.83757812 44.58890625 -1.81640625 44.5703125 C-3.08291016 44.53550781 -3.08291016 44.53550781 -4.375 44.5 C-7.56924068 44.15119166 -7.56924068 44.15119166 -9.75 46.8125 C-10.61625 47.699375 -11.4825 48.58625 -12.375 49.5 C-17.86349164 53.2482382 -22.73950424 54.17438795 -29.375 53.5 C-35.34793885 52.00401531 -40.33823852 49.61703276 -43.7890625 44.3359375 C-47.42857254 37.76855345 -48.77088152 32.4430628 -46.7109375 25.1484375 C-44.22073179 18.67390266 -40.26710209 14.37516839 -34.015625 11.36328125 C-27.66355896 9.28664427 -20.61198091 9.49050158 -14.625 12.5 C-13.5525 13.16 -12.48 13.82 -11.375 14.5 C-11.41625 13.22125 -11.4575 11.9425 -11.5 10.625 C-11.5703125 8.4453125 -11.5703125 8.4453125 -11.375 6.5 C-9.13862469 4.26362469 -7.27880073 3.66152029 -4.375 2.5 C-2.375 0.5 -2.375 0.5 0 0 Z M-0.375 28.5 C-0.705 30.15 -1.035 31.8 -1.375 33.5 C0.275 33.5 1.925 33.5 3.625 33.5 C3.955 32.51 4.285 31.52 4.625 30.5 C4.295 29.84 3.965 29.18 3.625 28.5 C2.305 28.5 0.985 28.5 -0.375 28.5 Z " fill="#22250B" transform="translate(75.375,11.5)"/>
<path d="M0 0 C4.3531352 2.71744334 4.3531352 2.71744334 6 5 C6.45127645 8.21061663 5.9409684 11.13957095 5.375 14.3125 C5.19130859 15.56643555 5.19130859 15.56643555 5.00390625 16.84570312 C4.69844651 18.90168213 4.35308819 20.9516631 4 23 C4.99 23 5.98 23 7 23 C6.52403971 27.28364261 4.16126242 29.26023924 1 32 C-4.33118649 35.68105734 -9.73825591 35.78499999 -16 35 C-21.61977055 33.39740384 -24.91677238 29.35790381 -27.89453125 24.49609375 C-30.09671782 19.52366542 -29.91246609 14.89961448 -28.296875 9.765625 C-25.74895819 4.02201591 -22.09563567 0.66688075 -16.5625 -2.3125 C-10.30216966 -3.99210082 -5.66498214 -2.98699059 0 0 Z " fill="#F3E419" transform="translate(60,27)"/>
<path d="M0 0 C3.29148243 1.13499394 3.9959869 1.99283376 5.75 5.125 C6.1625 6.07375 6.575 7.0225 7 8 C7.6496875 7.2575 7.6496875 7.2575 8.3125 6.5 C10 5 10 5 13 5 C13.08694042 9.10403363 13.14037149 13.20783129 13.1875 17.3125 C13.21263672 18.47974609 13.23777344 19.64699219 13.26367188 20.84960938 C13.27333984 21.96787109 13.28300781 23.08613281 13.29296875 24.23828125 C13.3086792 25.26993408 13.32438965 26.30158691 13.34057617 27.36450195 C13 30 13 30 11.48168945 31.86010742 C10.99273193 32.23627197 10.50377441 32.61243652 10 33 C8.07426764 31.07426764 8.5128147 27.64462302 8.28125 25.03125 C8.20934163 23.00819407 8.20934163 23.00819407 7 22 C3.99668982 21.85806663 1.00782866 21.95763622 -2 22 C-2.33 24.97 -2.66 27.94 -3 31 C-1.72125 31.185625 -0.4425 31.37125 0.875 31.5625 C1.59429687 31.66691406 2.31359375 31.77132812 3.0546875 31.87890625 C5.08140667 32.1684297 5.08140667 32.1684297 7 31 C7.12375 31.61875 7.2475 32.2375 7.375 32.875 C7.87197356 35.19120832 7.87197356 35.19120832 10 37 C6.29059351 38.85470324 2.03813164 38.59683078 -2 38 C-5.0625 35.5 -5.0625 35.5 -7 33 C-7.33 33 -7.66 33 -8 33 C-8.92017937 24.5309417 -8.92017937 24.5309417 -6.6640625 20.77734375 C-5.18027954 19.08109421 -3.67546697 17.50592567 -2 16 C-2.44472656 15.55269531 -2.88945313 15.10539062 -3.34765625 14.64453125 C-5.05239217 12.82329857 -6.60847964 11.07229494 -8 9 C-7.875 6.0625 -7.875 6.0625 -7 4 C-4.04590299 5.37154504 -1.55991624 6.98863724 1 9 C0.34 8.01 -0.32 7.02 -1 6 C-1.1875 3.375 -1.1875 3.375 -1 1 C-0.67 0.67 -0.34 0.34 0 0 Z " fill="#F2E71A" transform="translate(74,15)"/>
<path d="M0 0 C2.5625 1.6875 2.5625 1.6875 3.5625 3.625 C3.5625 6.13404501 2.85274129 7.5623967 1.5625 9.6875 C1.2325 8.6975 0.9025 7.7075 0.5625 6.6875 C-1.0875 6.6875 -2.7375 6.6875 -4.4375 6.6875 C-4.85880907 8.93348049 -4.85880907 8.93348049 -4.4375 11.6875 C-3.591875 12.656875 -2.74625 13.62625 -1.875 14.625 C0.5625 17.6875 0.5625 17.6875 0.375 21.0625 C0.106875 21.92875 -0.16125 22.795 -0.4375 23.6875 C-5.3875 24.1825 -5.3875 24.1825 -10.4375 24.6875 C-10.4375 24.0275 -10.4375 23.3675 -10.4375 22.6875 C-11.613125 22.7803125 -11.613125 22.7803125 -12.8125 22.875 C-13.67875 22.813125 -14.545 22.75125 -15.4375 22.6875 C-17.5894437 19.45958445 -17.63836443 18.40349191 -17.4375 14.6875 C-15.7875 14.3575 -14.1375 14.0275 -12.4375 13.6875 C-12.4375 12.0375 -12.4375 10.3875 -12.4375 8.6875 C-15.4075 8.1925 -15.4075 8.1925 -18.4375 7.6875 C-18.4375 9.3375 -18.4375 10.9875 -18.4375 12.6875 C-20.4175 13.6775 -20.4175 13.6775 -22.4375 14.6875 C-22.4375 15.3475 -22.4375 16.0075 -22.4375 16.6875 C-23.4275 16.6875 -24.4175 16.6875 -25.4375 16.6875 C-25.49166188 15.08370659 -25.53036638 13.47938594 -25.5625 11.875 C-25.58570313 10.98167969 -25.60890625 10.08835937 -25.6328125 9.16796875 C-25.4375 6.6875 -25.4375 6.6875 -23.4375 3.6875 C-21.44178677 3.00810826 -19.44155227 2.34188441 -17.4375 1.6875 C-15.77039654 0.18764391 -15.77039654 0.18764391 -14.4375 -1.3125 C-9.36040152 -3.00486616 -4.85863192 -1.855114 0 0 Z " fill="#F8E80F" transform="translate(58.4375,27.3125)"/>
<path d="M0 0 C1.5159375 0.0309375 1.5159375 0.0309375 3.0625 0.0625 C3.7225 0.0625 4.3825 0.0625 5.0625 0.0625 C7.39583333 0.0625 9.72916667 0.0625 12.0625 0.0625 C12.1875 5.8125 12.1875 5.8125 11.0625 8.0625 C11.7225 8.0625 12.3825 8.0625 13.0625 8.0625 C13.0315625 6.3609375 13.0315625 6.3609375 13 4.625 C13.0625 1.0625 13.0625 1.0625 14.0625 0.0625 C15.72867115 0.02186168 17.39638095 0.019779 19.0625 0.0625 C19.0625 2.3725 19.0625 4.6825 19.0625 7.0625 C21.03006452 7.03127057 21.03006452 7.03127057 23.0625 6.0625 C24.3670656 3.06634054 24.3670656 3.06634054 25.0625 0.0625 C26.3825 0.0625 27.7025 0.0625 29.0625 0.0625 C29.5575 1.0525 29.5575 1.0525 30.0625 2.0625 C31.50041516 1.92081863 32.9378237 1.77398957 34.375 1.625 C35.17550781 1.54378906 35.97601563 1.46257812 36.80078125 1.37890625 C39.22337179 1.10984307 39.22337179 1.10984307 42.0625 0.0625 C43.20014351 4.32866316 44.0625 7.62736311 44.0625 12.0625 C40.1025 12.0625 36.1425 12.0625 32.0625 12.0625 C32.0625 11.4025 32.0625 10.7425 32.0625 10.0625 C19.8525 10.0625 7.6425 10.0625 -4.9375 10.0625 C-4.9375 0.10505319 -4.9375 0.10505319 0 0 Z M-0.9375 3.0625 C-0.6075 3.7225 -0.2775 4.3825 0.0625 5.0625 C0.3925 4.4025 0.7225 3.7425 1.0625 3.0625 C0.4025 3.0625 -0.2575 3.0625 -0.9375 3.0625 Z M3.0625 5.0625 C2.7325 6.0525 2.4025 7.0425 2.0625 8.0625 C2.7225 8.0625 3.3825 8.0625 4.0625 8.0625 C3.7325 7.0725 3.4025 6.0825 3.0625 5.0625 Z M7.0625 6.0625 C8.0625 8.0625 8.0625 8.0625 8.0625 8.0625 Z M38.0625 6.0625 C39.0625 8.0625 39.0625 8.0625 39.0625 8.0625 Z " fill="#C15962" transform="translate(65.9375,97.9375)"/>
<path d="M0 0 C1.98 0 3.96 0 6 0 C6.33 1.98 6.66 3.96 7 6 C7.66 4.02 8.32 2.04 9 0 C11.31 0 13.62 0 16 0 C16.66 2.31 17.32 4.62 18 7 C18.33 4.69 18.66 2.38 19 0 C20.98 0 22.96 0 25 0 C24.6889315 2.06271639 24.37608484 4.12516466 24.0625 6.1875 C23.80146484 7.91033203 23.80146484 7.91033203 23.53515625 9.66796875 C23.08620687 12.46325212 22.57917838 15.22933586 22 18 C19.69 18 17.38 18 15 18 C14.34 15.69 13.68 13.38 13 11 C12.01 13.31 11.02 15.62 10 18 C7.69 18 5.38 18 3 18 C2.49645133 15.56318413 1.99703244 13.12564561 1.5 10.6875 C1.35691406 9.99720703 1.21382812 9.30691406 1.06640625 8.59570312 C0.47374956 5.67475227 0 2.98891878 0 0 Z " fill="#211F20" transform="translate(26,73)"/>
<path d="M0 0 C0 3.63 0 7.26 0 11 C1.65 11 3.3 11 5 11 C5.99 11.66 6.98 12.32 8 13 C8.99 12.34 9.98 11.68 11 11 C13.85510892 10.64311138 15.39049995 10.63429997 17.875 12.125 C19 14 19 14 18.9375 16.875 C17.89378182 20.35406059 16.42967854 22.33519128 14 25 C14.845625 25.886875 15.69125 26.77375 16.5625 27.6875 C19.00884821 30.61067879 19.00884821 30.61067879 18.9375 33.75 C18 36 18 36 16 38 C12.38245897 38.38079379 10.11598788 37.84651134 7 36 C6.34 36.66 5.68 37.32 5 38 C1.875 38.125 1.875 38.125 -1 38 C-1 37.67 -1 37.34 -1 37 C1.475 36.505 1.475 36.505 4 36 C4.33 33.69 4.66 31.38 5 29 C8.16115776 30.36983503 8.9927092 30.9890638 11 34 C12.32 34 13.64 34 15 34 C14.49477778 29.62140745 11.82172778 27.18348776 9 24 C9.433125 23.60167969 9.86625 23.20335938 10.3125 22.79296875 C10.869375 22.26316406 11.42625 21.73335937 12 21.1875 C12.556875 20.66542969 13.11375 20.14335938 13.6875 19.60546875 C15.316465 17.95851033 15.316465 17.95851033 15 15 C10.59885603 15.50298788 8.28804981 17.08772731 5 20 C4.67 18.35 4.34 16.7 4 15 C3.01 15 2.02 15 1 15 C0.67 19.29 0.34 23.58 0 28 C-0.33 28 -0.66 28 -1 28 C-1.77528479 24.57426063 -2.11918778 21.42760755 -2.09765625 17.91796875 C-2.09443359 16.98662109 -2.09121094 16.05527344 -2.08789062 15.09570312 C-2.07951172 14.13599609 -2.07113281 13.17628906 -2.0625 12.1875 C-2.05798828 11.20845703 -2.05347656 10.22941406 -2.04882812 9.22070312 C-2.03708684 6.81373889 -2.02066419 4.40690143 -2 2 C-4.97 1.505 -4.97 1.505 -8 1 C-5 -1 -5 -1 0 0 Z " fill="#282905" transform="translate(90,18)"/>
<path d="M0 0 C2.0625 0.4375 2.0625 0.4375 4 1 C4.33 2.32 4.66 3.64 5 5 C5.9075 4.154375 6.815 3.30875 7.75 2.4375 C10.67025483 -0.02603251 10.67025483 -0.02603251 13.375 0.1875 C13.91125 0.455625 14.4475 0.72375 15 1 C14.49477778 5.37859255 11.82172778 7.81651224 9 11 C9.66708984 11.58007812 9.66708984 11.58007812 10.34765625 12.171875 C10.91355469 12.69265625 11.47945312 13.2134375 12.0625 13.75 C12.63097656 14.26046875 13.19945313 14.7709375 13.78515625 15.296875 C15 17 15 17 14.68359375 19.203125 C14.45800781 19.79609375 14.23242188 20.3890625 14 21 C9.16743695 20.58578031 7.17320782 18.53586014 4 15 C4 16.98 4 18.96 4 21 C2.35 21 0.7 21 -1 21 C-1.02888146 17.68751813 -1.04675799 14.37506833 -1.0625 11.0625 C-1.07087891 10.11697266 -1.07925781 9.17144531 -1.08789062 8.19726562 C-1.09111328 7.29814453 -1.09433594 6.39902344 -1.09765625 5.47265625 C-1.10289307 4.64000244 -1.10812988 3.80734863 -1.11352539 2.94946289 C-1 1 -1 1 0 0 Z " fill="#EEE51D" transform="translate(91,32)"/>
<path d="M0 0 C2.17578125 1.5390625 2.17578125 1.5390625 4 4 C4.2911521 6.73682971 4.38322418 9.03940039 4.25 11.75 C4.23195313 12.44738281 4.21390625 13.14476563 4.1953125 13.86328125 C4.14838554 15.57611539 4.07664605 17.28823824 4 19 C2.04196493 19.05389087 0.08351091 19.09274217 -1.875 19.125 C-3.51082031 19.15980469 -3.51082031 19.15980469 -5.1796875 19.1953125 C-8 19 -8 19 -10 17 C-10.25 13.5 -10.25 13.5 -10 10 C-9.34 9.34 -8.68 8.68 -8 8 C-8.33 7.67 -8.66 7.34 -9 7 C-9.25 4.5625 -9.25 4.5625 -9 2 C-5.50875983 -0.32749345 -4.10777749 -0.50299316 0 0 Z M-4 4 C-4 4.66 -4 5.32 -4 6 C-4.99 6.495 -4.99 6.495 -6 7 C-4.68 7 -3.36 7 -2 7 C-2 6.01 -2 5.02 -2 4 C-2.66 4 -3.32 4 -4 4 Z M-4 11 C-4 12.65 -4 14.3 -4 16 C-3.34 15.67 -2.68 15.34 -2 15 C-2 13.68 -2 12.36 -2 11 C-2.66 11 -3.32 11 -4 11 Z " fill="#1F1D1E" transform="translate(62,72)"/>
<path d="M0 0 C1.99954746 -0.04254356 4.00041636 -0.04080783 6 0 C7 1 7 1 7.125 3.5 C7 6 7 6 6 7 C4.33382885 7.04063832 2.66611905 7.042721 1 7 C1.66 9.64 2.32 12.28 3 15 C4.65 15 6.3 15 8 15 C8 15.66 8 16.32 8 17 C11.47653103 16.68039396 14.72147142 16.23010815 18 15 C19.83493534 12.67000879 20.23955349 10.93315083 21 8 C21.66 8 22.32 8 23 8 C22.90977375 12.51131235 22.26329122 15.28930394 19.0625 18.4375 C15.30739551 21.30769258 12.16561477 21.74738646 7.51171875 21.4765625 C3.50213322 20.71580133 0.501024 19.07468089 -3 17 C-3 16.01 -3 15.02 -3 14 C-3.99 13.67 -4.98 13.34 -6 13 C-6.6875 10.9375 -6.6875 10.9375 -7 9 C-6.01 9 -5.02 9 -4 9 C-4 8.34 -4 7.68 -4 7 C-3.01 6.34 -2.02 5.68 -1 5 C-0.27034634 2.43717258 -0.27034634 2.43717258 0 0 Z " fill="#E9DF2C" transform="translate(40,35)"/>
<path d="M0 0 C0.80566406 0.07863281 1.61132812 0.15726562 2.44140625 0.23828125 C3.42947266 0.46064453 3.42947266 0.46064453 4.4375 0.6875 C6.04475635 3.90201269 5.49498185 7.12362536 5.4375 10.6875 C2.7975 10.6875 0.1575 10.6875 -2.5625 10.6875 C-2.2325 12.0075 -1.9025 13.3275 -1.5625 14.6875 C-0.9025 13.6975 -0.2425 12.7075 0.4375 11.6875 C3.0625 11.5 3.0625 11.5 5.4375 11.6875 C5.0625 14.625 5.0625 14.625 4.4375 17.6875 C1.32829391 19.24210305 -2.19333028 19.41470693 -5.5625 18.6875 C-7.70288588 16.58085895 -8.48188394 15.22840779 -8.92578125 12.25 C-8.90902344 11.404375 -8.89226562 10.55875 -8.875 9.6875 C-8.87113281 8.841875 -8.86726563 7.99625 -8.86328125 7.125 C-8.54367503 4.53494441 -7.95158923 2.88648224 -6.5625 0.6875 C-4.07849398 -0.55450301 -2.74042364 -0.29471651 0 0 Z M-2.5625 3.6875 C-2.5625 4.6775 -2.5625 5.6675 -2.5625 6.6875 C-1.5725 6.3575 -0.5825 6.0275 0.4375 5.6875 C0.1075 5.0275 -0.2225 4.3675 -0.5625 3.6875 C-1.2225 3.6875 -1.8825 3.6875 -2.5625 3.6875 Z " fill="#201D1E" transform="translate(93.5625,72.3125)"/>
<path d="M0 0 C0.33 0 0.66 0 1 0 C1.03738281 0.68707031 1.07476562 1.37414063 1.11328125 2.08203125 C1.17902344 2.98308594 1.24476562 3.88414063 1.3125 4.8125 C1.37050781 5.70582031 1.42851563 6.59914063 1.48828125 7.51953125 C2.07514864 10.36427015 2.9371505 11.06988076 5 13 C5 13.99 5 14.98 5 16 C5.5775 16.12375 6.155 16.2475 6.75 16.375 C9 17 9 17 10.6953125 18.03515625 C13.90795457 19.3801098 16.6596139 19.15293283 20.125 19.0625 C26.80555556 18.90277778 26.80555556 18.90277778 29 20 C28.8125 21.875 28.8125 21.875 28 24 C22.38937741 26.81025894 15.97501529 27.1238658 9.94140625 25.41796875 C4.72179954 22.87210267 1.28036962 18.24485012 -1 13 C-1.69209763 8.39488883 -1.47100895 4.41302685 0 0 Z " fill="#DCD136" transform="translate(32,36)"/>
<path d="M0 0 C1.98 0 3.96 0 6 0 C6 8.58 6 17.16 6 26 C4.02 26 2.04 26 0 26 C0 17.42 0 8.84 0 0 Z " fill="#272425" transform="translate(77,65)"/>
<path d="M0 0 C0.33 0 0.66 0 1 0 C1.08725659 4.2290362 1.1404789 8.45784012 1.1875 12.6875 C1.21263672 13.88568359 1.23777344 15.08386719 1.26367188 16.31835938 C1.27333984 17.47529297 1.28300781 18.63222656 1.29296875 19.82421875 C1.3086792 20.88729248 1.32438965 21.95036621 1.34057617 23.0456543 C0.95538304 26.38703212 -0.08628311 28.26958732 -2 31 C-3.9375 30.6875 -3.9375 30.6875 -6 30 C-6.33 29.01 -6.66 28.02 -7 27 C-7.33 27.33 -7.66 27.66 -8 28 C-9.52519276 27.91062197 -11.04681929 27.75462854 -12.5625 27.5625 C-13.38878906 27.46066406 -14.21507813 27.35882813 -15.06640625 27.25390625 C-15.70449219 27.17011719 -16.34257813 27.08632813 -17 27 C-16.71890887 25.35232753 -16.42481474 23.70686855 -16.125 22.0625 C-15.96257812 21.14597656 -15.80015625 20.22945312 -15.6328125 19.28515625 C-15.42398438 18.53105469 -15.21515625 17.77695312 -15 17 C-11.98675805 15.49337903 -9.31713623 15.82229627 -6 16 C-3.60236815 18.39763185 -3.65719414 19.33273498 -3.375 22.625 C-3.30023438 23.44226563 -3.22546875 24.25953125 -3.1484375 25.1015625 C-3.07496094 26.04128906 -3.07496094 26.04128906 -3 27 C-0.77464206 23.66196309 -0.71021596 22.37180289 -0.5859375 18.45703125 C-0.54726562 17.38388672 -0.50859375 16.31074219 -0.46875 15.20507812 C-0.42234375 13.52575195 -0.42234375 13.52575195 -0.375 11.8125 C-0.33632812 10.68134766 -0.29765625 9.55019531 -0.2578125 8.38476562 C-0.16347467 5.5900075 -0.07788348 2.79525722 0 0 Z M-12 20 C-12.33 21.65 -12.66 23.3 -13 25 C-11.35 25 -9.7 25 -8 25 C-7.67 24.01 -7.34 23.02 -7 22 C-7.33 21.34 -7.66 20.68 -8 20 C-9.32 20 -10.64 20 -12 20 Z " fill="#CFC322" transform="translate(87,20)"/>
<path d="M0 0 C0 1.65 0 3.3 0 5 C0.99 5 1.98 5 3 5 C3 6.32 3 7.64 3 9 C2.01 9 1.02 9 0 9 C0 12.3 0 15.6 0 19 C0.99 19 1.98 19 3 19 C3 20.32 3 21.64 3 23 C0.66705225 23.04241723 -1.66702567 23.04092937 -4 23 C-5 22 -5 22 -5.09765625 19.05859375 C-5.08605469 17.86363281 -5.07445313 16.66867188 -5.0625 15.4375 C-5.05347656 14.23996094 -5.04445313 13.04242188 -5.03515625 11.80859375 C-5.02355469 10.88175781 -5.01195313 9.95492187 -5 9 C-5.99 9 -6.98 9 -8 9 C-8 7.68 -8 6.36 -8 5 C-7.01 5 -6.02 5 -5 5 C-5 3.68 -5 2.36 -5 1 C-2 0 -2 0 0 0 Z " fill="#1F1D1E" transform="translate(108,68)"/>
<path d="M0 0 C2.8125 1.4375 2.8125 1.4375 4.25 3.25 C4.97855815 6.08328171 4.80129161 7.68300909 3.8125 10.4375 C2.0625 12.3125 2.0625 12.3125 -0.1875 13.4375 C-4.04801522 13.24447424 -6.28191905 11.91262452 -9.1875 9.4375 C-8.82531321 3.03886674 -8.82531321 3.03886674 -6 0.375 C-3.1875 -0.5625 -3.1875 -0.5625 0 0 Z M-5.1875 4.4375 C-4.1875 6.4375 -4.1875 6.4375 -4.1875 6.4375 Z " fill="#E72228" transform="translate(53.1875,97.5625)"/>
<path d="M0 0 C1.65 0 3.3 0 5 0 C5 8.58 5 17.16 5 26 C3.35 26 1.7 26 0 26 C0 17.42 0 8.84 0 0 Z " fill="#201F20" transform="translate(69,65)"/>
<path d="M0 0 C1.32 0 2.64 0 4 0 C4.33 0.66 4.66 1.32 5 2 C6.43791516 1.85831863 7.8753237 1.71148957 9.3125 1.5625 C10.11300781 1.48128906 10.91351563 1.40007812 11.73828125 1.31640625 C14.16087179 1.04734307 14.16087179 1.04734307 17 0 C17.59732819 2.76264289 18 5.16032769 18 8 C11.73 8 5.46 8 -1 8 C-2 6 -2 6 -1.0625 2.875 C-0.5365625 1.451875 -0.5365625 1.451875 0 0 Z " fill="#7B7C7E" transform="translate(91,98)"/>
<path d="M0 0 C1.5159375 0.0309375 1.5159375 0.0309375 3.0625 0.0625 C3.7225 0.0625 4.3825 0.0625 5.0625 0.0625 C7.39583333 0.0625 9.72916667 0.0625 12.0625 0.0625 C12.1875 5.8125 12.1875 5.8125 11.0625 8.0625 C8.0625 8.0625 5.0625 8.0625 2.0625 8.0625 C0.825 8.124375 0.825 8.124375 -0.4375 8.1875 C-2.9375 8.0625 -2.9375 8.0625 -4.9375 6.0625 C-4.20909209 0.08955515 -4.20909209 0.08955515 0 0 Z M-0.9375 3.0625 C-0.6075 3.7225 -0.2775 4.3825 0.0625 5.0625 C0.3925 4.4025 0.7225 3.7425 1.0625 3.0625 C0.4025 3.0625 -0.2575 3.0625 -0.9375 3.0625 Z " fill="#7E7D7F" transform="translate(65.9375,97.9375)"/>
<path d="M0 0 C0.33 0 0.66 0 1 0 C1.25523438 1.08667969 1.25523438 1.08667969 1.515625 2.1953125 C3.31986035 9.39305992 4.8711601 14.74723527 11.125 19.25 C15.48001663 21.52713288 20.18301135 22.26339811 25 23 C25 23.66 25 24.32 25 25 C17.71378722 25.39033283 12.61389581 24.10110221 6.3125 20.4375 C2.09481459 15.9918316 -1.2844151 10.20079853 -1.375 3.9375 C-1 1 -1 1 0 0 Z " fill="#1B1E10" transform="translate(29,40)"/>
<path d="M0 0 C0.66 0 1.32 0 2 0 C1.90977375 4.51131235 1.26329122 7.28930394 -1.9375 10.4375 C-5.71698227 13.33821376 -8.940731 13.7606382 -13.62890625 13.4609375 C-17.99536324 12.61210402 -20.87474055 10.63674102 -23.375 7 C-24 5 -24 5 -24 1 C-23.34 1 -22.68 1 -22 1 C-21.608125 1.928125 -21.21625 2.85625 -20.8125 3.8125 C-18.81821685 7.31968762 -17.68282857 8.45835083 -14 10 C-10.58211249 10.42723594 -8.51429985 10.20332785 -5.3125 8.9375 C-2.15675793 6.29349989 -1.38126198 3.85299395 0 0 Z " fill="#2B2D01" transform="translate(61,43)"/>
<path d="M0 0 C0.33 0 0.66 0 1 0 C1 2.31 1 4.62 1 7 C8.11107965 9.09401816 8.11107965 9.09401816 15 8 C15.12375 8.61875 15.2475 9.2375 15.375 9.875 C15.87197356 12.19120832 15.87197356 12.19120832 18 14 C14.29059351 15.85470324 10.03813164 15.59683078 6 15 C2.9375 12.5 2.9375 12.5 1 10 C0.67 10 0.34 10 0 10 C0 6.7 0 3.4 0 0 Z " fill="#EAE030" transform="translate(66,38)"/>
<path d="M0 0 C0.66 0 1.32 0 2 0 C2 0.66 2 1.32 2 2 C4.31 2 6.62 2 9 2 C9 2.66 9 3.32 9 4 C9.66 4 10.32 4 11 4 C11 3.34 11 2.68 11 2 C11.99 2.33 12.98 2.66 14 3 C12.68 5.64 11.36 8.28 10 11 C9.34 11 8.68 11 8 11 C7.67 10.01 7.34 9.02 7 8 C6.67 8.33 6.34 8.66 6 9 C4.00041636 9.04080783 1.99954746 9.04254356 0 9 C0 6.03 0 3.06 0 0 Z M3 4 C2.67 4.99 2.34 5.98 2 7 C2.99 7 3.98 7 5 7 C5 6.01 5 5.02 5 4 C4.34 4 3.68 4 3 4 Z " fill="#1E1D1D" transform="translate(28,98)"/>
<path d="M0 0 C2 2 2 2 2.3125 4.4375 C2 7 2 7 0.7734375 8.6796875 C-1 10 -1 10 -3.26171875 10.07421875 C-4.06222656 9.94660156 -4.86273438 9.81898437 -5.6875 9.6875 C-6.49574219 9.56761719 -7.30398437 9.44773437 -8.13671875 9.32421875 C-8.75160156 9.21722656 -9.36648437 9.11023437 -10 9 C-9.51622419 2.5899705 -9.51622419 2.5899705 -7.25 0 C-4.36699859 -1.28133396 -2.95378439 -1.01050518 0 0 Z M-5 2 C-5.33 3.65 -5.66 5.3 -6 7 C-4.35 7 -2.7 7 -1 7 C-0.67 6.01 -0.34 5.02 0 4 C-0.33 3.34 -0.66 2.68 -1 2 C-2.32 2 -3.64 2 -5 2 Z " fill="#2C2A08" transform="translate(80,38)"/>
<path d="M0 0 C0.66 0.33 1.32 0.66 2 1 C1.34 6.94 0.68 12.88 0 19 C0.99 19 1.98 19 3 19 C2.40312566 22.34249629 1.26396123 24.46436342 -1 27 C-1.66 27 -2.32 27 -3 27 C-3 26.34 -3 25.68 -3 25 C-4.32 24.34 -5.64 23.68 -7 23 C-6.20207031 22.19304688 -5.40414062 21.38609375 -4.58203125 20.5546875 C-1.35926965 16.68737358 -1.03190703 13.02138916 -0.6875 8.125 C-0.61466797 7.34125 -0.54183594 6.5575 -0.46679688 5.75 C-0.29164636 3.83502103 -0.14307575 1.91764217 0 0 Z " fill="#D8D039" transform="translate(64,31)"/>
<path d="M0 0 C2.625 0.375 2.625 0.375 4.4375 2.75 C5.625 5.375 5.625 5.375 5.625 7.375 C7.275 7.375 8.925 7.375 10.625 7.375 C8.975 9.025 7.325 10.675 5.625 12.375 C5.11839844 11.50875 5.11839844 11.50875 4.6015625 10.625 C3.93253906 9.51125 3.93253906 9.51125 3.25 8.375 C2.80914062 7.6325 2.36828125 6.89 1.9140625 6.125 C1.48867187 5.5475 1.06328125 4.97 0.625 4.375 C-0.035 4.375 -0.695 4.375 -1.375 4.375 C-1.21 5.468125 -1.045 6.56125 -0.875 7.6875 C-0.375 11.375 -0.375 11.375 -0.375 14.375 C-2.025 12.395 -3.675 10.415 -5.375 8.375 C-4.715 8.375 -4.055 8.375 -3.375 8.375 C-3.395625 7.240625 -3.41625 6.10625 -3.4375 4.9375 C-3.36018519 0.53055556 -3.36018519 0.53055556 0 0 Z " fill="#37360D" transform="translate(75.375,11.625)"/>
<path d="M0 0 C3.21365891 1.10815825 3.9914224 1.98529554 5.75 5 C7 8 7 8 7 10 C6.34 10 5.68 10 5 10 C4.67 10.99 4.34 11.98 4 13 C0.36827755 9.13397287 -0.69457852 6.29397231 -1 1 C-0.67 0.67 -0.34 0.34 0 0 Z " fill="#EBE32B" transform="translate(74,15)"/>
<path d="M0 0 C2.31 0.66 4.62 1.32 7 2 C7 2.66 7 3.32 7 4 C7.86625 3.649375 8.7325 3.29875 9.625 2.9375 C13.24825242 1.931041 15.3853322 2.13936481 19 3 C16.41073669 5.58926331 14.97294721 5.37398043 11.375 5.625 C10.37210938 5.69976562 9.36921875 5.77453125 8.3359375 5.8515625 C7.17964844 5.92503906 7.17964844 5.92503906 6 6 C6 5.34 6 4.68 6 4 C4.02 4 2.04 4 0 4 C-0.33 3.01 -0.66 2.02 -1 1 C-0.67 0.67 -0.34 0.34 0 0 Z " fill="#F9E80E" transform="translate(40,55)"/>
<path d="M0 0 C2.4375 2.1875 2.4375 2.1875 4 4 C3.34 3.731875 2.68 3.46375 2 3.1875 C1.01 2.795625 0.02 2.40375 -1 2 C-1.61617187 1.72414063 -2.23234375 1.44828125 -2.8671875 1.1640625 C-7.60049877 -0.84345084 -10.8846447 -1.47558326 -16 0 C-17.35251497 1.31387169 -18.68945377 2.64426252 -20 4 C-22.25 3.75 -22.25 3.75 -24 3 C-16.20902427 -3.6779792 -9.33811314 -4.93334279 0 0 Z " fill="#D9D438" transform="translate(60,27)"/>
<path d="M0 0 C0 3.63 0 7.26 0 11 C1.65 11 3.3 11 5 11 C5.33 11.66 5.66 12.32 6 13 C3.69 13.33 1.38 13.66 -1 14 C-1.96070434 11.11788698 -2.10581883 9.30149956 -2.0625 6.3125 C-2.05347656 5.50425781 -2.04445313 4.69601563 -2.03515625 3.86328125 C-2.01775391 2.94095703 -2.01775391 2.94095703 -2 2 C-4.97 1.505 -4.97 1.505 -8 1 C-5 -1 -5 -1 0 0 Z " fill="#131717" transform="translate(90,18)"/>
<path d="M0 0 C-4.75 4 -4.75 4 -7 4 C-7.33 6.31 -7.66 8.62 -8 11 C-8.99 10.34 -9.98 9.68 -11 9 C-10.8125 5.6875 -10.8125 5.6875 -10 2 C-6.55207714 -1.06482032 -4.3491741 -1.36688329 0 0 Z " fill="#DE2331" transform="translate(55,98)"/>
<path d="M0 0 C-0.34879632 3.25543229 -1.02133261 4.01873107 -3.5625 6.25 C-4.7690625 7.11625 -4.7690625 7.11625 -6 8 C-6 6.68 -6 5.36 -6 4 C-7.32 4.33 -8.64 4.66 -10 5 C-5 -1.5 -5 -1.5 0 0 Z " fill="#E1D730" transform="translate(106,33)"/>
<path d="M0 0 C1.2065625 0.0309375 1.2065625 0.0309375 2.4375 0.0625 C2.47991723 2.39544775 2.47842937 4.72952567 2.4375 7.0625 C1.4375 8.0625 1.4375 8.0625 -1.125 8.125 C-1.929375 8.104375 -2.73375 8.08375 -3.5625 8.0625 C-3.60491723 5.72955225 -3.60342937 3.39547433 -3.5625 1.0625 C-2.5625 0.0625 -2.5625 0.0625 0 0 Z " fill="#837F82" transform="translate(82.5625,97.9375)"/>
<path d="M0 0 C1.65 1.32 3.3 2.64 5 4 C4.67 5.32 4.34 6.64 4 8 C1.75 7.875 1.75 7.875 -1 7 C-3.3125 3.9375 -3.3125 3.9375 -5 1 C-2.525 1.495 -2.525 1.495 0 2 C0 1.34 0 0.68 0 0 Z " fill="#E8DB2E" transform="translate(101,45)"/>
<path d="M0 0 C-0.99 0.33 -1.98 0.66 -3 1 C-2.67 1.99 -2.34 2.98 -2 4 C-2.66 4 -3.32 4 -4 4 C-4 4.66 -4 5.32 -4 6 C-3.34 6.66 -2.68 7.32 -2 8 C-4.31 7.67 -6.62 7.34 -9 7 C-9.1875 4.625 -9.1875 4.625 -9 2 C-5.5647952 -0.29013653 -4.014669 -0.17842973 0 0 Z " fill="#2A2829" transform="translate(62,72)"/>
<path d="M0 0 C1.65 0 3.3 0 5 0 C6.125 4.75 6.125 4.75 5 7 C3.35 6.67 1.7 6.34 0 6 C-1.125 2.25 -1.125 2.25 0 0 Z " fill="#9C9418" transform="translate(54,34)"/>
<path d="M0 0 C0.33 0 0.66 0 1 0 C1.98248524 4.0527516 2.08159574 7.83861737 2 12 C3.65 12 5.3 12 7 12 C6.67 12.66 6.34 13.32 6 14 C3.67843403 14.40729228 1.3431213 14.74438677 -1 15 C-1.33 13.68 -1.66 12.36 -2 11 C-1.01 11 -0.02 11 1 11 C1 9.68 1 8.36 1 7 C0.34 7 -0.32 7 -1 7 C-0.67 4.69 -0.34 2.38 0 0 Z " fill="#2F350E" transform="translate(88,41)"/>
<path d="M0 0 C2.7648665 -0.22417836 4.46277487 -0.32233508 6.875 1.125 C8 3 8 3 8.0625 5.875 C6.61617262 10.12890405 4.60348308 11.39322501 1 14 C2.15173355 11.53199953 3.04783565 9.95216435 5 8 C5.64767793 5.42938689 5.64767793 5.42938689 6 3 C3.69 2.67 1.38 2.34 -1 2 C-0.67 1.34 -0.34 0.68 0 0 Z " fill="#1A201C" transform="translate(101,29)"/>
<path d="M0 0 C3.875 1.75 3.875 1.75 5 4 C4.01 4.33 3.02 4.66 2 5 C2.6496875 5.61488281 2.6496875 5.61488281 3.3125 6.2421875 C4.1478125 7.05042969 4.1478125 7.05042969 5 7.875 C5.556875 8.40867187 6.11375 8.94234375 6.6875 9.4921875 C8 11 8 11 8 13 C3.72786249 11.57595416 1.37290048 8.78230781 -1 5 C-0.875 2.0625 -0.875 2.0625 0 0 Z " fill="#E3DC35" transform="translate(67,19)"/>
<path d="M0 0 C3.87533393 3.269813 3.87533393 3.269813 4.4375 6.5625 C3.93493775 9.36248966 3.19653565 10.26107595 1 12 C-0.65606367 10.34393633 -0.39915554 8.27134998 -0.625 6 C-0.72039062 5.0925 -0.81578125 4.185 -0.9140625 3.25 C-0.94242187 2.5075 -0.97078125 1.765 -1 1 C-0.67 0.67 -0.34 0.34 0 0 Z " fill="#F6E911" transform="translate(83,36)"/>
<path d="M0 0 C0.33 0 0.66 0 1 0 C1 6.6 1 13.2 1 20 C1.99 20.33 2.98 20.66 4 21 C4.33 21.66 4.66 22.32 5 23 C3.35 23 1.7 23 0 23 C0 15.41 0 7.82 0 0 Z " fill="#191717" transform="translate(69,68)"/>
<path d="M0 0 C2.62187494 1.04874998 3.79371361 1.64931313 5.25 4.125 C5.4975 4.74375 5.745 5.3625 6 6 C4.68 5.67 3.36 5.34 2 5 C1.34 6.32 0.68 7.64 0 9 C-1.98 9 -3.96 9 -6 9 C-6 8.67 -6 8.34 -6 8 C-4.35 7.67 -2.7 7.34 -1 7 C-0.67 4.69 -0.34 2.38 0 0 Z " fill="#292C09" transform="translate(95,47)"/>
<path d="M0 0 C1.98 0 3.96 0 6 0 C6 0.66 6 1.32 6 2 C12.93 1.01 12.93 1.01 20 0 C16.80640692 3.19359308 13.88303256 3.15818838 9.5625 3.1875 C8.14130859 3.20876953 8.14130859 3.20876953 6.69140625 3.23046875 C3.95498356 2.99614518 2.33571877 2.39701383 0 1 C0 0.67 0 0.34 0 0 Z " fill="#E3D735" transform="translate(40,59)"/>
<path d="M0 0 C1.32 0 2.64 0 4 0 C4.33 1.32 4.66 2.64 5 4 C6.65 4 8.3 4 10 4 C8.35 5.65 6.7 7.3 5 9 C3.35 6.03 1.7 3.06 0 0 Z " fill="#29290C" transform="translate(76,15)"/>
<path d="M0 0 C0 0.99 0 1.98 0 3 C-1.19625 2.814375 -2.3925 2.62875 -3.625 2.4375 C-7.28283707 1.9688803 -10.37862166 2.18518987 -14 3 C-14 2.34 -14 1.68 -14 1 C-8.83955235 -0.512545 -5.34001821 -1.33500455 0 0 Z " fill="#EEE42A" transform="translate(61,56)"/>
<path d="M0 0 C-0.33 0.99 -0.66 1.98 -1 3 C-1 2.34 -1 1.68 -1 1 C-1.66 1 -2.32 1 -3 1 C-2.34 3.64 -1.68 6.28 -1 9 C-1.66 9 -2.32 9 -3 9 C-3 8.01 -3 7.02 -3 6 C-3.99 5.67 -4.98 5.34 -6 5 C-6.6875 2.9375 -6.6875 2.9375 -7 1 C-4 0 -4 0 0 0 Z " fill="#D0C821" transform="translate(40,43)"/>
<path d="M0 0 C2.0625 0.4375 2.0625 0.4375 4 1 C4 2.65 4 4.3 4 6 C3.01 5.67 2.02 5.34 1 5 C0.34 6.32 -0.32 7.64 -1 9 C-1.09765625 2.84765625 -1.09765625 2.84765625 -1 1 C-0.67 0.67 -0.34 0.34 0 0 Z " fill="#F0E437" transform="translate(91,32)"/>
<path d="M0 0 C2 2 2 2 2.1953125 3.9453125 C2.13020833 5.96354167 2.06510417 7.98177083 2 10 C1.34 9.67 0.68 9.34 0 9 C0.04125 8.21625 0.0825 7.4325 0.125 6.625 C0.28728734 3.83883881 0.28728734 3.83883881 -2 2 C-5.59679066 2.32326553 -5.59679066 2.32326553 -9 3 C-9 2.34 -9 1.68 -9 1 C-5.98675805 -0.50662097 -3.31713623 -0.17770373 0 0 Z " fill="#E0D634" transform="translate(81,36)"/>
<path d="M0 0 C3 3 3 3 3.1875 6.6875 C3.125625 7.780625 3.06375 8.87375 3 10 C2.01 10 1.02 10 0 10 C0 6.7 0 3.4 0 0 Z " fill="#F9EA17" transform="translate(91,42)"/>
<path d="M0 0 C2 1.3125 2 1.3125 4 3 C4 3.99 4 4.98 4 6 C4.66 6 5.32 6 6 6 C6 6.99 6 7.98 6 9 C4.125 8.75 4.125 8.75 2 8 C-0.02755186 5.06004981 0 3.72295997 0 0 Z " fill="#F5EC0F" transform="translate(33,46)"/>
<path d="M0 0 C3.77545388 1.09068668 6.47043472 1.9083091 9 5 C6.75 5.75 6.75 5.75 4 6 C1.6875 4.1875 1.6875 4.1875 0 2 C0 1.34 0 0.68 0 0 Z " fill="#F0E516" transform="translate(68,22)"/>
<path d="M0 0 C0.99 0.33 1.98 0.66 3 1 C1.68 3.64 0.36 6.28 -1 9 C-1.66 9 -2.32 9 -3 9 C-3 8.34 -3 7.68 -3 7 C-2.34 7 -1.68 7 -1 7 C-1.33 5.35 -1.66 3.7 -2 2 C-1.34 2 -0.68 2 0 2 C0 1.34 0 0.68 0 0 Z " fill="#242123" transform="translate(39,100)"/>
<path d="M0 0 C0.66 0.66 1.32 1.32 2 2 C0.26107595 4.19653565 -0.63751034 4.93493775 -3.4375 5.4375 C-6.73521824 4.87447493 -7.88160538 3.51068992 -10 1 C-7.03 1.33 -4.06 1.66 -1 2 C-0.67 1.34 -0.34 0.68 0 0 Z " fill="#0F1511" transform="translate(107,51)"/>
<path d="M0 0 C1.65 0.33 3.3 0.66 5 1 C4.67 2.32 4.34 3.64 4 5 C2.35 5 0.7 5 -1 5 C-0.67 3.35 -0.34 1.7 0 0 Z " fill="#E7DF26" transform="translate(62,49)"/>
<path d="M0 0 C4.29 0 8.58 0 13 0 C8.83360609 3.12479543 7.92637159 3.6288985 3 3 C2.01 2.01 1.02 1.02 0 0 Z " fill="#D0C831" transform="translate(44,51)"/>
<path d="M0 0 C1.32 1.32 2.64 2.64 4 4 C3 7 3 7 1 9 C-1.125 8.625 -1.125 8.625 -3 8 C-2.01 7.67 -1.02 7.34 0 7 C0 4.69 0 2.38 0 0 Z " fill="#262613" transform="translate(105,45)"/>
<path d="M0 0 C-0.99 1.485 -0.99 1.485 -2 3 C-5.96 2.67 -9.92 2.34 -14 2 C-14 1.67 -14 1.34 -14 1 C-12.04310963 0.63794536 -10.08442332 0.28558579 -8.125 -0.0625 C-7.03445312 -0.25972656 -5.94390625 -0.45695312 -4.8203125 -0.66015625 C-2 -1 -2 -1 0 0 Z " fill="#31360B" transform="translate(60,61)"/>
<path d="M0 0 C3.63 0.66 7.26 1.32 11 2 C11 2.33 11 2.66 11 3 C7.37 3 3.74 3 0 3 C0 2.01 0 1.02 0 0 Z " fill="#151C13" transform="translate(71,53)"/>
<path d="M0 0 C1.32 0.33 2.64 0.66 4 1 C4 4.63 4 8.26 4 12 C3.67 12 3.34 12 3 12 C3 9.03 3 6.06 3 3 C0.03 2.505 0.03 2.505 -3 2 C-2.01 1.34 -1.02 0.68 0 0 Z " fill="#191A0E" transform="translate(85,17)"/>
<path d="M0 0 C2.75383923 1.37691962 3.51483101 3.36720042 5 6 C2 6 2 6 0 5 C0 4.34 0 3.68 0 3 C-0.99 2.67 -1.98 2.34 -3 2 C-2.01 1.34 -1.02 0.68 0 0 Z " fill="#3F3B0A" transform="translate(67,47)"/>
<path d="M0 0 C0.66 0 1.32 0 2 0 C1.34 3.63 0.68 7.26 0 11 C-3 7 -3 7 -2.8125 4.375 C-2 2 -2 2 0 0 Z " fill="#393A19" transform="translate(31,34)"/>
<path d="M0 0 C0 1.98 0 3.96 0 6 C-0.66 6 -1.32 6 -2 6 C-2 5.34 -2 4.68 -2 4 C-3.65 4 -5.3 4 -7 4 C-5.68623885 1.3724777 -3.03378869 0 0 0 Z " fill="#10150F" transform="translate(72,14)"/>
<path d="M0 0 C0.66 0 1.32 0 2 0 C2 0.66 2 1.32 2 2 C2.66 2 3.32 2 4 2 C3.34 3.65 2.68 5.3 2 7 C1.34 7 0.68 7 0 7 C0 4.69 0 2.38 0 0 Z " fill="#1B1416" transform="translate(28,98)"/>
<path d="M0 0 C0.66 0 1.32 0 2 0 C3.4606285 2.64738916 4 3.89448334 4 7 C3.01 6.67 2.02 6.34 1 6 C0.67 4.02 0.34 2.04 0 0 Z " fill="#262400" transform="translate(37,44)"/>
<path d="M0 0 C0.66 0 1.32 0 2 0 C2 0.99 2 1.98 2 3 C2.99 3.33 3.98 3.66 5 4 C3.35 5.32 1.7 6.64 0 8 C0 5.33333333 0 2.66666667 0 0 Z " fill="#3C3E08" transform="translate(65,31)"/>
<path d="M0 0 C2.57343171 1.07918104 4.66603411 2.44402274 7 4 C1.46153846 4.36923077 1.46153846 4.36923077 -0.875 2.5 C-1.24625 2.005 -1.6175 1.51 -2 1 C-1.34 0.67 -0.68 0.34 0 0 Z " fill="#262B11" transform="translate(37,58)"/>
<path d="M0 0 C1.32 0.33 2.64 0.66 4 1 C3.67 2.32 3.34 3.64 3 5 C2.01 4.67 1.02 4.34 0 4 C0 2.68 0 1.36 0 0 Z " fill="#3B3A01" transform="translate(42,36)"/>
<path d="M0 0 C1.32 0.33 2.64 0.66 4 1 C4 2.32 4 3.64 4 5 C2.68 5 1.36 5 0 5 C0 3.35 0 1.7 0 0 Z " fill="#1C2115" transform="translate(67,29)"/>
</svg>
